<ttFont>
<head>
    <!-- Most of this table will be recalculated by the compiler -->
    <tableVersion value="1.0"/>
    <fontRevision value="1.0"/>
    <checkSumAdjustment value="0x4e284863"/>
    <magicNumber value="0x5f0f3cf5"/>
    <flags value="00000000 00011111"/>
    <unitsPerEm value="1000"/>
    <created value="Tue Jan 17 04:00:36 2017"/>
    <modified value="Tue Jan 17 04:00:36 2017"/>
    <xMin value="-452"/>
    <yMin value="-229"/>
    <xMax value="545"/>
    <yMax value="694"/>
    <macStyle value="00000000 00000000"/>
    <lowestRecPPEM value="8"/>
    <fontDirectionHint value="2"/>
    <indexToLocFormat value="0"/>
    <glyphDataFormat value="0"/>
  </head>
    <TTGlyph name=".notdef" xMin="50" yMin="0" xMax="200" yMax="533">
      <contour>
        <pt x="50" y="0" on="1"/>
        <pt x="50" y="533" on="1"/>
        <pt x="200" y="533" on="1"/>
        <pt x="200" y="0" on="1"/>
      </contour>
      <contour>
        <pt x="100" y="50" on="1"/>
        <pt x="150" y="50" on="1"/>
        <pt x="150" y="483" on="1"/>
        <pt x="100" y="483" on="1"/>
      </contour>
    </TTGlyph>
    <TTGlyph name="A" xMin="28" yMin="1" xMax="496" yMax="623">
      <contour>
        <pt x="454" y="76" on="1"/>
        <pt x="479" y="76" on="0"/>
        <pt x="496" y="60" on="0"/>
        <pt x="496" y="38" on="1"/>
        <pt x="496" y="11" on="0"/>
        <pt x="478" y="3" on="1"/>
        <pt x="474" y="1" on="0"/>
        <pt x="395" y="1" on="1"/>
        <pt x="317" y="1" on="1"/>
        <pt x="295" y="8" on="0"/>
        <pt x="295" y="38" on="1"/>
        <pt x="295" y="53" on="0"/>
        <pt x="297" y="57" on="1"/>
        <pt x="303" y="68" on="0"/>
        <pt x="314" y="75" on="0"/>
        <pt x="333" y="76" on="1"/>
        <pt x="348" y="77" on="1"/>
        <pt x="348" y="78" on="1"/>
        <pt x="348" y="80" on="0"/>
        <pt x="341" y="112" on="1"/>
        <pt x="334" y="143" on="1"/>
        <pt x="190" y="143" on="1"/>
        <pt x="183" y="112" on="1"/>
        <pt x="176" y="80" on="0"/>
        <pt x="176" y="78" on="1"/>
        <pt x="175" y="76" on="0"/>
        <pt x="178" y="76" on="1"/>
        <pt x="180" y="76" on="0"/>
        <pt x="191" y="76" on="1"/>
        <pt x="210" y="75" on="0"/>
        <pt x="221" y="68" on="0"/>
        <pt x="227" y="57" on="1"/>
        <pt x="229" y="53" on="0"/>
        <pt x="229" y="38" on="1"/>
        <pt x="229" y="9" on="0"/>
        <pt x="208" y="1" on="1"/>
        <pt x="129" y="1" on="1"/>
        <pt x="50" y="1" on="0"/>
        <pt x="46" y="3" on="1"/>
        <pt x="28" y="11" on="0"/>
        <pt x="28" y="38" on="1"/>
        <pt x="28" y="60" on="0"/>
        <pt x="45" y="76" on="0"/>
        <pt x="70" y="76" on="1"/>
        <pt x="89" y="76" on="0"/>
        <pt x="89" y="78" on="1"/>
        <pt x="90" y="79" on="0"/>
        <pt x="145" y="331" on="0"/>
        <pt x="202" y="591" on="0"/>
        <pt x="205" y="599" on="1"/>
        <pt x="210" y="614" on="0"/>
        <pt x="228" y="621" on="1"/>
        <pt x="234" y="623" on="0"/>
        <pt x="290" y="623" on="0"/>
        <pt x="295" y="621" on="1"/>
        <pt x="315" y="614" on="0"/>
        <pt x="319" y="599" on="1"/>
        <pt x="322" y="591" on="0"/>
        <pt x="379" y="331" on="0"/>
        <pt x="434" y="79" on="0"/>
        <pt x="435" y="78" on="1"/>
        <pt x="435" y="76" on="0"/>
      </contour>
      <contour>
        <pt x="263" y="519" on="1"/>
        <pt x="263" y="526" on="0"/>
        <pt x="262" y="527" on="1"/>
        <pt x="261" y="527" on="0"/>
        <pt x="261" y="520" on="1"/>
        <pt x="261" y="492" on="0"/>
        <pt x="234" y="354" on="1"/>
        <pt x="210" y="232" on="0"/>
        <pt x="206" y="221" on="1"/>
        <pt x="206" y="219" on="0"/>
        <pt x="318" y="219" on="0"/>
        <pt x="318" y="221" on="1"/>
        <pt x="314" y="232" on="0"/>
        <pt x="290" y="354" on="1"/>
        <pt x="263" y="491" on="0"/>
      </contour>
    </TTGlyph>
    <TTGlyph name="B" xMin="17" yMin="1" xMax="482" yMax="611">
      <contour>
        <pt x="39" y="1" on="1"/>
        <pt x="26" y="6" on="0"/>
        <pt x="17" y="20" on="0"/>
        <pt x="17" y="38" on="1"/>
        <pt x="17" y="54" on="0"/>
        <pt x="19" y="59" on="1"/>
        <pt x="25" y="68" on="0"/>
        <pt x="34" y="73" on="1"/>
        <pt x="40" y="76" on="0"/>
        <pt x="61" y="76" on="1"/>
        <pt x="84" y="76" on="1"/>
        <pt x="84" y="535" on="1"/>
        <pt x="61" y="535" on="1"/>
        <pt x="40" y="535" on="0"/>
        <pt x="34" y="538" on="1"/>
        <pt x="24" y="543" on="0"/>
        <pt x="19" y="553" on="1"/>
        <pt x="17" y="557" on="0"/>
        <pt x="17" y="573" on="1"/>
        <pt x="17" y="591" on="0"/>
        <pt x="26" y="605" on="0"/>
        <pt x="39" y="610" on="1"/>
        <pt x="40" y="611" on="0"/>
        <pt x="179" y="611" on="1"/>
        <pt x="320" y="610" on="0"/>
        <pt x="332" y="607" on="1"/>
        <pt x="332" y="607" on="0"/>
        <pt x="339" y="605" on="1"/>
        <pt x="373" y="596" on="0"/>
        <pt x="429" y="551" on="0"/>
        <pt x="444" y="521" on="1"/>
        <pt x="461" y="488" on="0"/>
        <pt x="461" y="454" on="1"/>
        <pt x="461" y="413" on="0"/>
        <pt x="411" y="343" on="0"/>
        <pt x="369" y="325" on="1"/>
        <pt x="358" y="320" on="1"/>
        <pt x="409" y="310" on="0"/>
        <pt x="482" y="224" on="0"/>
        <pt x="482" y="169" on="1"/>
        <pt x="482" y="140" on="0"/>
        <pt x="472" y="114" on="1"/>
        <pt x="457" y="71" on="0"/>
        <pt x="390" y="12" on="0"/>
        <pt x="345" y="3" on="1"/>
        <pt x="334" y="1" on="1"/>
      </contour>
      <contour>
        <pt x="309" y="533" on="1"/>
        <pt x="302" y="535" on="0"/>
        <pt x="234" y="535" on="1"/>
        <pt x="168" y="535" on="1"/>
        <pt x="168" y="356" on="1"/>
        <pt x="230" y="356" on="1"/>
        <pt x="292" y="357" on="0"/>
        <pt x="299" y="359" on="1"/>
        <pt x="333" y="368" on="0"/>
        <pt x="377" y="419" on="0"/>
        <pt x="377" y="452" on="1"/>
        <pt x="377" y="482" on="0"/>
        <pt x="339" y="528" on="0"/>
      </contour>
      <contour>
        <pt x="398" y="176" on="1"/>
        <pt x="396" y="216" on="0"/>
        <pt x="348" y="274" on="0"/>
        <pt x="315" y="279" on="1"/>
        <pt x="310" y="280" on="0"/>
        <pt x="237" y="280" on="1"/>
        <pt x="168" y="280" on="1"/>
        <pt x="168" y="76" on="1"/>
        <pt x="239" y="76" on="1"/>
        <pt x="316" y="77" on="0"/>
        <pt x="327" y="81" on="1"/>
        <pt x="329" y="82" on="0"/>
        <pt x="334" y="84" on="1"/>
        <pt x="363" y="94" on="0"/>
        <pt x="398" y="142" on="0"/>
      </contour>
    </TTGlyph>
    <TTGlyph name="C" xMin="40" yMin="-11" xMax="484" yMax="622">
      <contour>
        <pt x="281" y="-11" on="1"/>
        <pt x="173" y="-11" on="0"/>
        <pt x="40" y="184" on="0"/>
        <pt x="40" y="305" on="1"/>
        <pt x="40" y="428" on="0"/>
        <pt x="165" y="608" on="0"/>
        <pt x="257" y="620" on="1"/>
        <pt x="273" y="622" on="0"/>
        <pt x="281" y="622" on="1"/>
        <pt x="343" y="622" on="0"/>
        <pt x="394" y="584" on="1"/>
        <pt x="396" y="583" on="0"/>
        <pt x="399" y="581" on="1"/>
        <pt x="403" y="578" on="0"/>
        <pt x="404" y="578" on="1"/>
        <pt x="409" y="585" on="0"/>
        <pt x="414" y="594" on="1"/>
        <pt x="424" y="612" on="0"/>
        <pt x="438" y="622" on="0"/>
        <pt x="452" y="622" on="1"/>
        <pt x="474" y="622" on="0"/>
        <pt x="482" y="603" on="1"/>
        <pt x="484" y="598" on="0"/>
        <pt x="484" y="508" on="1"/>
        <pt x="484" y="417" on="0"/>
        <pt x="482" y="412" on="1"/>
        <pt x="478" y="400" on="0"/>
        <pt x="462" y="393" on="0"/>
        <pt x="442" y="393" on="1"/>
        <pt x="417" y="393" on="0"/>
        <pt x="409" y="402" on="1"/>
        <pt x="400" y="409" on="0"/>
        <pt x="400" y="420" on="1"/>
        <pt x="400" y="447" on="0"/>
        <pt x="381" y="485" on="1"/>
        <pt x="350" y="546" on="0"/>
        <pt x="295" y="546" on="1"/>
        <pt x="242" y="546" on="0"/>
        <pt x="197" y="501" on="1"/>
        <pt x="124" y="430" on="0"/>
        <pt x="124" y="306" on="1"/>
        <pt x="124" y="193" on="0"/>
        <pt x="185" y="123" on="1"/>
        <pt x="233" y="66" on="0"/>
        <pt x="296" y="66" on="1"/>
        <pt x="341" y="66" on="0"/>
        <pt x="400" y="132" on="0"/>
        <pt x="400" y="178" on="1"/>
        <pt x="400" y="196" on="0"/>
        <pt x="420" y="209" on="0"/>
        <pt x="442" y="209" on="1"/>
        <pt x="466" y="209" on="0"/>
        <pt x="484" y="194" on="0"/>
        <pt x="484" y="172" on="1"/>
        <pt x="480" y="96" on="0"/>
        <pt x="364" y="-11" on="0"/>
      </contour>
    </TTGlyph>
    <TTGlyph name="D" xMin="16" yMin="1" xMax="485" yMax="611">
      <contour>
        <pt x="38" y="1" on="1"/>
        <pt x="16" y="8" on="0"/>
        <pt x="16" y="38" on="1"/>
        <pt x="16" y="62" on="0"/>
        <pt x="32" y="73" on="1"/>
        <pt x="39" y="76" on="0"/>
        <pt x="58" y="76" on="1"/>
        <pt x="78" y="76" on="1"/>
        <pt x="78" y="535" on="1"/>
        <pt x="58" y="535" on="1"/>
        <pt x="40" y="535" on="0"/>
        <pt x="32" y="538" on="1"/>
        <pt x="16" y="549" on="0"/>
        <pt x="16" y="573" on="1"/>
        <pt x="16" y="587" on="0"/>
        <pt x="17" y="591" on="1"/>
        <pt x="23" y="605" on="0"/>
        <pt x="38" y="610" on="1"/>
        <pt x="39" y="611" on="0"/>
        <pt x="166" y="611" on="1"/>
        <pt x="292" y="610" on="0"/>
        <pt x="301" y="608" on="1"/>
        <pt x="368" y="593" on="0"/>
        <pt x="415" y="530" on="1"/>
        <pt x="485" y="438" on="0"/>
        <pt x="485" y="300" on="1"/>
        <pt x="485" y="163" on="0"/>
        <pt x="414" y="77" on="1"/>
        <pt x="366" y="17" on="0"/>
        <pt x="301" y="3" on="1"/>
        <pt x="291" y="1" on="1"/>
      </contour>
      <contour>
        <pt x="400" y="301" on="1"/>
        <pt x="400" y="390" on="0"/>
        <pt x="324" y="524" on="0"/>
        <pt x="267" y="534" on="1"/>
        <pt x="261" y="535" on="0"/>
        <pt x="210" y="535" on="1"/>
        <pt x="162" y="535" on="1"/>
        <pt x="162" y="76" on="1"/>
        <pt x="214" y="76" on="1"/>
        <pt x="267" y="77" on="1"/>
        <pt x="327" y="91" on="0"/>
        <pt x="400" y="213" on="0"/>
      </contour>
    </TTGlyph>
    <TTGlyph name="Delta" xMin="35" yMin="0" xMax="489" yMax="623">
      <contour>
        <pt x="232" y="622" on="1"/>
        <pt x="237" y="622" on="1"/>
        <pt x="242" y="622" on="0"/>
        <pt x="257" y="623" on="0"/>
        <pt x="264" y="623" on="1"/>
        <pt x="293" y="623" on="1"/>
        <pt x="295" y="622" on="0"/>
        <pt x="305" y="615" on="0"/>
        <pt x="311" y="611" on="0"/>
        <pt x="318" y="605" on="0"/>
        <pt x="319" y="601" on="1"/>
        <pt x="322" y="597" on="0"/>
        <pt x="489" y="34" on="0"/>
        <pt x="489" y="19" on="1"/>
        <pt x="489" y="9" on="0"/>
        <pt x="473" y="1" on="1"/>
        <pt x="471" y="0" on="0"/>
        <pt x="53" y="0" on="0"/>
        <pt x="51" y="1" on="1"/>
        <pt x="35" y="9" on="0"/>
        <pt x="35" y="19" on="1"/>
        <pt x="35" y="34" on="0"/>
        <pt x="202" y="597" on="0"/>
        <pt x="205" y="601" on="1"/>
        <pt x="214" y="616" on="0"/>
      </contour>
      <contour>
        <pt x="267" y="501" on="1"/>
        <pt x="266" y="504" on="0"/>
        <pt x="264" y="517" on="0"/>
        <pt x="262" y="526" on="0"/>
        <pt x="261" y="526" on="1"/>
        <pt x="261" y="523" on="1"/>
        <pt x="261" y="508" on="0"/>
        <pt x="211" y="332" on="1"/>
        <pt x="142" y="91" on="0"/>
        <pt x="138" y="82" on="1"/>
        <pt x="386" y="82" on="1"/>
        <pt x="385" y="84" on="0"/>
        <pt x="345" y="224" on="1"/>
        <pt x="281" y="439" on="0"/>
      </contour>
    </TTGlyph>
    <TTGlyph name="E" xMin="19" yMin="1" xMax="502" yMax="611">
      <contour>
        <pt x="19" y="573" on="1"/>
        <pt x="19" y="603" on="0"/>
        <pt x="41" y="610" on="1"/>
        <pt x="47" y="610" on="1"/>
        <pt x="53" y="610" on="0"/>
        <pt x="74" y="610" on="0"/>
        <pt x="102" y="610" on="0"/>
        <pt x="140" y="611" on="0"/>
        <pt x="180" y="611" on="0"/>
        <pt x="228" y="611" on="0"/>
        <pt x="251" y="611" on="1"/>
        <pt x="458" y="611" on="1"/>
        <pt x="475" y="598" on="0"/>
        <pt x="478" y="591" on="1"/>
        <pt x="480" y="586" on="0"/>
        <pt x="480" y="466" on="0"/>
        <pt x="478" y="461" on="1"/>
        <pt x="473" y="449" on="0"/>
        <pt x="462" y="444" on="1"/>
        <pt x="458" y="442" on="0"/>
        <pt x="438" y="442" on="1"/>
        <pt x="413" y="442" on="0"/>
        <pt x="405" y="450" on="1"/>
        <pt x="398" y="457" on="0"/>
        <pt x="396" y="470" on="0"/>
        <pt x="396" y="501" on="1"/>
        <pt x="396" y="535" on="1"/>
        <pt x="173" y="535" on="1"/>
        <pt x="173" y="355" on="1"/>
        <pt x="290" y="355" on="1"/>
        <pt x="290" y="371" on="1"/>
        <pt x="290" y="394" on="0"/>
        <pt x="308" y="412" on="0"/>
        <pt x="332" y="412" on="1"/>
        <pt x="350" y="412" on="0"/>
        <pt x="356" y="409" on="1"/>
        <pt x="367" y="404" on="0"/>
        <pt x="372" y="392" on="1"/>
        <pt x="374" y="387" on="0"/>
        <pt x="374" y="247" on="0"/>
        <pt x="372" y="242" on="1"/>
        <pt x="367" y="230" on="0"/>
        <pt x="356" y="225" on="1"/>
        <pt x="352" y="223" on="0"/>
        <pt x="332" y="223" on="1"/>
        <pt x="307" y="223" on="0"/>
        <pt x="299" y="231" on="1"/>
        <pt x="290" y="240" on="0"/>
        <pt x="290" y="263" on="1"/>
        <pt x="290" y="279" on="1"/>
        <pt x="173" y="279" on="1"/>
        <pt x="173" y="76" on="1"/>
        <pt x="418" y="76" on="1"/>
        <pt x="418" y="118" on="1"/>
        <pt x="418" y="161" on="0"/>
        <pt x="420" y="166" on="1"/>
        <pt x="425" y="178" on="0"/>
        <pt x="436" y="183" on="1"/>
        <pt x="442" y="186" on="0"/>
        <pt x="478" y="186" on="0"/>
        <pt x="484" y="183" on="1"/>
        <pt x="495" y="178" on="0"/>
        <pt x="500" y="166" on="1"/>
        <pt x="502" y="161" on="0"/>
        <pt x="502" y="25" on="0"/>
        <pt x="500" y="20" on="1"/>
        <pt x="494" y="7" on="0"/>
        <pt x="480" y="1" on="1"/>
        <pt x="41" y="1" on="1"/>
        <pt x="19" y="9" on="0"/>
        <pt x="19" y="38" on="1"/>
        <pt x="19" y="54" on="0"/>
        <pt x="25" y="67" on="0"/>
        <pt x="36" y="73" on="1"/>
        <pt x="42" y="76" on="0"/>
        <pt x="65" y="76" on="1"/>
        <pt x="89" y="76" on="1"/>
        <pt x="89" y="535" on="1"/>
        <pt x="65" y="535" on="1"/>
        <pt x="42" y="535" on="0"/>
        <pt x="36" y="538" on="1"/>
        <pt x="19" y="548" on="0"/>
      </contour>
    </TTGlyph>
    <TTGlyph name="F" xMin="22" yMin="1" xMax="490" yMax="611">
      <contour>
        <pt x="22" y="573" on="1"/>
        <pt x="22" y="603" on="0"/>
        <pt x="44" y="610" on="1"/>
        <pt x="50" y="610" on="1"/>
        <pt x="56" y="610" on="0"/>
        <pt x="77" y="610" on="0"/>
        <pt x="106" y="610" on="0"/>
        <pt x="144" y="611" on="0"/>
        <pt x="184" y="611" on="0"/>
        <pt x="233" y="611" on="0"/>
        <pt x="257" y="611" on="1"/>
        <pt x="468" y="611" on="1"/>
        <pt x="485" y="598" on="0"/>
        <pt x="488" y="591" on="1"/>
        <pt x="490" y="586" on="0"/>
        <pt x="490" y="466" on="0"/>
        <pt x="488" y="461" on="1"/>
        <pt x="483" y="449" on="0"/>
        <pt x="472" y="444" on="1"/>
        <pt x="468" y="442" on="0"/>
        <pt x="448" y="442" on="1"/>
        <pt x="423" y="442" on="0"/>
        <pt x="415" y="450" on="1"/>
        <pt x="408" y="457" on="0"/>
        <pt x="406" y="470" on="0"/>
        <pt x="406" y="501" on="1"/>
        <pt x="406" y="535" on="1"/>
        <pt x="179" y="535" on="1"/>
        <pt x="179" y="344" on="1"/>
        <pt x="300" y="344" on="1"/>
        <pt x="300" y="360" on="1"/>
        <pt x="300" y="383" on="0"/>
        <pt x="318" y="401" on="0"/>
        <pt x="342" y="401" on="1"/>
        <pt x="360" y="401" on="0"/>
        <pt x="366" y="398" on="1"/>
        <pt x="377" y="393" on="0"/>
        <pt x="382" y="381" on="1"/>
        <pt x="384" y="376" on="0"/>
        <pt x="384" y="236" on="0"/>
        <pt x="382" y="231" on="1"/>
        <pt x="377" y="219" on="0"/>
        <pt x="366" y="214" on="1"/>
        <pt x="362" y="212" on="0"/>
        <pt x="342" y="212" on="1"/>
        <pt x="317" y="212" on="0"/>
        <pt x="309" y="220" on="1"/>
        <pt x="300" y="229" on="0"/>
        <pt x="300" y="252" on="1"/>
        <pt x="300" y="268" on="1"/>
        <pt x="179" y="268" on="1"/>
        <pt x="179" y="76" on="1"/>
        <pt x="249" y="76" on="1"/>
        <pt x="259" y="70" on="0"/>
        <pt x="265" y="66" on="0"/>
        <pt x="271" y="51" on="0"/>
        <pt x="271" y="38" on="1"/>
        <pt x="271" y="20" on="0"/>
        <pt x="262" y="6" on="0"/>
        <pt x="249" y="1" on="1"/>
        <pt x="44" y="1" on="1"/>
        <pt x="22" y="9" on="0"/>
        <pt x="22" y="38" on="1"/>
        <pt x="22" y="54" on="0"/>
        <pt x="28" y="67" on="0"/>
        <pt x="39" y="73" on="1"/>
        <pt x="45" y="76" on="0"/>
        <pt x="69" y="76" on="1"/>
        <pt x="95" y="76" on="1"/>
        <pt x="95" y="535" on="1"/>
        <pt x="69" y="535" on="1"/>
        <pt x="45" y="535" on="0"/>
        <pt x="39" y="538" on="1"/>
        <pt x="22" y="548" on="0"/>
      </contour>
    </TTGlyph>
    <TTGlyph name="G" xMin="38" yMin="-11" xMax="496" yMax="622">
      <contour>
        <pt x="364" y="28" on="1"/>
        <pt x="325" y="-11" on="0"/>
        <pt x="260" y="-11" on="1"/>
        <pt x="190" y="-11" on="0"/>
        <pt x="73" y="104" on="0"/>
        <pt x="50" y="197" on="1"/>
        <pt x="38" y="248" on="0"/>
        <pt x="38" y="306" on="1"/>
        <pt x="38" y="363" on="0"/>
        <pt x="50" y="414" on="1"/>
        <pt x="72" y="499" on="0"/>
        <pt x="173" y="611" on="0"/>
        <pt x="237" y="620" on="1"/>
        <pt x="253" y="622" on="0"/>
        <pt x="261" y="622" on="1"/>
        <pt x="318" y="622" on="0"/>
        <pt x="365" y="585" on="1"/>
        <pt x="371" y="581" on="1"/>
        <pt x="372" y="581" on="0"/>
        <pt x="380" y="596" on="1"/>
        <pt x="390" y="612" on="0"/>
        <pt x="403" y="622" on="0"/>
        <pt x="417" y="622" on="1"/>
        <pt x="439" y="622" on="0"/>
        <pt x="447" y="603" on="1"/>
        <pt x="449" y="598" on="0"/>
        <pt x="449" y="508" on="1"/>
        <pt x="449" y="417" on="0"/>
        <pt x="447" y="412" on="1"/>
        <pt x="443" y="400" on="0"/>
        <pt x="427" y="393" on="0"/>
        <pt x="407" y="393" on="1"/>
        <pt x="382" y="393" on="0"/>
        <pt x="374" y="401" on="1"/>
        <pt x="366" y="408" on="0"/>
        <pt x="364" y="426" on="1"/>
        <pt x="361" y="459" on="0"/>
        <pt x="347" y="489" on="1"/>
        <pt x="320" y="546" on="0"/>
        <pt x="271" y="546" on="1"/>
        <pt x="263" y="546" on="0"/>
        <pt x="258" y="545" on="1"/>
        <pt x="198" y="534" on="0"/>
        <pt x="121" y="393" on="0"/>
        <pt x="121" y="308" on="1"/>
        <pt x="121" y="229" on="0"/>
        <pt x="180" y="100" on="0"/>
        <pt x="229" y="75" on="1"/>
        <pt x="249" y="65" on="0"/>
        <pt x="271" y="65" on="1"/>
        <pt x="314" y="65" on="0"/>
        <pt x="340" y="116" on="1"/>
        <pt x="362" y="162" on="0"/>
        <pt x="362" y="195" on="1"/>
        <pt x="362" y="196" on="0"/>
        <pt x="333" y="196" on="1"/>
        <pt x="304" y="197" on="1"/>
        <pt x="291" y="202" on="0"/>
        <pt x="282" y="215" on="0"/>
        <pt x="282" y="253" on="0"/>
        <pt x="290" y="265" on="0"/>
        <pt x="304" y="272" on="1"/>
        <pt x="474" y="272" on="1"/>
        <pt x="496" y="259" on="0"/>
        <pt x="496" y="234" on="1"/>
        <pt x="496" y="214" on="0"/>
        <pt x="480" y="198" on="0"/>
        <pt x="461" y="196" on="1"/>
        <pt x="449" y="196" on="1"/>
        <pt x="449" y="21" on="1"/>
        <pt x="442" y="7" on="0"/>
        <pt x="428" y="-1" on="0"/>
        <pt x="407" y="-1" on="1"/>
        <pt x="384" y="-1" on="0"/>
        <pt x="371" y="10" on="0"/>
      </contour>
    </TTGlyph>
    <TTGlyph name="Gamma" xMin="25" yMin="0" xMax="488" yMax="611">
      <contour>
        <pt x="44" y="609" on="1"/>
        <pt x="49" y="611" on="0"/>
        <pt x="258" y="611" on="1"/>
        <pt x="466" y="611" on="1"/>
        <pt x="483" y="598" on="0"/>
        <pt x="486" y="591" on="1"/>
        <pt x="488" y="586" on="0"/>
        <pt x="488" y="466" on="0"/>
        <pt x="486" y="461" on="1"/>
        <pt x="481" y="449" on="0"/>
        <pt x="470" y="444" on="1"/>
        <pt x="466" y="442" on="0"/>
        <pt x="446" y="442" on="1"/>
        <pt x="421" y="442" on="0"/>
        <pt x="413" y="450" on="1"/>
        <pt x="406" y="457" on="0"/>
        <pt x="404" y="470" on="0"/>
        <pt x="404" y="501" on="1"/>
        <pt x="404" y="535" on="1"/>
        <pt x="185" y="535" on="1"/>
        <pt x="185" y="76" on="1"/>
        <pt x="222" y="76" on="1"/>
        <pt x="257" y="76" on="0"/>
        <pt x="263" y="73" on="1"/>
        <pt x="281" y="65" on="0"/>
        <pt x="281" y="11" on="0"/>
        <pt x="263" y="3" on="1"/>
        <pt x="257" y="0" on="0"/>
        <pt x="155" y="0" on="1"/>
        <pt x="69" y="0" on="0"/>
        <pt x="42" y="2" on="0"/>
        <pt x="35" y="7" on="1"/>
        <pt x="28" y="14" on="0"/>
        <pt x="25" y="22" on="0"/>
        <pt x="25" y="54" on="0"/>
        <pt x="28" y="62" on="0"/>
        <pt x="35" y="69" on="1"/>
        <pt x="44" y="76" on="0"/>
        <pt x="76" y="76" on="1"/>
        <pt x="101" y="76" on="1"/>
        <pt x="101" y="535" on="1"/>
        <pt x="76" y="535" on="1"/>
        <pt x="44" y="535" on="0"/>
        <pt x="35" y="542" on="1"/>
        <pt x="28" y="549" on="0"/>
        <pt x="25" y="557" on="0"/>
        <pt x="25" y="589" on="0"/>
        <pt x="27" y="594" on="1"/>
        <pt x="34" y="606" on="0"/>
      </contour>
    </TTGlyph>
    <TTGlyph name="H" xMin="16" yMin="1" xMax="508" yMax="611">
      <contour>
        <pt x="39" y="1" on="1"/>
        <pt x="26" y="6" on="0"/>
        <pt x="17" y="19" on="0"/>
        <pt x="17" y="38" on="1"/>
        <pt x="17" y="55" on="0"/>
        <pt x="19" y="59" on="1"/>
        <pt x="24" y="68" on="0"/>
        <pt x="33" y="73" on="1"/>
        <pt x="40" y="76" on="0"/>
        <pt x="60" y="76" on="1"/>
        <pt x="81" y="76" on="1"/>
        <pt x="81" y="535" on="1"/>
        <pt x="60" y="535" on="1"/>
        <pt x="40" y="535" on="0"/>
        <pt x="33" y="538" on="1"/>
        <pt x="16" y="546" on="0"/>
        <pt x="16" y="571" on="1"/>
        <pt x="16" y="602" on="0"/>
        <pt x="36" y="609" on="1"/>
        <pt x="41" y="611" on="0"/>
        <pt x="125" y="611" on="1"/>
        <pt x="208" y="611" on="1"/>
        <pt x="218" y="605" on="0"/>
        <pt x="224" y="601" on="0"/>
        <pt x="230" y="586" on="0"/>
        <pt x="230" y="573" on="1"/>
        <pt x="230" y="558" on="0"/>
        <pt x="227" y="552" on="1"/>
        <pt x="222" y="543" on="0"/>
        <pt x="213" y="538" on="1"/>
        <pt x="206" y="535" on="0"/>
        <pt x="186" y="535" on="1"/>
        <pt x="165" y="535" on="1"/>
        <pt x="165" y="356" on="1"/>
        <pt x="359" y="356" on="1"/>
        <pt x="359" y="535" on="1"/>
        <pt x="338" y="535" on="1"/>
        <pt x="318" y="535" on="0"/>
        <pt x="311" y="538" on="1"/>
        <pt x="302" y="543" on="0"/>
        <pt x="297" y="552" on="1"/>
        <pt x="295" y="556" on="0"/>
        <pt x="295" y="573" on="1"/>
        <pt x="295" y="592" on="0"/>
        <pt x="304" y="604" on="0"/>
        <pt x="317" y="611" on="1"/>
        <pt x="486" y="611" on="1"/>
        <pt x="496" y="605" on="0"/>
        <pt x="502" y="601" on="0"/>
        <pt x="508" y="586" on="0"/>
        <pt x="508" y="573" on="1"/>
        <pt x="508" y="558" on="0"/>
        <pt x="505" y="552" on="1"/>
        <pt x="500" y="543" on="0"/>
        <pt x="491" y="538" on="1"/>
        <pt x="484" y="535" on="0"/>
        <pt x="464" y="535" on="1"/>
        <pt x="443" y="535" on="1"/>
        <pt x="443" y="76" on="1"/>
        <pt x="464" y="76" on="1"/>
        <pt x="484" y="76" on="0"/>
        <pt x="491" y="73" on="1"/>
        <pt x="500" y="68" on="0"/>
        <pt x="505" y="59" on="1"/>
        <pt x="508" y="53" on="0"/>
        <pt x="508" y="38" on="1"/>
        <pt x="508" y="20" on="0"/>
        <pt x="499" y="6" on="0"/>
        <pt x="486" y="1" on="1"/>
        <pt x="317" y="1" on="1"/>
        <pt x="304" y="6" on="0"/>
        <pt x="295" y="19" on="0"/>
        <pt x="295" y="38" on="1"/>
        <pt x="295" y="55" on="0"/>
        <pt x="297" y="59" on="1"/>
        <pt x="302" y="68" on="0"/>
        <pt x="311" y="73" on="1"/>
        <pt x="318" y="76" on="0"/>
        <pt x="338" y="76" on="1"/>
        <pt x="359" y="76" on="1"/>
        <pt x="359" y="280" on="1"/>
        <pt x="165" y="280" on="1"/>
        <pt x="165" y="76" on="1"/>
        <pt x="186" y="76" on="1"/>
        <pt x="206" y="76" on="0"/>
        <pt x="213" y="73" on="1"/>
        <pt x="222" y="68" on="0"/>
        <pt x="227" y="59" on="1"/>
        <pt x="230" y="53" on="0"/>
        <pt x="230" y="38" on="1"/>
        <pt x="230" y="20" on="0"/>
        <pt x="221" y="6" on="0"/>
        <pt x="208" y="1" on="1"/>
      </contour>
    </TTGlyph>
    <TTGlyph name="I" xMin="72" yMin="1" xMax="452" yMax="611">
      <contour>
        <pt x="95" y="1" on="1"/>
        <pt x="82" y="7" on="0"/>
        <pt x="72" y="21" on="0"/>
        <pt x="72" y="38" on="1"/>
        <pt x="72" y="65" on="0"/>
        <pt x="90" y="73" on="1"/>
        <pt x="96" y="76" on="0"/>
        <pt x="157" y="76" on="1"/>
        <pt x="220" y="76" on="1"/>
        <pt x="220" y="535" on="1"/>
        <pt x="157" y="535" on="1"/>
        <pt x="96" y="535" on="0"/>
        <pt x="90" y="538" on="1"/>
        <pt x="72" y="546" on="0"/>
        <pt x="72" y="573" on="1"/>
        <pt x="72" y="603" on="0"/>
        <pt x="93" y="610" on="1"/>
        <pt x="97" y="611" on="0"/>
        <pt x="264" y="611" on="1"/>
        <pt x="430" y="611" on="1"/>
        <pt x="432" y="609" on="0"/>
        <pt x="441" y="603" on="0"/>
        <pt x="444" y="601" on="0"/>
        <pt x="449" y="595" on="0"/>
        <pt x="450" y="589" on="0"/>
        <pt x="452" y="579" on="0"/>
        <pt x="452" y="573" on="1"/>
        <pt x="452" y="546" on="0"/>
        <pt x="434" y="538" on="1"/>
        <pt x="428" y="535" on="0"/>
        <pt x="367" y="535" on="1"/>
        <pt x="304" y="535" on="1"/>
        <pt x="304" y="76" on="1"/>
        <pt x="367" y="76" on="1"/>
        <pt x="428" y="76" on="0"/>
        <pt x="434" y="73" on="1"/>
        <pt x="452" y="65" on="0"/>
        <pt x="452" y="38" on="1"/>
        <pt x="452" y="20" on="0"/>
        <pt x="443" y="8" on="0"/>
        <pt x="430" y="1" on="1"/>
      </contour>
    </TTGlyph>
    <TTGlyph name="J" xMin="57" yMin="-11" xMax="479" yMax="611">
      <contour>
        <pt x="202" y="543" on="0"/>
        <pt x="202" y="603" on="0"/>
        <pt x="224" y="610" on="1"/>
        <pt x="228" y="610" on="1"/>
        <pt x="231" y="610" on="0"/>
        <pt x="243" y="610" on="0"/>
        <pt x="259" y="610" on="0"/>
        <pt x="280" y="611" on="0"/>
        <pt x="302" y="611" on="0"/>
        <pt x="329" y="611" on="0"/>
        <pt x="342" y="611" on="1"/>
        <pt x="457" y="611" on="1"/>
        <pt x="466" y="605" on="0"/>
        <pt x="473" y="599" on="0"/>
        <pt x="479" y="584" on="0"/>
        <pt x="479" y="573" on="1"/>
        <pt x="479" y="549" on="0"/>
        <pt x="462" y="538" on="1"/>
        <pt x="454" y="535" on="0"/>
        <pt x="432" y="535" on="1"/>
        <pt x="408" y="535" on="1"/>
        <pt x="408" y="328" on="1"/>
        <pt x="408" y="159" on="0"/>
        <pt x="407" y="106" on="0"/>
        <pt x="402" y="93" on="1"/>
        <pt x="385" y="47" on="0"/>
        <pt x="291" y="-11" on="0"/>
        <pt x="229" y="-11" on="1"/>
        <pt x="159" y="-11" on="0"/>
        <pt x="70" y="36" on="0"/>
        <pt x="59" y="78" on="1"/>
        <pt x="57" y="84" on="0"/>
        <pt x="57" y="100" on="1"/>
        <pt x="57" y="125" on="0"/>
        <pt x="85" y="154" on="0"/>
        <pt x="108" y="154" on="1"/>
        <pt x="129" y="154" on="0"/>
        <pt x="159" y="125" on="0"/>
        <pt x="159" y="102" on="1"/>
        <pt x="159" y="93" on="0"/>
        <pt x="155" y="79" on="1"/>
        <pt x="188" y="65" on="0"/>
        <pt x="228" y="65" on="1"/>
        <pt x="290" y="65" on="0"/>
        <pt x="318" y="106" on="1"/>
        <pt x="323" y="115" on="0"/>
        <pt x="324" y="163" on="0"/>
        <pt x="324" y="329" on="1"/>
        <pt x="324" y="535" on="1"/>
        <pt x="274" y="535" on="1"/>
        <pt x="224" y="536" on="1"/>
      </contour>
    </TTGlyph>
    <TTGlyph name="K" xMin="18" yMin="1" xMax="495" yMax="611">
      <contour>
        <pt x="41" y="1" on="1"/>
        <pt x="18" y="8" on="0"/>
        <pt x="18" y="38" on="1"/>
        <pt x="18" y="62" on="0"/>
        <pt x="35" y="73" on="1"/>
        <pt x="42" y="76" on="0"/>
        <pt x="61" y="76" on="1"/>
        <pt x="81" y="76" on="1"/>
        <pt x="81" y="535" on="1"/>
        <pt x="61" y="535" on="1"/>
        <pt x="42" y="535" on="0"/>
        <pt x="35" y="538" on="1"/>
        <pt x="18" y="549" on="0"/>
        <pt x="18" y="573" on="1"/>
        <pt x="18" y="602" on="0"/>
        <pt x="41" y="610" on="1"/>
        <pt x="42" y="611" on="0"/>
        <pt x="118" y="611" on="1"/>
        <pt x="193" y="611" on="1"/>
        <pt x="214" y="599" on="0"/>
        <pt x="214" y="573" on="1"/>
        <pt x="214" y="549" on="0"/>
        <pt x="198" y="538" on="1"/>
        <pt x="191" y="535" on="0"/>
        <pt x="172" y="535" on="1"/>
        <pt x="152" y="535" on="1"/>
        <pt x="152" y="421" on="1"/>
        <pt x="152" y="344" on="0"/>
        <pt x="152" y="308" on="0"/>
        <pt x="153" y="309" on="1"/>
        <pt x="242" y="422" on="1"/>
        <pt x="329" y="534" on="1"/>
        <pt x="312" y="539" on="0"/>
        <pt x="298" y="553" on="0"/>
        <pt x="298" y="573" on="1"/>
        <pt x="298" y="600" on="0"/>
        <pt x="316" y="608" on="1"/>
        <pt x="322" y="611" on="0"/>
        <pt x="392" y="611" on="1"/>
        <pt x="463" y="611" on="1"/>
        <pt x="472" y="605" on="0"/>
        <pt x="479" y="599" on="0"/>
        <pt x="485" y="584" on="0"/>
        <pt x="485" y="573" on="1"/>
        <pt x="485" y="549" on="0"/>
        <pt x="468" y="538" on="1"/>
        <pt x="461" y="535" on="0"/>
        <pt x="441" y="535" on="1"/>
        <pt x="420" y="535" on="1"/>
        <pt x="351" y="446" on="1"/>
        <pt x="281" y="357" on="1"/>
        <pt x="316" y="294" on="0"/>
        <pt x="358" y="217" on="1"/>
        <pt x="436" y="77" on="1"/>
        <pt x="454" y="76" on="1"/>
        <pt x="473" y="75" on="0"/>
        <pt x="478" y="73" on="1"/>
        <pt x="495" y="62" on="0"/>
        <pt x="495" y="38" on="1"/>
        <pt x="495" y="10" on="0"/>
        <pt x="473" y="1" on="1"/>
        <pt x="345" y="1" on="1"/>
        <pt x="332" y="6" on="0"/>
        <pt x="323" y="19" on="0"/>
        <pt x="323" y="38" on="1"/>
        <pt x="323" y="59" on="0"/>
        <pt x="336" y="74" on="0"/>
        <pt x="355" y="77" on="1"/>
        <pt x="321" y="137" on="1"/>
        <pt x="315" y="148" on="0"/>
        <pt x="289" y="197" on="0"/>
        <pt x="268" y="235" on="0"/>
        <pt x="261" y="247" on="1"/>
        <pt x="233" y="296" on="1"/>
        <pt x="179" y="226" on="0"/>
        <pt x="152" y="192" on="1"/>
        <pt x="152" y="76" on="1"/>
        <pt x="172" y="76" on="1"/>
        <pt x="191" y="76" on="0"/>
        <pt x="198" y="73" on="1"/>
        <pt x="214" y="62" on="0"/>
        <pt x="214" y="38" on="1"/>
        <pt x="214" y="9" on="0"/>
        <pt x="193" y="1" on="1"/>
      </contour>
    </TTGlyph>
    <TTGlyph name="L" xMin="25" yMin="0" xMax="488" yMax="611">
      <contour>
        <pt x="44" y="609" on="1"/>
        <pt x="49" y="611" on="0"/>
        <pt x="154" y="611" on="1"/>
        <pt x="257" y="611" on="0"/>
        <pt x="263" y="608" on="1"/>
        <pt x="281" y="600" on="0"/>
        <pt x="281" y="546" on="0"/>
        <pt x="263" y="538" on="1"/>
        <pt x="257" y="535" on="0"/>
        <pt x="222" y="535" on="1"/>
        <pt x="185" y="535" on="1"/>
        <pt x="185" y="76" on="1"/>
        <pt x="404" y="76" on="1"/>
        <pt x="404" y="118" on="1"/>
        <pt x="404" y="161" on="0"/>
        <pt x="406" y="167" on="1"/>
        <pt x="411" y="179" on="0"/>
        <pt x="423" y="184" on="1"/>
        <pt x="428" y="186" on="0"/>
        <pt x="464" y="186" on="0"/>
        <pt x="469" y="184" on="1"/>
        <pt x="481" y="179" on="0"/>
        <pt x="486" y="167" on="1"/>
        <pt x="488" y="161" on="0"/>
        <pt x="488" y="25" on="0"/>
        <pt x="486" y="20" on="1"/>
        <pt x="480" y="7" on="0"/>
        <pt x="466" y="1" on="1"/>
        <pt x="258" y="0" on="1"/>
        <pt x="147" y="0" on="1"/>
        <pt x="89" y="0" on="0"/>
        <pt x="46" y="1" on="0"/>
        <pt x="40" y="3" on="0"/>
        <pt x="35" y="7" on="1"/>
        <pt x="28" y="14" on="0"/>
        <pt x="25" y="22" on="0"/>
        <pt x="25" y="54" on="0"/>
        <pt x="28" y="62" on="0"/>
        <pt x="35" y="69" on="1"/>
        <pt x="44" y="76" on="0"/>
        <pt x="76" y="76" on="1"/>
        <pt x="101" y="76" on="1"/>
        <pt x="101" y="535" on="1"/>
        <pt x="76" y="535" on="1"/>
        <pt x="44" y="535" on="0"/>
        <pt x="35" y="542" on="1"/>
        <pt x="28" y="549" on="0"/>
        <pt x="25" y="557" on="0"/>
        <pt x="25" y="589" on="0"/>
        <pt x="27" y="594" on="1"/>
        <pt x="34" y="606" on="0"/>
      </contour>
    </TTGlyph>
    <TTGlyph name="Lambda" xMin="30" yMin="1" xMax="495" yMax="623">
      <contour>
        <pt x="52" y="1" on="1"/>
        <pt x="30" y="9" on="0"/>
        <pt x="30" y="38" on="1"/>
        <pt x="30" y="54" on="0"/>
        <pt x="36" y="67" on="0"/>
        <pt x="47" y="73" on="1"/>
        <pt x="53" y="76" on="0"/>
        <pt x="70" y="76" on="1"/>
        <pt x="88" y="76" on="0"/>
        <pt x="88" y="78" on="1"/>
        <pt x="89" y="79" on="0"/>
        <pt x="145" y="336" on="0"/>
        <pt x="202" y="597" on="0"/>
        <pt x="205" y="602" on="1"/>
        <pt x="213" y="617" on="0"/>
        <pt x="231" y="622" on="1"/>
        <pt x="236" y="622" on="1"/>
        <pt x="241" y="622" on="0"/>
        <pt x="257" y="623" on="0"/>
        <pt x="264" y="623" on="1"/>
        <pt x="294" y="623" on="1"/>
        <pt x="315" y="609" on="0"/>
        <pt x="319" y="602" on="1"/>
        <pt x="321" y="598" on="0"/>
        <pt x="379" y="337" on="0"/>
        <pt x="435" y="79" on="0"/>
        <pt x="435" y="78" on="1"/>
        <pt x="436" y="76" on="0"/>
        <pt x="454" y="76" on="1"/>
        <pt x="470" y="76" on="0"/>
        <pt x="478" y="73" on="1"/>
        <pt x="495" y="62" on="0"/>
        <pt x="495" y="38" on="1"/>
        <pt x="495" y="10" on="0"/>
        <pt x="473" y="1" on="1"/>
        <pt x="313" y="1" on="1"/>
        <pt x="290" y="10" on="0"/>
        <pt x="290" y="38" on="1"/>
        <pt x="290" y="57" on="0"/>
        <pt x="299" y="67" on="1"/>
        <pt x="306" y="75" on="0"/>
        <pt x="331" y="76" on="1"/>
        <pt x="350" y="76" on="0"/>
        <pt x="350" y="78" on="1"/>
        <pt x="350" y="79" on="0"/>
        <pt x="338" y="131" on="0"/>
        <pt x="320" y="213" on="0"/>
        <pt x="316" y="230" on="1"/>
        <pt x="263" y="481" on="0"/>
        <pt x="263" y="520" on="1"/>
        <pt x="263" y="526" on="0"/>
        <pt x="262" y="527" on="1"/>
        <pt x="261" y="527" on="0"/>
        <pt x="261" y="521" on="1"/>
        <pt x="261" y="484" on="0"/>
        <pt x="208" y="230" on="1"/>
        <pt x="204" y="213" on="0"/>
        <pt x="186" y="131" on="0"/>
        <pt x="174" y="79" on="0"/>
        <pt x="174" y="78" on="1"/>
        <pt x="174" y="76" on="0"/>
        <pt x="193" y="76" on="1"/>
        <pt x="218" y="75" on="0"/>
        <pt x="225" y="67" on="1"/>
        <pt x="234" y="57" on="0"/>
        <pt x="234" y="38" on="1"/>
        <pt x="234" y="11" on="0"/>
        <pt x="212" y="1" on="1"/>
      </contour>
    </TTGlyph>
    <TTGlyph name="M" xMin="12" yMin="1" xMax="512" yMax="611">
      <contour>
        <pt x="50" y="535" on="1"/>
        <pt x="28" y="537" on="0"/>
        <pt x="12" y="552" on="0"/>
        <pt x="12" y="573" on="1"/>
        <pt x="12" y="602" on="0"/>
        <pt x="32" y="609" on="1"/>
        <pt x="37" y="611" on="0"/>
        <pt x="91" y="611" on="1"/>
        <pt x="152" y="611" on="0"/>
        <pt x="172" y="599" on="0"/>
        <pt x="178" y="587" on="1"/>
        <pt x="182" y="580" on="0"/>
        <pt x="220" y="453" on="1"/>
        <pt x="261" y="313" on="0"/>
        <pt x="261" y="293" on="1"/>
        <pt x="261" y="289" on="0"/>
        <pt x="262" y="288" on="1"/>
        <pt x="263" y="288" on="0"/>
        <pt x="263" y="292" on="1"/>
        <pt x="263" y="319" on="0"/>
        <pt x="319" y="504" on="1"/>
        <pt x="341" y="575" on="0"/>
        <pt x="346" y="588" on="1"/>
        <pt x="351" y="598" on="0"/>
        <pt x="362" y="605" on="1"/>
        <pt x="373" y="611" on="0"/>
        <pt x="435" y="611" on="1"/>
        <pt x="488" y="611" on="0"/>
        <pt x="494" y="608" on="1"/>
        <pt x="512" y="600" on="0"/>
        <pt x="512" y="573" on="1"/>
        <pt x="512" y="552" on="0"/>
        <pt x="496" y="537" on="0"/>
        <pt x="474" y="535" on="1"/>
        <pt x="459" y="535" on="1"/>
        <pt x="459" y="76" on="1"/>
        <pt x="474" y="76" on="1"/>
        <pt x="496" y="74" on="0"/>
        <pt x="512" y="59" on="0"/>
        <pt x="512" y="38" on="1"/>
        <pt x="512" y="11" on="0"/>
        <pt x="494" y="3" on="1"/>
        <pt x="490" y="1" on="0"/>
        <pt x="424" y="1" on="1"/>
        <pt x="357" y="1" on="0"/>
        <pt x="353" y="3" on="1"/>
        <pt x="335" y="11" on="0"/>
        <pt x="335" y="38" on="1"/>
        <pt x="335" y="59" on="0"/>
        <pt x="351" y="74" on="0"/>
        <pt x="373" y="76" on="1"/>
        <pt x="388" y="76" on="1"/>
        <pt x="388" y="302" on="1"/>
        <pt x="388" y="512" on="0"/>
        <pt x="387" y="519" on="1"/>
        <pt x="380" y="477" on="0"/>
        <pt x="347" y="366" on="1"/>
        <pt x="310" y="237" on="0"/>
        <pt x="304" y="228" on="1"/>
        <pt x="292" y="204" on="0"/>
        <pt x="232" y="204" on="0"/>
        <pt x="220" y="228" on="1"/>
        <pt x="214" y="237" on="0"/>
        <pt x="177" y="366" on="1"/>
        <pt x="144" y="477" on="0"/>
        <pt x="137" y="519" on="1"/>
        <pt x="136" y="512" on="0"/>
        <pt x="136" y="302" on="1"/>
        <pt x="136" y="76" on="1"/>
        <pt x="151" y="76" on="1"/>
        <pt x="173" y="74" on="0"/>
        <pt x="189" y="59" on="0"/>
        <pt x="189" y="38" on="1"/>
        <pt x="189" y="11" on="0"/>
        <pt x="171" y="3" on="1"/>
        <pt x="167" y="1" on="0"/>
        <pt x="101" y="1" on="1"/>
        <pt x="34" y="1" on="0"/>
        <pt x="30" y="3" on="1"/>
        <pt x="12" y="11" on="0"/>
        <pt x="12" y="38" on="1"/>
        <pt x="12" y="59" on="0"/>
        <pt x="28" y="74" on="0"/>
        <pt x="50" y="76" on="1"/>
        <pt x="65" y="76" on="1"/>
        <pt x="65" y="535" on="1"/>
      </contour>
    </TTGlyph>
    <TTGlyph name="N" xMin="20" yMin="0" xMax="504" yMax="611">
      <contour>
        <pt x="43" y="1" on="1"/>
        <pt x="30" y="6" on="0"/>
        <pt x="21" y="19" on="0"/>
        <pt x="21" y="38" on="1"/>
        <pt x="21" y="55" on="0"/>
        <pt x="23" y="59" on="1"/>
        <pt x="28" y="68" on="0"/>
        <pt x="37" y="73" on="1"/>
        <pt x="44" y="76" on="0"/>
        <pt x="64" y="76" on="1"/>
        <pt x="85" y="76" on="1"/>
        <pt x="85" y="535" on="1"/>
        <pt x="64" y="535" on="1"/>
        <pt x="44" y="535" on="0"/>
        <pt x="37" y="538" on="1"/>
        <pt x="20" y="546" on="0"/>
        <pt x="20" y="571" on="1"/>
        <pt x="20" y="602" on="0"/>
        <pt x="40" y="609" on="1"/>
        <pt x="45" y="611" on="0"/>
        <pt x="165" y="611" on="0"/>
        <pt x="170" y="609" on="1"/>
        <pt x="192" y="605" on="0"/>
        <pt x="202" y="581" on="1"/>
        <pt x="204" y="572" on="0"/>
        <pt x="231" y="497" on="1"/>
        <pt x="354" y="142" on="0"/>
        <pt x="365" y="95" on="1"/>
        <pt x="368" y="84" on="1"/>
        <pt x="368" y="535" on="1"/>
        <pt x="347" y="535" on="1"/>
        <pt x="328" y="535" on="0"/>
        <pt x="320" y="538" on="1"/>
        <pt x="311" y="543" on="0"/>
        <pt x="306" y="552" on="1"/>
        <pt x="304" y="556" on="0"/>
        <pt x="304" y="573" on="1"/>
        <pt x="304" y="592" on="0"/>
        <pt x="312" y="604" on="0"/>
        <pt x="326" y="611" on="1"/>
        <pt x="482" y="611" on="1"/>
        <pt x="492" y="605" on="0"/>
        <pt x="498" y="601" on="0"/>
        <pt x="504" y="586" on="0"/>
        <pt x="504" y="573" on="1"/>
        <pt x="504" y="558" on="0"/>
        <pt x="501" y="552" on="1"/>
        <pt x="496" y="543" on="0"/>
        <pt x="487" y="538" on="1"/>
        <pt x="479" y="535" on="0"/>
        <pt x="460" y="535" on="1"/>
        <pt x="439" y="535" on="1"/>
        <pt x="439" y="25" on="1"/>
        <pt x="431" y="8" on="0"/>
        <pt x="421" y="3" on="1"/>
        <pt x="415" y="0" on="0"/>
        <pt x="389" y="0" on="1"/>
        <pt x="359" y="0" on="0"/>
        <pt x="355" y="1" on="1"/>
        <pt x="331" y="6" on="0"/>
        <pt x="322" y="31" on="1"/>
        <pt x="316" y="50" on="0"/>
        <pt x="293" y="115" on="1"/>
        <pt x="171" y="468" on="0"/>
        <pt x="159" y="517" on="1"/>
        <pt x="156" y="528" on="1"/>
        <pt x="156" y="76" on="1"/>
        <pt x="177" y="76" on="1"/>
        <pt x="196" y="76" on="0"/>
        <pt x="204" y="73" on="1"/>
        <pt x="213" y="68" on="0"/>
        <pt x="218" y="59" on="1"/>
        <pt x="221" y="53" on="0"/>
        <pt x="221" y="38" on="1"/>
        <pt x="221" y="20" on="0"/>
        <pt x="212" y="6" on="0"/>
        <pt x="199" y="1" on="1"/>
      </contour>
    </TTGlyph>
    <TTGlyph name="O" xMin="56" yMin="-10" xMax="468" yMax="621">
      <contour>
        <pt x="102" y="588" on="1"/>
        <pt x="139" y="621" on="0"/>
        <pt x="240" y="621" on="1"/>
        <pt x="323" y="621" on="0"/>
        <pt x="335" y="620" on="1"/>
        <pt x="393" y="613" on="0"/>
        <pt x="422" y="588" on="1"/>
        <pt x="468" y="543" on="0"/>
        <pt x="468" y="306" on="1"/>
        <pt x="468" y="68" on="0"/>
        <pt x="422" y="23" on="1"/>
        <pt x="398" y="2" on="0"/>
        <pt x="327" y="-10" on="0"/>
        <pt x="197" y="-10" on="0"/>
        <pt x="126" y="2" on="0"/>
        <pt x="102" y="23" on="1"/>
        <pt x="56" y="68" on="0"/>
        <pt x="56" y="306" on="1"/>
        <pt x="56" y="543" on="0"/>
      </contour>
      <contour>
        <pt x="363" y="513" on="1"/>
        <pt x="351" y="532" on="0"/>
        <pt x="309" y="544" on="0"/>
        <pt x="268" y="546" on="1"/>
        <pt x="225" y="546" on="0"/>
        <pt x="183" y="537" on="0"/>
        <pt x="167" y="521" on="1"/>
        <pt x="140" y="490" on="0"/>
        <pt x="140" y="317" on="1"/>
        <pt x="140" y="300" on="1"/>
        <pt x="140" y="178" on="0"/>
        <pt x="151" y="133" on="1"/>
        <pt x="158" y="103" on="0"/>
        <pt x="185" y="75" on="0"/>
        <pt x="214" y="69" on="1"/>
        <pt x="238" y="65" on="0"/>
        <pt x="262" y="65" on="1"/>
        <pt x="314" y="65" on="0"/>
        <pt x="364" y="93" on="0"/>
        <pt x="373" y="133" on="1"/>
        <pt x="384" y="178" on="0"/>
        <pt x="384" y="300" on="1"/>
        <pt x="384" y="415" on="0"/>
        <pt x="379" y="448" on="1"/>
        <pt x="374" y="492" on="0"/>
      </contour>
    </TTGlyph>
    <TTGlyph name="Omega" xMin="32" yMin="1" xMax="492" yMax="622">
      <contour>
        <pt x="40" y="404" on="1"/>
        <pt x="40" y="493" on="0"/>
        <pt x="167" y="622" on="0"/>
        <pt x="258" y="622" on="1"/>
        <pt x="283" y="622" on="0"/>
        <pt x="310" y="617" on="1"/>
        <pt x="383" y="602" on="0"/>
        <pt x="484" y="487" on="0"/>
        <pt x="484" y="406" on="1"/>
        <pt x="484" y="382" on="0"/>
        <pt x="480" y="359" on="1"/>
        <pt x="472" y="307" on="0"/>
        <pt x="429" y="209" on="1"/>
        <pt x="402" y="147" on="0"/>
        <pt x="392" y="117" on="1"/>
        <pt x="382" y="84" on="0"/>
        <pt x="382" y="78" on="1"/>
        <pt x="382" y="76" on="0"/>
        <pt x="402" y="76" on="1"/>
        <pt x="421" y="76" on="1"/>
        <pt x="421" y="87" on="1"/>
        <pt x="421" y="123" on="0"/>
        <pt x="457" y="123" on="1"/>
        <pt x="474" y="123" on="0"/>
        <pt x="483" y="114" on="1"/>
        <pt x="490" y="107" on="0"/>
        <pt x="492" y="93" on="0"/>
        <pt x="492" y="61" on="1"/>
        <pt x="492" y="25" on="0"/>
        <pt x="490" y="20" on="1"/>
        <pt x="485" y="8" on="0"/>
        <pt x="474" y="3" on="1"/>
        <pt x="470" y="1" on="0"/>
        <pt x="397" y="1" on="1"/>
        <pt x="324" y="1" on="1"/>
        <pt x="310" y="6" on="0"/>
        <pt x="304" y="18" on="1"/>
        <pt x="302" y="22" on="0"/>
        <pt x="302" y="39" on="1"/>
        <pt x="302" y="70" on="0"/>
        <pt x="318" y="141" on="0"/>
        <pt x="335" y="187" on="0"/>
        <pt x="353" y="231" on="1"/>
        <pt x="381" y="300" on="0"/>
        <pt x="391" y="339" on="1"/>
        <pt x="400" y="375" on="0"/>
        <pt x="400" y="405" on="1"/>
        <pt x="400" y="460" on="0"/>
        <pt x="336" y="535" on="0"/>
        <pt x="287" y="544" on="1"/>
        <pt x="275" y="546" on="0"/>
        <pt x="262" y="546" on="1"/>
        <pt x="209" y="546" on="0"/>
        <pt x="137" y="483" on="0"/>
        <pt x="127" y="435" on="1"/>
        <pt x="124" y="422" on="0"/>
        <pt x="124" y="405" on="1"/>
        <pt x="124" y="375" on="0"/>
        <pt x="133" y="339" on="1"/>
        <pt x="143" y="300" on="0"/>
        <pt x="171" y="231" on="1"/>
        <pt x="189" y="186" on="0"/>
        <pt x="205" y="143" on="0"/>
        <pt x="221" y="75" on="0"/>
        <pt x="223" y="42" on="1"/>
        <pt x="223" y="25" on="0"/>
        <pt x="221" y="20" on="1"/>
        <pt x="216" y="8" on="0"/>
        <pt x="205" y="3" on="1"/>
        <pt x="201" y="1" on="0"/>
        <pt x="128" y="1" on="1"/>
        <pt x="55" y="1" on="1"/>
        <pt x="39" y="7" on="0"/>
        <pt x="33" y="23" on="1"/>
        <pt x="32" y="60" on="1"/>
        <pt x="32" y="98" on="0"/>
        <pt x="34" y="103" on="1"/>
        <pt x="43" y="123" on="0"/>
        <pt x="68" y="123" on="1"/>
        <pt x="103" y="123" on="0"/>
        <pt x="103" y="87" on="1"/>
        <pt x="103" y="76" on="1"/>
        <pt x="123" y="76" on="1"/>
        <pt x="142" y="76" on="0"/>
        <pt x="142" y="78" on="1"/>
        <pt x="142" y="84" on="0"/>
        <pt x="132" y="117" on="1"/>
        <pt x="122" y="147" on="0"/>
        <pt x="95" y="209" on="1"/>
        <pt x="46" y="322" on="0"/>
        <pt x="41" y="383" on="1"/>
        <pt x="40" y="390" on="0"/>
      </contour>
    </TTGlyph>
    <TTGlyph name="P" xMin="19" yMin="1" xMax="480" yMax="611">
      <contour>
        <pt x="41" y="1" on="1"/>
        <pt x="19" y="9" on="0"/>
        <pt x="19" y="38" on="1"/>
        <pt x="19" y="54" on="0"/>
        <pt x="25" y="67" on="0"/>
        <pt x="36" y="73" on="1"/>
        <pt x="42" y="76" on="0"/>
        <pt x="65" y="76" on="1"/>
        <pt x="89" y="76" on="1"/>
        <pt x="89" y="535" on="1"/>
        <pt x="65" y="535" on="1"/>
        <pt x="42" y="535" on="0"/>
        <pt x="36" y="538" on="1"/>
        <pt x="19" y="548" on="0"/>
        <pt x="19" y="573" on="1"/>
        <pt x="19" y="603" on="0"/>
        <pt x="41" y="610" on="1"/>
        <pt x="49" y="610" on="1"/>
        <pt x="57" y="610" on="0"/>
        <pt x="84" y="610" on="0"/>
        <pt x="116" y="611" on="0"/>
        <pt x="157" y="611" on="0"/>
        <pt x="175" y="611" on="1"/>
        <pt x="204" y="611" on="0"/>
        <pt x="270" y="610" on="0"/>
        <pt x="313" y="610" on="0"/>
        <pt x="314" y="610" on="1"/>
        <pt x="390" y="603" on="0"/>
        <pt x="441" y="537" on="1"/>
        <pt x="480" y="485" on="0"/>
        <pt x="480" y="421" on="1"/>
        <pt x="480" y="404" on="0"/>
        <pt x="478" y="390" on="1"/>
        <pt x="466" y="324" on="0"/>
        <pt x="421" y="282" on="1"/>
        <pt x="401" y="262" on="0"/>
        <pt x="378" y="251" on="1"/>
        <pt x="351" y="236" on="0"/>
        <pt x="314" y="231" on="1"/>
        <pt x="308" y="230" on="0"/>
        <pt x="239" y="230" on="1"/>
        <pt x="173" y="230" on="1"/>
        <pt x="173" y="76" on="1"/>
        <pt x="197" y="76" on="1"/>
        <pt x="220" y="76" on="0"/>
        <pt x="227" y="73" on="1"/>
        <pt x="244" y="62" on="0"/>
        <pt x="244" y="38" on="1"/>
        <pt x="244" y="10" on="0"/>
        <pt x="222" y="1" on="1"/>
      </contour>
      <contour>
        <pt x="396" y="421" on="1"/>
        <pt x="396" y="463" on="0"/>
        <pt x="341" y="523" on="0"/>
        <pt x="300" y="533" on="1"/>
        <pt x="294" y="534" on="0"/>
        <pt x="233" y="535" on="1"/>
        <pt x="173" y="535" on="1"/>
        <pt x="173" y="306" on="1"/>
        <pt x="233" y="306" on="1"/>
        <pt x="294" y="307" on="0"/>
        <pt x="300" y="308" on="1"/>
        <pt x="341" y="318" on="0"/>
        <pt x="396" y="378" on="0"/>
      </contour>
    </TTGlyph>
    <TTGlyph name="Phi" xMin="41" yMin="1" xMax="483" yMax="611">
      <contour>
        <pt x="139" y="543" on="0"/>
        <pt x="139" y="603" on="0"/>
        <pt x="161" y="610" on="1"/>
        <pt x="166" y="610" on="1"/>
        <pt x="172" y="610" on="0"/>
        <pt x="192" y="610" on="0"/>
        <pt x="216" y="611" on="0"/>
        <pt x="249" y="611" on="0"/>
        <pt x="264" y="611" on="1"/>
        <pt x="364" y="611" on="1"/>
        <pt x="371" y="607" on="0"/>
        <pt x="376" y="603" on="0"/>
        <pt x="383" y="594" on="0"/>
        <pt x="385" y="582" on="0"/>
        <pt x="385" y="573" on="1"/>
        <pt x="385" y="544" on="0"/>
        <pt x="364" y="536" on="1"/>
        <pt x="334" y="535" on="1"/>
        <pt x="304" y="535" on="1"/>
        <pt x="304" y="441" on="1"/>
        <pt x="306" y="441" on="1"/>
        <pt x="308" y="440" on="1"/>
        <pt x="310" y="440" on="0"/>
        <pt x="315" y="439" on="0"/>
        <pt x="317" y="439" on="1"/>
        <pt x="373" y="431" on="0"/>
        <pt x="468" y="370" on="0"/>
        <pt x="481" y="330" on="1"/>
        <pt x="483" y="321" on="0"/>
        <pt x="483" y="306" on="1"/>
        <pt x="483" y="290" on="0"/>
        <pt x="481" y="282" on="1"/>
        <pt x="468" y="241" on="0"/>
        <pt x="374" y="180" on="0"/>
        <pt x="317" y="172" on="1"/>
        <pt x="315" y="172" on="0"/>
        <pt x="310" y="171" on="0"/>
        <pt x="308" y="170" on="1"/>
        <pt x="306" y="170" on="1"/>
        <pt x="304" y="170" on="1"/>
        <pt x="304" y="76" on="1"/>
        <pt x="364" y="76" on="1"/>
        <pt x="371" y="72" on="0"/>
        <pt x="376" y="68" on="0"/>
        <pt x="383" y="59" on="0"/>
        <pt x="385" y="47" on="0"/>
        <pt x="385" y="38" on="1"/>
        <pt x="385" y="9" on="0"/>
        <pt x="364" y="1" on="1"/>
        <pt x="161" y="1" on="1"/>
        <pt x="139" y="8" on="0"/>
        <pt x="139" y="38" on="1"/>
        <pt x="139" y="55" on="0"/>
        <pt x="148" y="69" on="0"/>
        <pt x="161" y="76" on="1"/>
        <pt x="220" y="76" on="1"/>
        <pt x="220" y="170" on="1"/>
        <pt x="218" y="170" on="1"/>
        <pt x="216" y="170" on="1"/>
        <pt x="214" y="171" on="0"/>
        <pt x="210" y="172" on="0"/>
        <pt x="208" y="172" on="1"/>
        <pt x="151" y="180" on="0"/>
        <pt x="56" y="240" on="0"/>
        <pt x="43" y="282" on="1"/>
        <pt x="41" y="290" on="0"/>
        <pt x="41" y="306" on="1"/>
        <pt x="41" y="321" on="0"/>
        <pt x="43" y="330" on="1"/>
        <pt x="56" y="371" on="0"/>
        <pt x="151" y="431" on="0"/>
        <pt x="208" y="439" on="1"/>
        <pt x="210" y="439" on="0"/>
        <pt x="214" y="440" on="0"/>
        <pt x="216" y="440" on="1"/>
        <pt x="218" y="441" on="1"/>
        <pt x="220" y="441" on="1"/>
        <pt x="220" y="535" on="1"/>
        <pt x="190" y="535" on="1"/>
        <pt x="161" y="536" on="1"/>
      </contour>
      <contour>
        <pt x="220" y="306" on="1"/>
        <pt x="220" y="364" on="1"/>
        <pt x="218" y="364" on="1"/>
        <pt x="199" y="364" on="0"/>
        <pt x="142" y="339" on="0"/>
        <pt x="133" y="329" on="1"/>
        <pt x="124" y="318" on="0"/>
        <pt x="124" y="306" on="1"/>
        <pt x="124" y="296" on="0"/>
        <pt x="131" y="286" on="1"/>
        <pt x="148" y="260" on="0"/>
        <pt x="204" y="250" on="1"/>
        <pt x="214" y="247" on="0"/>
        <pt x="218" y="247" on="1"/>
        <pt x="220" y="247" on="0"/>
      </contour>
      <contour>
        <pt x="320" y="361" on="1"/>
        <pt x="310" y="364" on="0"/>
        <pt x="306" y="364" on="1"/>
        <pt x="304" y="364" on="0"/>
        <pt x="304" y="306" on="1"/>
        <pt x="304" y="247" on="0"/>
        <pt x="306" y="247" on="1"/>
        <pt x="324" y="247" on="0"/>
        <pt x="382" y="272" on="0"/>
        <pt x="400" y="292" on="0"/>
        <pt x="400" y="305" on="1"/>
        <pt x="400" y="315" on="0"/>
        <pt x="393" y="325" on="1"/>
        <pt x="376" y="351" on="0"/>
      </contour>
    </TTGlyph>
    <TTGlyph name="Pi" xMin="16" yMin="1" xMax="508" yMax="611">
      <contour>
        <pt x="39" y="1" on="1"/>
        <pt x="26" y="6" on="0"/>
        <pt x="17" y="19" on="0"/>
        <pt x="17" y="38" on="1"/>
        <pt x="17" y="55" on="0"/>
        <pt x="19" y="59" on="1"/>
        <pt x="24" y="68" on="0"/>
        <pt x="33" y="73" on="1"/>
        <pt x="40" y="76" on="0"/>
        <pt x="60" y="76" on="1"/>
        <pt x="81" y="76" on="1"/>
        <pt x="81" y="535" on="1"/>
        <pt x="60" y="535" on="1"/>
        <pt x="40" y="535" on="0"/>
        <pt x="33" y="538" on="1"/>
        <pt x="16" y="546" on="0"/>
        <pt x="16" y="571" on="1"/>
        <pt x="16" y="602" on="0"/>
        <pt x="36" y="609" on="1"/>
        <pt x="41" y="611" on="0"/>
        <pt x="264" y="611" on="1"/>
        <pt x="486" y="611" on="1"/>
        <pt x="496" y="605" on="0"/>
        <pt x="502" y="601" on="0"/>
        <pt x="508" y="586" on="0"/>
        <pt x="508" y="573" on="1"/>
        <pt x="508" y="558" on="0"/>
        <pt x="505" y="552" on="1"/>
        <pt x="500" y="543" on="0"/>
        <pt x="491" y="538" on="1"/>
        <pt x="484" y="535" on="0"/>
        <pt x="464" y="535" on="1"/>
        <pt x="443" y="535" on="1"/>
        <pt x="443" y="76" on="1"/>
        <pt x="464" y="76" on="1"/>
        <pt x="484" y="76" on="0"/>
        <pt x="491" y="73" on="1"/>
        <pt x="500" y="68" on="0"/>
        <pt x="505" y="59" on="1"/>
        <pt x="508" y="53" on="0"/>
        <pt x="508" y="38" on="1"/>
        <pt x="508" y="20" on="0"/>
        <pt x="499" y="6" on="0"/>
        <pt x="486" y="1" on="1"/>
        <pt x="317" y="1" on="1"/>
        <pt x="304" y="6" on="0"/>
        <pt x="295" y="19" on="0"/>
        <pt x="295" y="38" on="1"/>
        <pt x="295" y="55" on="0"/>
        <pt x="297" y="59" on="1"/>
        <pt x="302" y="68" on="0"/>
        <pt x="311" y="73" on="1"/>
        <pt x="318" y="76" on="0"/>
        <pt x="338" y="76" on="1"/>
        <pt x="359" y="76" on="1"/>
        <pt x="359" y="535" on="1"/>
        <pt x="165" y="535" on="1"/>
        <pt x="165" y="76" on="1"/>
        <pt x="186" y="76" on="1"/>
        <pt x="206" y="76" on="0"/>
        <pt x="213" y="73" on="1"/>
        <pt x="222" y="68" on="0"/>
        <pt x="227" y="59" on="1"/>
        <pt x="230" y="53" on="0"/>
        <pt x="230" y="38" on="1"/>
        <pt x="230" y="20" on="0"/>
        <pt x="221" y="6" on="0"/>
        <pt x="208" y="1" on="1"/>
      </contour>
    </TTGlyph>
    <TTGlyph name="Psi" xMin="37" yMin="1" xMax="487" yMax="611">
      <contour>
        <pt x="77" y="475" on="1"/>
        <pt x="113" y="475" on="0"/>
        <pt x="146" y="445" on="0"/>
        <pt x="152" y="411" on="1"/>
        <pt x="152" y="409" on="0"/>
        <pt x="154" y="382" on="0"/>
        <pt x="154" y="372" on="1"/>
        <pt x="156" y="327" on="0"/>
        <pt x="174" y="277" on="0"/>
        <pt x="198" y="261" on="1"/>
        <pt x="215" y="251" on="0"/>
        <pt x="219" y="251" on="1"/>
        <pt x="220" y="251" on="0"/>
        <pt x="220" y="393" on="1"/>
        <pt x="220" y="535" on="1"/>
        <pt x="193" y="535" on="1"/>
        <pt x="167" y="536" on="1"/>
        <pt x="145" y="544" on="0"/>
        <pt x="145" y="573" on="1"/>
        <pt x="145" y="603" on="0"/>
        <pt x="167" y="610" on="1"/>
        <pt x="168" y="611" on="0"/>
        <pt x="264" y="611" on="1"/>
        <pt x="358" y="611" on="1"/>
        <pt x="367" y="605" on="0"/>
        <pt x="374" y="599" on="0"/>
        <pt x="380" y="584" on="0"/>
        <pt x="380" y="573" on="1"/>
        <pt x="380" y="545" on="0"/>
        <pt x="358" y="536" on="1"/>
        <pt x="331" y="535" on="1"/>
        <pt x="304" y="535" on="1"/>
        <pt x="304" y="393" on="1"/>
        <pt x="304" y="251" on="0"/>
        <pt x="305" y="251" on="1"/>
        <pt x="308" y="251" on="0"/>
        <pt x="326" y="261" on="1"/>
        <pt x="350" y="277" on="0"/>
        <pt x="368" y="326" on="0"/>
        <pt x="370" y="372" on="1"/>
        <pt x="370" y="382" on="0"/>
        <pt x="372" y="409" on="0"/>
        <pt x="372" y="411" on="1"/>
        <pt x="378" y="445" on="0"/>
        <pt x="411" y="475" on="0"/>
        <pt x="447" y="475" on="1"/>
        <pt x="470" y="474" on="0"/>
        <pt x="478" y="466" on="1"/>
        <pt x="487" y="457" on="0"/>
        <pt x="487" y="437" on="1"/>
        <pt x="487" y="419" on="0"/>
        <pt x="481" y="412" on="1"/>
        <pt x="477" y="404" on="0"/>
        <pt x="459" y="398" on="1"/>
        <pt x="455" y="383" on="0"/>
        <pt x="454" y="363" on="1"/>
        <pt x="451" y="301" on="0"/>
        <pt x="431" y="263" on="1"/>
        <pt x="399" y="195" on="0"/>
        <pt x="320" y="175" on="1"/>
        <pt x="311" y="172" on="0"/>
        <pt x="306" y="172" on="1"/>
        <pt x="304" y="172" on="1"/>
        <pt x="304" y="76" on="1"/>
        <pt x="358" y="76" on="1"/>
        <pt x="367" y="70" on="0"/>
        <pt x="374" y="64" on="0"/>
        <pt x="380" y="49" on="0"/>
        <pt x="380" y="38" on="1"/>
        <pt x="380" y="10" on="0"/>
        <pt x="358" y="1" on="1"/>
        <pt x="167" y="1" on="1"/>
        <pt x="145" y="9" on="0"/>
        <pt x="145" y="38" on="1"/>
        <pt x="145" y="51" on="0"/>
        <pt x="150" y="65" on="0"/>
        <pt x="157" y="71" on="0"/>
        <pt x="167" y="76" on="1"/>
        <pt x="220" y="76" on="1"/>
        <pt x="220" y="172" on="1"/>
        <pt x="218" y="172" on="1"/>
        <pt x="213" y="172" on="0"/>
        <pt x="204" y="175" on="1"/>
        <pt x="125" y="195" on="0"/>
        <pt x="93" y="263" on="1"/>
        <pt x="73" y="301" on="0"/>
        <pt x="70" y="363" on="1"/>
        <pt x="68" y="388" on="0"/>
        <pt x="67" y="391" on="1"/>
        <pt x="66" y="398" on="1"/>
        <pt x="49" y="403" on="0"/>
        <pt x="37" y="419" on="0"/>
        <pt x="37" y="439" on="1"/>
        <pt x="39" y="460" on="0"/>
        <pt x="54" y="475" on="0"/>
      </contour>
    </TTGlyph>
    <TTGlyph name="Q" xMin="56" yMin="-138" xMax="468" yMax="621">
      <contour>
        <pt x="454" y="-118" on="1"/>
        <pt x="454" y="-129" on="0"/>
        <pt x="441" y="-138" on="1"/>
        <pt x="377" y="-138" on="1"/>
        <pt x="370" y="-136" on="0"/>
        <pt x="363" y="-129" on="1"/>
        <pt x="361" y="-127" on="0"/>
        <pt x="333" y="-69" on="1"/>
        <pt x="304" y="-11" on="1"/>
        <pt x="254" y="-11" on="1"/>
        <pt x="189" y="-10" on="0"/>
        <pt x="165" y="-5" on="1"/>
        <pt x="105" y="6" on="0"/>
        <pt x="84" y="48" on="1"/>
        <pt x="71" y="74" on="0"/>
        <pt x="58" y="167" on="0"/>
        <pt x="56" y="238" on="0"/>
        <pt x="56" y="306" on="1"/>
        <pt x="56" y="543" on="0"/>
        <pt x="102" y="588" on="1"/>
        <pt x="139" y="621" on="0"/>
        <pt x="240" y="621" on="1"/>
        <pt x="323" y="621" on="0"/>
        <pt x="335" y="620" on="1"/>
        <pt x="393" y="613" on="0"/>
        <pt x="422" y="588" on="1"/>
        <pt x="468" y="543" on="0"/>
        <pt x="468" y="306" on="1"/>
        <pt x="468" y="282" on="1"/>
        <pt x="468" y="124" on="0"/>
        <pt x="447" y="66" on="1"/>
        <pt x="433" y="23" on="0"/>
        <pt x="394" y="6" on="1"/>
        <pt x="424" y="-53" on="1"/>
        <pt x="454" y="-112" on="0"/>
      </contour>
      <contour>
        <pt x="337" y="534" on="1"/>
        <pt x="309" y="545" on="0"/>
        <pt x="193" y="545" on="0"/>
        <pt x="170" y="522" on="1"/>
        <pt x="156" y="508" on="0"/>
        <pt x="142" y="432" on="0"/>
        <pt x="140" y="368" on="0"/>
        <pt x="140" y="306" on="1"/>
        <pt x="140" y="228" on="0"/>
        <pt x="142" y="202" on="1"/>
        <pt x="146" y="139" on="0"/>
        <pt x="164" y="88" on="0"/>
        <pt x="187" y="77" on="1"/>
        <pt x="217" y="65" on="0"/>
        <pt x="262" y="65" on="1"/>
        <pt x="266" y="65" on="1"/>
        <pt x="264" y="70" on="1"/>
        <pt x="261" y="75" on="0"/>
        <pt x="251" y="96" on="0"/>
        <pt x="247" y="105" on="1"/>
        <pt x="227" y="145" on="0"/>
        <pt x="227" y="151" on="1"/>
        <pt x="227" y="166" on="0"/>
        <pt x="242" y="170" on="1"/>
        <pt x="244" y="171" on="0"/>
        <pt x="276" y="171" on="1"/>
        <pt x="306" y="171" on="0"/>
        <pt x="310" y="168" on="1"/>
        <pt x="311" y="167" on="0"/>
        <pt x="332" y="127" on="0"/>
        <pt x="342" y="108" on="1"/>
        <pt x="353" y="88" on="1"/>
        <pt x="355" y="88" on="0"/>
        <pt x="358" y="93" on="1"/>
        <pt x="370" y="109" on="0"/>
        <pt x="382" y="184" on="0"/>
        <pt x="384" y="246" on="0"/>
        <pt x="384" y="306" on="1"/>
        <pt x="384" y="382" on="0"/>
        <pt x="382" y="410" on="1"/>
        <pt x="378" y="472" on="0"/>
        <pt x="360" y="523" on="0"/>
      </contour>
    </TTGlyph>
    <TTGlyph name="R" xMin="16" yMin="-11" xMax="522" yMax="611">
      <contour>
        <pt x="39" y="1" on="1"/>
        <pt x="26" y="6" on="0"/>
        <pt x="17" y="19" on="0"/>
        <pt x="17" y="38" on="1"/>
        <pt x="17" y="55" on="0"/>
        <pt x="19" y="59" on="1"/>
        <pt x="24" y="68" on="0"/>
        <pt x="33" y="73" on="1"/>
        <pt x="40" y="76" on="0"/>
        <pt x="60" y="76" on="1"/>
        <pt x="81" y="76" on="1"/>
        <pt x="81" y="535" on="1"/>
        <pt x="60" y="535" on="1"/>
        <pt x="40" y="535" on="0"/>
        <pt x="33" y="538" on="1"/>
        <pt x="16" y="546" on="0"/>
        <pt x="16" y="571" on="1"/>
        <pt x="16" y="602" on="0"/>
        <pt x="36" y="609" on="1"/>
        <pt x="41" y="611" on="0"/>
        <pt x="148" y="611" on="1"/>
        <pt x="268" y="611" on="0"/>
        <pt x="294" y="605" on="1"/>
        <pt x="341" y="593" on="0"/>
        <pt x="411" y="531" on="0"/>
        <pt x="425" y="488" on="1"/>
        <pt x="432" y="468" on="0"/>
        <pt x="432" y="440" on="1"/>
        <pt x="432" y="394" on="0"/>
        <pt x="410" y="359" on="1"/>
        <pt x="393" y="329" on="0"/>
        <pt x="366" y="310" on="1"/>
        <pt x="358" y="303" on="1"/>
        <pt x="358" y="302" on="1"/>
        <pt x="359" y="301" on="0"/>
        <pt x="364" y="296" on="0"/>
        <pt x="365" y="294" on="1"/>
        <pt x="389" y="269" on="0"/>
        <pt x="399" y="239" on="1"/>
        <pt x="405" y="220" on="0"/>
        <pt x="406" y="159" on="1"/>
        <pt x="407" y="101" on="0"/>
        <pt x="409" y="92" on="1"/>
        <pt x="413" y="65" on="0"/>
        <pt x="429" y="65" on="1"/>
        <pt x="434" y="65" on="0"/>
        <pt x="438" y="82" on="0"/>
        <pt x="439" y="107" on="0"/>
        <pt x="441" y="112" on="1"/>
        <pt x="446" y="123" on="0"/>
        <pt x="456" y="127" on="1"/>
        <pt x="462" y="130" on="0"/>
        <pt x="498" y="130" on="0"/>
        <pt x="504" y="127" on="1"/>
        <pt x="520" y="120" on="0"/>
        <pt x="522" y="100" on="1"/>
        <pt x="522" y="54" on="0"/>
        <pt x="473" y="-11" on="0"/>
        <pt x="434" y="-11" on="1"/>
        <pt x="341" y="-11" on="0"/>
        <pt x="324" y="93" on="1"/>
        <pt x="322" y="101" on="0"/>
        <pt x="322" y="154" on="1"/>
        <pt x="321" y="209" on="1"/>
        <pt x="318" y="217" on="1"/>
        <pt x="304" y="257" on="0"/>
        <pt x="257" y="267" on="1"/>
        <pt x="252" y="268" on="0"/>
        <pt x="207" y="268" on="1"/>
        <pt x="165" y="268" on="1"/>
        <pt x="165" y="76" on="1"/>
        <pt x="186" y="76" on="1"/>
        <pt x="206" y="76" on="0"/>
        <pt x="213" y="73" on="1"/>
        <pt x="222" y="68" on="0"/>
        <pt x="227" y="59" on="1"/>
        <pt x="230" y="53" on="0"/>
        <pt x="230" y="38" on="1"/>
        <pt x="230" y="20" on="0"/>
        <pt x="221" y="6" on="0"/>
        <pt x="208" y="1" on="1"/>
      </contour>
      <contour>
        <pt x="260" y="532" on="1"/>
        <pt x="252" y="534" on="0"/>
        <pt x="208" y="535" on="1"/>
        <pt x="165" y="535" on="1"/>
        <pt x="165" y="344" on="1"/>
        <pt x="208" y="344" on="1"/>
        <pt x="252" y="345" on="0"/>
        <pt x="260" y="347" on="1"/>
        <pt x="288" y="352" on="0"/>
        <pt x="332" y="385" on="0"/>
        <pt x="341" y="406" on="1"/>
        <pt x="348" y="421" on="0"/>
        <pt x="348" y="440" on="1"/>
        <pt x="348" y="476" on="0"/>
        <pt x="297" y="526" on="0"/>
      </contour>
    </TTGlyph>
    <TTGlyph name="S" xMin="52" yMin="-11" xMax="472" yMax="622">
      <contour>
        <pt x="52" y="454" on="1"/>
        <pt x="52" y="520" on="0"/>
        <pt x="155" y="621" on="0"/>
        <pt x="229" y="621" on="1"/>
        <pt x="266" y="621" on="0"/>
        <pt x="274" y="620" on="1"/>
        <pt x="326" y="610" on="0"/>
        <pt x="360" y="588" on="1"/>
        <pt x="371" y="581" on="1"/>
        <pt x="384" y="613" on="0"/>
        <pt x="397" y="619" on="1"/>
        <pt x="404" y="622" on="0"/>
        <pt x="412" y="622" on="1"/>
        <pt x="435" y="622" on="0"/>
        <pt x="443" y="603" on="1"/>
        <pt x="445" y="598" on="0"/>
        <pt x="445" y="432" on="0"/>
        <pt x="443" y="427" on="1"/>
        <pt x="441" y="421" on="0"/>
        <pt x="436" y="417" on="1"/>
        <pt x="428" y="408" on="0"/>
        <pt x="378" y="408" on="0"/>
        <pt x="370" y="417" on="1"/>
        <pt x="361" y="424" on="0"/>
        <pt x="361" y="434" on="1"/>
        <pt x="361" y="447" on="0"/>
        <pt x="354" y="466" on="1"/>
        <pt x="330" y="546" on="0"/>
        <pt x="238" y="546" on="1"/>
        <pt x="199" y="546" on="0"/>
        <pt x="144" y="508" on="0"/>
        <pt x="134" y="477" on="1"/>
        <pt x="132" y="469" on="0"/>
        <pt x="132" y="458" on="1"/>
        <pt x="132" y="434" on="0"/>
        <pt x="148" y="412" on="1"/>
        <pt x="157" y="398" on="0"/>
        <pt x="176" y="387" on="1"/>
        <pt x="191" y="377" on="0"/>
        <pt x="270" y="359" on="1"/>
        <pt x="341" y="342" on="0"/>
        <pt x="349" y="339" on="1"/>
        <pt x="389" y="325" on="0"/>
        <pt x="448" y="267" on="0"/>
        <pt x="461" y="229" on="1"/>
        <pt x="472" y="201" on="0"/>
        <pt x="472" y="164" on="1"/>
        <pt x="469" y="93" on="0"/>
        <pt x="377" y="-1" on="0"/>
        <pt x="311" y="-10" on="1"/>
        <pt x="304" y="-11" on="0"/>
        <pt x="287" y="-11" on="1"/>
        <pt x="188" y="-11" on="0"/>
        <pt x="130" y="27" on="1"/>
        <pt x="126" y="31" on="0"/>
        <pt x="126" y="29" on="1"/>
        <pt x="126" y="26" on="0"/>
        <pt x="111" y="0" on="0"/>
        <pt x="109" y="-2" on="1"/>
        <pt x="100" y="-11" on="0"/>
        <pt x="84" y="-11" on="1"/>
        <pt x="62" y="-11" on="0"/>
        <pt x="54" y="8" on="1"/>
        <pt x="52" y="13" on="0"/>
        <pt x="52" y="95" on="1"/>
        <pt x="52" y="135" on="1"/>
        <pt x="52" y="173" on="0"/>
        <pt x="55" y="188" on="0"/>
        <pt x="61" y="194" on="1"/>
        <pt x="70" y="203" on="0"/>
        <pt x="95" y="203" on="1"/>
        <pt x="119" y="203" on="0"/>
        <pt x="127" y="194" on="1"/>
        <pt x="136" y="186" on="0"/>
        <pt x="136" y="168" on="1"/>
        <pt x="143" y="66" on="0"/>
        <pt x="284" y="66" on="1"/>
        <pt x="326" y="66" on="0"/>
        <pt x="350" y="85" on="1"/>
        <pt x="391" y="115" on="0"/>
        <pt x="391" y="215" on="0"/>
        <pt x="351" y="245" on="1"/>
        <pt x="335" y="256" on="0"/>
        <pt x="322" y="260" on="1"/>
        <pt x="318" y="262" on="0"/>
        <pt x="189" y="292" on="0"/>
        <pt x="185" y="293" on="1"/>
        <pt x="128" y="307" on="0"/>
        <pt x="52" y="393" on="0"/>
      </contour>
    </TTGlyph>
    <TTGlyph name="Sigma" xMin="40" yMin="1" xMax="484" yMax="611">
      <contour>
        <pt x="40" y="575" on="1"/>
        <pt x="42" y="602" on="0"/>
        <pt x="63" y="610" on="1"/>
        <pt x="68" y="610" on="1"/>
        <pt x="74" y="610" on="0"/>
        <pt x="94" y="610" on="0"/>
        <pt x="122" y="610" on="0"/>
        <pt x="157" y="611" on="0"/>
        <pt x="196" y="611" on="0"/>
        <pt x="242" y="611" on="0"/>
        <pt x="264" y="611" on="1"/>
        <pt x="462" y="611" on="1"/>
        <pt x="479" y="598" on="0"/>
        <pt x="482" y="591" on="1"/>
        <pt x="484" y="586" on="0"/>
        <pt x="484" y="466" on="0"/>
        <pt x="482" y="461" on="1"/>
        <pt x="477" y="449" on="0"/>
        <pt x="466" y="444" on="1"/>
        <pt x="462" y="442" on="0"/>
        <pt x="442" y="442" on="1"/>
        <pt x="417" y="442" on="0"/>
        <pt x="409" y="450" on="1"/>
        <pt x="402" y="457" on="0"/>
        <pt x="400" y="470" on="0"/>
        <pt x="400" y="501" on="1"/>
        <pt x="400" y="535" on="1"/>
        <pt x="153" y="535" on="1"/>
        <pt x="153" y="533" on="0"/>
        <pt x="218" y="430" on="1"/>
        <pt x="233" y="405" on="0"/>
        <pt x="267" y="350" on="0"/>
        <pt x="285" y="321" on="0"/>
        <pt x="286" y="319" on="1"/>
        <pt x="292" y="306" on="0"/>
        <pt x="287" y="294" on="1"/>
        <pt x="161" y="78" on="1"/>
        <pt x="400" y="78" on="1"/>
        <pt x="400" y="112" on="1"/>
        <pt x="400" y="142" on="0"/>
        <pt x="402" y="156" on="0"/>
        <pt x="409" y="163" on="1"/>
        <pt x="418" y="172" on="0"/>
        <pt x="442" y="172" on="1"/>
        <pt x="460" y="172" on="0"/>
        <pt x="466" y="169" on="1"/>
        <pt x="477" y="164" on="0"/>
        <pt x="482" y="152" on="1"/>
        <pt x="484" y="147" on="0"/>
        <pt x="484" y="25" on="0"/>
        <pt x="482" y="20" on="1"/>
        <pt x="476" y="7" on="0"/>
        <pt x="462" y="1" on="1"/>
        <pt x="63" y="1" on="1"/>
        <pt x="41" y="10" on="0"/>
        <pt x="41" y="31" on="1"/>
        <pt x="41" y="39" on="0"/>
        <pt x="43" y="44" on="1"/>
        <pt x="45" y="46" on="0"/>
        <pt x="195" y="298" on="0"/>
        <pt x="195" y="303" on="1"/>
        <pt x="195" y="307" on="0"/>
        <pt x="42" y="554" on="0"/>
        <pt x="40" y="560" on="0"/>
      </contour>
    </TTGlyph>
    <TTGlyph name="T" xMin="26" yMin="1" xMax="498" yMax="611">
      <contour>
        <pt x="129" y="19" on="0"/>
        <pt x="129" y="57" on="0"/>
        <pt x="138" y="69" on="0"/>
        <pt x="151" y="76" on="1"/>
        <pt x="220" y="76" on="1"/>
        <pt x="220" y="535" on="1"/>
        <pt x="110" y="535" on="1"/>
        <pt x="110" y="501" on="1"/>
        <pt x="110" y="470" on="0"/>
        <pt x="108" y="457" on="0"/>
        <pt x="101" y="450" on="1"/>
        <pt x="93" y="442" on="0"/>
        <pt x="68" y="442" on="1"/>
        <pt x="48" y="442" on="0"/>
        <pt x="44" y="444" on="1"/>
        <pt x="33" y="449" on="0"/>
        <pt x="28" y="461" on="1"/>
        <pt x="26" y="466" on="0"/>
        <pt x="26" y="527" on="1"/>
        <pt x="27" y="589" on="1"/>
        <pt x="35" y="606" on="0"/>
        <pt x="49" y="610" on="1"/>
        <pt x="55" y="610" on="1"/>
        <pt x="61" y="610" on="0"/>
        <pt x="83" y="610" on="0"/>
        <pt x="112" y="610" on="0"/>
        <pt x="150" y="611" on="0"/>
        <pt x="191" y="611" on="0"/>
        <pt x="240" y="611" on="0"/>
        <pt x="264" y="611" on="1"/>
        <pt x="476" y="611" on="1"/>
        <pt x="493" y="598" on="0"/>
        <pt x="496" y="591" on="1"/>
        <pt x="498" y="586" on="0"/>
        <pt x="498" y="466" on="0"/>
        <pt x="496" y="461" on="1"/>
        <pt x="491" y="449" on="0"/>
        <pt x="480" y="444" on="1"/>
        <pt x="476" y="442" on="0"/>
        <pt x="456" y="442" on="1"/>
        <pt x="431" y="442" on="0"/>
        <pt x="423" y="450" on="1"/>
        <pt x="416" y="457" on="0"/>
        <pt x="414" y="470" on="0"/>
        <pt x="414" y="501" on="1"/>
        <pt x="414" y="535" on="1"/>
        <pt x="304" y="535" on="1"/>
        <pt x="304" y="76" on="1"/>
        <pt x="374" y="76" on="1"/>
        <pt x="384" y="70" on="0"/>
        <pt x="390" y="66" on="0"/>
        <pt x="396" y="51" on="0"/>
        <pt x="396" y="38" on="1"/>
        <pt x="396" y="20" on="0"/>
        <pt x="387" y="6" on="0"/>
        <pt x="374" y="1" on="1"/>
        <pt x="151" y="1" on="1"/>
        <pt x="138" y="6" on="0"/>
      </contour>
    </TTGlyph>
    <TTGlyph name="Theta" xMin="56" yMin="-10" xMax="468" yMax="621">
      <contour>
        <pt x="102" y="588" on="1"/>
        <pt x="139" y="621" on="0"/>
        <pt x="240" y="621" on="1"/>
        <pt x="323" y="621" on="0"/>
        <pt x="335" y="620" on="1"/>
        <pt x="393" y="613" on="0"/>
        <pt x="422" y="588" on="1"/>
        <pt x="468" y="543" on="0"/>
        <pt x="468" y="306" on="1"/>
        <pt x="468" y="68" on="0"/>
        <pt x="422" y="23" on="1"/>
        <pt x="398" y="2" on="0"/>
        <pt x="327" y="-10" on="0"/>
        <pt x="197" y="-10" on="0"/>
        <pt x="126" y="2" on="0"/>
        <pt x="102" y="23" on="1"/>
        <pt x="56" y="68" on="0"/>
        <pt x="56" y="306" on="1"/>
        <pt x="56" y="543" on="0"/>
      </contour>
      <contour>
        <pt x="337" y="534" on="1"/>
        <pt x="309" y="545" on="0"/>
        <pt x="193" y="545" on="0"/>
        <pt x="170" y="522" on="1"/>
        <pt x="156" y="508" on="0"/>
        <pt x="142" y="432" on="0"/>
        <pt x="140" y="368" on="0"/>
        <pt x="140" y="306" on="1"/>
        <pt x="140" y="228" on="0"/>
        <pt x="142" y="202" on="1"/>
        <pt x="146" y="139" on="0"/>
        <pt x="164" y="88" on="0"/>
        <pt x="210" y="66" on="0"/>
        <pt x="262" y="66" on="1"/>
        <pt x="301" y="66" on="0"/>
        <pt x="346" y="78" on="0"/>
        <pt x="371" y="114" on="0"/>
        <pt x="379" y="158" on="0"/>
        <pt x="382" y="202" on="1"/>
        <pt x="384" y="228" on="0"/>
        <pt x="384" y="306" on="1"/>
        <pt x="384" y="382" on="0"/>
        <pt x="382" y="410" on="1"/>
        <pt x="378" y="472" on="0"/>
        <pt x="360" y="523" on="0"/>
      </contour>
      <contour>
        <pt x="179" y="356" on="1"/>
        <pt x="184" y="369" on="0"/>
        <pt x="203" y="378" on="0"/>
        <pt x="223" y="378" on="1"/>
        <pt x="243" y="377" on="0"/>
        <pt x="252" y="369" on="1"/>
        <pt x="261" y="362" on="0"/>
        <pt x="261" y="355" on="1"/>
        <pt x="261" y="353" on="0"/>
        <pt x="263" y="353" on="0"/>
        <pt x="263" y="355" on="1"/>
        <pt x="263" y="362" on="0"/>
        <pt x="272" y="369" on="1"/>
        <pt x="280" y="377" on="0"/>
        <pt x="304" y="377" on="1"/>
        <pt x="325" y="377" on="0"/>
        <pt x="338" y="370" on="0"/>
        <pt x="346" y="356" on="1"/>
        <pt x="346" y="256" on="1"/>
        <pt x="339" y="242" on="0"/>
        <pt x="325" y="234" on="0"/>
        <pt x="304" y="234" on="1"/>
        <pt x="280" y="234" on="0"/>
        <pt x="272" y="242" on="1"/>
        <pt x="263" y="249" on="0"/>
        <pt x="263" y="256" on="1"/>
        <pt x="263" y="258" on="0"/>
        <pt x="261" y="258" on="0"/>
        <pt x="261" y="256" on="1"/>
        <pt x="261" y="249" on="0"/>
        <pt x="252" y="242" on="1"/>
        <pt x="244" y="234" on="0"/>
        <pt x="220" y="234" on="1"/>
        <pt x="199" y="234" on="0"/>
        <pt x="184" y="242" on="0"/>
        <pt x="179" y="256" on="1"/>
      </contour>
    </TTGlyph>
    <TTGlyph name="U" xMin="-3" yMin="-11" xMax="528" yMax="611">
      <contour>
        <pt x="506" y="611" on="1"/>
        <pt x="515" y="605" on="0"/>
        <pt x="522" y="599" on="0"/>
        <pt x="528" y="584" on="0"/>
        <pt x="528" y="573" on="1"/>
        <pt x="528" y="549" on="0"/>
        <pt x="511" y="538" on="1"/>
        <pt x="504" y="535" on="0"/>
        <pt x="481" y="535" on="1"/>
        <pt x="457" y="535" on="1"/>
        <pt x="457" y="364" on="1"/>
        <pt x="457" y="189" on="0"/>
        <pt x="456" y="182" on="1"/>
        <pt x="450" y="119" on="0"/>
        <pt x="379" y="21" on="0"/>
        <pt x="325" y="1" on="1"/>
        <pt x="294" y="-11" on="0"/>
        <pt x="262" y="-11" on="1"/>
        <pt x="189" y="-11" on="0"/>
        <pt x="75" y="99" on="0"/>
        <pt x="68" y="182" on="1"/>
        <pt x="67" y="189" on="0"/>
        <pt x="67" y="364" on="1"/>
        <pt x="67" y="535" on="1"/>
        <pt x="43" y="535" on="1"/>
        <pt x="20" y="535" on="0"/>
        <pt x="14" y="538" on="1"/>
        <pt x="-3" y="548" on="0"/>
        <pt x="-3" y="573" on="1"/>
        <pt x="-3" y="603" on="0"/>
        <pt x="19" y="610" on="1"/>
        <pt x="20" y="611" on="0"/>
        <pt x="111" y="611" on="1"/>
        <pt x="200" y="611" on="1"/>
        <pt x="209" y="605" on="0"/>
        <pt x="216" y="599" on="0"/>
        <pt x="222" y="584" on="0"/>
        <pt x="222" y="573" on="1"/>
        <pt x="222" y="549" on="0"/>
        <pt x="205" y="538" on="1"/>
        <pt x="198" y="535" on="0"/>
        <pt x="175" y="535" on="1"/>
        <pt x="151" y="535" on="1"/>
        <pt x="151" y="359" on="1"/>
        <pt x="151" y="333" on="0"/>
        <pt x="151" y="291" on="1"/>
        <pt x="152" y="177" on="0"/>
        <pt x="156" y="162" on="1"/>
        <pt x="157" y="160" on="0"/>
        <pt x="157" y="159" on="1"/>
        <pt x="165" y="125" on="0"/>
        <pt x="211" y="76" on="0"/>
        <pt x="240" y="68" on="1"/>
        <pt x="246" y="66" on="0"/>
        <pt x="278" y="66" on="0"/>
        <pt x="284" y="68" on="1"/>
        <pt x="313" y="76" on="0"/>
        <pt x="359" y="125" on="0"/>
        <pt x="367" y="159" on="1"/>
        <pt x="371" y="175" on="0"/>
        <pt x="372" y="208" on="0"/>
        <pt x="373" y="359" on="1"/>
        <pt x="373" y="535" on="1"/>
        <pt x="349" y="535" on="1"/>
        <pt x="326" y="535" on="0"/>
        <pt x="320" y="538" on="1"/>
        <pt x="303" y="548" on="0"/>
        <pt x="303" y="573" on="1"/>
        <pt x="303" y="586" on="0"/>
        <pt x="308" y="600" on="0"/>
        <pt x="315" y="606" on="0"/>
        <pt x="325" y="611" on="1"/>
      </contour>
    </TTGlyph>
    <TTGlyph name="Upsilon" xMin="38" yMin="1" xMax="486" yMax="622">
      <contour>
        <pt x="152" y="621" on="1"/>
        <pt x="205" y="621" on="0"/>
        <pt x="252" y="553" on="0"/>
        <pt x="262" y="492" on="1"/>
        <pt x="263" y="496" on="0"/>
        <pt x="267" y="516" on="0"/>
        <pt x="269" y="522" on="1"/>
        <pt x="292" y="622" on="0"/>
        <pt x="365" y="622" on="1"/>
        <pt x="416" y="622" on="0"/>
        <pt x="486" y="546" on="0"/>
        <pt x="486" y="494" on="1"/>
        <pt x="486" y="470" on="0"/>
        <pt x="469" y="461" on="1"/>
        <pt x="464" y="459" on="0"/>
        <pt x="445" y="459" on="1"/>
        <pt x="420" y="459" on="0"/>
        <pt x="405" y="472" on="0"/>
        <pt x="403" y="495" on="1"/>
        <pt x="401" y="527" on="0"/>
        <pt x="385" y="558" on="0"/>
        <pt x="365" y="558" on="1"/>
        <pt x="356" y="558" on="0"/>
        <pt x="350" y="555" on="1"/>
        <pt x="318" y="540" on="0"/>
        <pt x="309" y="449" on="1"/>
        <pt x="305" y="414" on="0"/>
        <pt x="304" y="239" on="1"/>
        <pt x="304" y="76" on="1"/>
        <pt x="358" y="76" on="1"/>
        <pt x="367" y="70" on="0"/>
        <pt x="374" y="64" on="0"/>
        <pt x="380" y="49" on="0"/>
        <pt x="380" y="38" on="1"/>
        <pt x="380" y="10" on="0"/>
        <pt x="358" y="1" on="1"/>
        <pt x="167" y="1" on="1"/>
        <pt x="145" y="9" on="0"/>
        <pt x="145" y="38" on="1"/>
        <pt x="145" y="51" on="0"/>
        <pt x="150" y="65" on="0"/>
        <pt x="157" y="71" on="0"/>
        <pt x="167" y="76" on="1"/>
        <pt x="220" y="76" on="1"/>
        <pt x="220" y="239" on="1"/>
        <pt x="218" y="414" on="0"/>
        <pt x="218" y="418" on="1"/>
        <pt x="210" y="538" on="0"/>
        <pt x="174" y="555" on="1"/>
        <pt x="168" y="558" on="0"/>
        <pt x="150" y="558" on="0"/>
        <pt x="145" y="556" on="1"/>
        <pt x="124" y="544" on="0"/>
        <pt x="121" y="495" on="1"/>
        <pt x="119" y="473" on="0"/>
        <pt x="104" y="459" on="0"/>
        <pt x="54" y="459" on="0"/>
        <pt x="38" y="472" on="0"/>
        <pt x="38" y="494" on="1"/>
        <pt x="38" y="543" on="0"/>
        <pt x="98" y="613" on="0"/>
        <pt x="143" y="621" on="1"/>
      </contour>
    </TTGlyph>
    <TTGlyph name="V" xMin="19" yMin="-7" xMax="505" yMax="611">
      <contour>
        <pt x="217" y="573" on="1"/>
        <pt x="217" y="550" on="0"/>
        <pt x="202" y="535" on="0"/>
        <pt x="179" y="535" on="1"/>
        <pt x="164" y="535" on="1"/>
        <pt x="166" y="530" on="0"/>
        <pt x="179" y="475" on="0"/>
        <pt x="196" y="401" on="0"/>
        <pt x="201" y="382" on="1"/>
        <pt x="258" y="137" on="0"/>
        <pt x="261" y="94" on="1"/>
        <pt x="262" y="84" on="1"/>
        <pt x="262" y="88" on="1"/>
        <pt x="263" y="91" on="0"/>
        <pt x="263" y="94" on="1"/>
        <pt x="266" y="136" on="0"/>
        <pt x="323" y="380" on="1"/>
        <pt x="327" y="398" on="0"/>
        <pt x="345" y="473" on="0"/>
        <pt x="358" y="530" on="0"/>
        <pt x="360" y="535" on="1"/>
        <pt x="345" y="535" on="1"/>
        <pt x="323" y="535" on="0"/>
        <pt x="308" y="550" on="0"/>
        <pt x="308" y="573" on="1"/>
        <pt x="308" y="592" on="0"/>
        <pt x="316" y="604" on="0"/>
        <pt x="330" y="611" on="1"/>
        <pt x="484" y="611" on="1"/>
        <pt x="491" y="607" on="0"/>
        <pt x="496" y="603" on="0"/>
        <pt x="503" y="594" on="0"/>
        <pt x="505" y="582" on="0"/>
        <pt x="505" y="573" on="1"/>
        <pt x="505" y="558" on="0"/>
        <pt x="503" y="554" on="1"/>
        <pt x="497" y="542" on="0"/>
        <pt x="484" y="535" on="0"/>
        <pt x="465" y="535" on="1"/>
        <pt x="447" y="535" on="1"/>
        <pt x="384" y="278" on="1"/>
        <pt x="321" y="19" on="0"/>
        <pt x="319" y="14" on="1"/>
        <pt x="312" y="0" on="0"/>
        <pt x="298" y="-5" on="1"/>
        <pt x="293" y="-7" on="0"/>
        <pt x="231" y="-7" on="0"/>
        <pt x="226" y="-5" on="1"/>
        <pt x="212" y="0" on="0"/>
        <pt x="205" y="14" on="1"/>
        <pt x="203" y="19" on="0"/>
        <pt x="140" y="278" on="1"/>
        <pt x="78" y="535" on="1"/>
        <pt x="59" y="535" on="1"/>
        <pt x="40" y="535" on="0"/>
        <pt x="27" y="542" on="0"/>
        <pt x="21" y="554" on="1"/>
        <pt x="19" y="558" on="0"/>
        <pt x="19" y="573" on="1"/>
        <pt x="19" y="603" on="0"/>
        <pt x="41" y="610" on="1"/>
        <pt x="42" y="611" on="0"/>
        <pt x="119" y="611" on="1"/>
        <pt x="195" y="611" on="1"/>
        <pt x="205" y="605" on="0"/>
        <pt x="211" y="601" on="0"/>
        <pt x="217" y="586" on="0"/>
      </contour>
    </TTGlyph>
    <TTGlyph name="W" xMin="12" yMin="-7" xMax="512" yMax="611">
      <contour>
        <pt x="381" y="535" on="1"/>
        <pt x="355" y="535" on="0"/>
        <pt x="338" y="550" on="0"/>
        <pt x="338" y="573" on="1"/>
        <pt x="338" y="600" on="0"/>
        <pt x="356" y="608" on="1"/>
        <pt x="362" y="611" on="0"/>
        <pt x="488" y="611" on="0"/>
        <pt x="494" y="608" on="1"/>
        <pt x="512" y="600" on="0"/>
        <pt x="512" y="573" on="1"/>
        <pt x="512" y="538" on="0"/>
        <pt x="482" y="535" on="1"/>
        <pt x="474" y="535" on="1"/>
        <pt x="439" y="276" on="1"/>
        <pt x="411" y="63" on="0"/>
        <pt x="403" y="10" on="0"/>
        <pt x="397" y="3" on="1"/>
        <pt x="382" y="-6" on="0"/>
        <pt x="380" y="-7" on="1"/>
        <pt x="359" y="-7" on="1"/>
        <pt x="338" y="-7" on="0"/>
        <pt x="333" y="-5" on="1"/>
        <pt x="321" y="0" on="0"/>
        <pt x="313" y="13" on="1"/>
        <pt x="310" y="20" on="0"/>
        <pt x="301" y="62" on="1"/>
        <pt x="263" y="238" on="0"/>
        <pt x="263" y="275" on="1"/>
        <pt x="263" y="283" on="0"/>
        <pt x="262" y="283" on="1"/>
        <pt x="261" y="282" on="0"/>
        <pt x="261" y="274" on="1"/>
        <pt x="261" y="236" on="0"/>
        <pt x="223" y="62" on="1"/>
        <pt x="214" y="20" on="0"/>
        <pt x="211" y="13" on="1"/>
        <pt x="203" y="0" on="0"/>
        <pt x="191" y="-5" on="1"/>
        <pt x="186" y="-7" on="0"/>
        <pt x="165" y="-7" on="1"/>
        <pt x="144" y="-7" on="1"/>
        <pt x="142" y="-6" on="0"/>
        <pt x="127" y="3" on="1"/>
        <pt x="121" y="10" on="0"/>
        <pt x="113" y="63" on="0"/>
        <pt x="85" y="276" on="1"/>
        <pt x="50" y="535" on="1"/>
        <pt x="42" y="535" on="1"/>
        <pt x="12" y="538" on="0"/>
        <pt x="12" y="573" on="1"/>
        <pt x="12" y="603" on="0"/>
        <pt x="33" y="610" on="1"/>
        <pt x="37" y="611" on="0"/>
        <pt x="101" y="611" on="1"/>
        <pt x="162" y="611" on="0"/>
        <pt x="168" y="608" on="1"/>
        <pt x="186" y="600" on="0"/>
        <pt x="186" y="573" on="1"/>
        <pt x="186" y="550" on="0"/>
        <pt x="169" y="535" on="0"/>
        <pt x="143" y="535" on="1"/>
        <pt x="122" y="535" on="1"/>
        <pt x="122" y="531" on="1"/>
        <pt x="135" y="462" on="0"/>
        <pt x="154" y="278" on="1"/>
        <pt x="167" y="171" on="0"/>
        <pt x="172" y="96" on="1"/>
        <pt x="172" y="84" on="1"/>
        <pt x="173" y="102" on="1"/>
        <pt x="176" y="165" on="0"/>
        <pt x="195" y="258" on="1"/>
        <pt x="210" y="333" on="0"/>
        <pt x="215" y="346" on="1"/>
        <pt x="227" y="367" on="0"/>
        <pt x="297" y="367" on="0"/>
        <pt x="309" y="346" on="1"/>
        <pt x="314" y="333" on="0"/>
        <pt x="329" y="258" on="1"/>
        <pt x="348" y="165" on="0"/>
        <pt x="351" y="102" on="1"/>
        <pt x="352" y="84" on="1"/>
        <pt x="352" y="96" on="1"/>
        <pt x="357" y="171" on="0"/>
        <pt x="370" y="278" on="1"/>
        <pt x="389" y="462" on="0"/>
        <pt x="402" y="531" on="1"/>
        <pt x="402" y="535" on="1"/>
      </contour>
    </TTGlyph>
    <TTGlyph name="X" xMin="28" yMin="1" xMax="495" yMax="611">
      <contour>
        <pt x="50" y="1" on="1"/>
        <pt x="28" y="9" on="0"/>
        <pt x="28" y="38" on="1"/>
        <pt x="28" y="54" on="0"/>
        <pt x="34" y="67" on="0"/>
        <pt x="45" y="73" on="1"/>
        <pt x="51" y="76" on="0"/>
        <pt x="73" y="76" on="1"/>
        <pt x="96" y="76" on="1"/>
        <pt x="154" y="199" on="1"/>
        <pt x="207" y="311" on="0"/>
        <pt x="214" y="324" on="1"/>
        <pt x="215" y="327" on="0"/>
        <pt x="162" y="431" on="1"/>
        <pt x="108" y="535" on="1"/>
        <pt x="85" y="535" on="1"/>
        <pt x="64" y="535" on="0"/>
        <pt x="56" y="538" on="1"/>
        <pt x="39" y="546" on="0"/>
        <pt x="39" y="571" on="1"/>
        <pt x="39" y="602" on="0"/>
        <pt x="59" y="609" on="1"/>
        <pt x="64" y="611" on="0"/>
        <pt x="141" y="611" on="1"/>
        <pt x="218" y="611" on="1"/>
        <pt x="225" y="607" on="0"/>
        <pt x="230" y="603" on="0"/>
        <pt x="237" y="594" on="0"/>
        <pt x="239" y="582" on="0"/>
        <pt x="239" y="573" on="1"/>
        <pt x="239" y="538" on="0"/>
        <pt x="210" y="535" on="1"/>
        <pt x="202" y="535" on="0"/>
        <pt x="202" y="533" on="0"/>
        <pt x="229" y="480" on="0"/>
        <pt x="243" y="454" on="1"/>
        <pt x="257" y="428" on="1"/>
        <pt x="268" y="452" on="0"/>
        <pt x="282" y="481" on="1"/>
        <pt x="307" y="535" on="1"/>
        <pt x="298" y="535" on="1"/>
        <pt x="266" y="538" on="0"/>
        <pt x="266" y="573" on="1"/>
        <pt x="266" y="590" on="0"/>
        <pt x="275" y="603" on="0"/>
        <pt x="289" y="611" on="1"/>
        <pt x="366" y="611" on="1"/>
        <pt x="442" y="611" on="0"/>
        <pt x="448" y="608" on="1"/>
        <pt x="466" y="600" on="0"/>
        <pt x="466" y="573" on="1"/>
        <pt x="466" y="550" on="0"/>
        <pt x="448" y="535" on="0"/>
        <pt x="421" y="535" on="1"/>
        <pt x="398" y="535" on="1"/>
        <pt x="348" y="431" on="1"/>
        <pt x="299" y="327" on="1"/>
        <pt x="299" y="323" on="0"/>
        <pt x="362" y="201" on="1"/>
        <pt x="426" y="77" on="1"/>
        <pt x="449" y="76" on="1"/>
        <pt x="471" y="76" on="0"/>
        <pt x="477" y="73" on="1"/>
        <pt x="495" y="65" on="0"/>
        <pt x="495" y="11" on="0"/>
        <pt x="477" y="3" on="1"/>
        <pt x="473" y="1" on="0"/>
        <pt x="395" y="1" on="1"/>
        <pt x="317" y="1" on="1"/>
        <pt x="295" y="8" on="0"/>
        <pt x="295" y="38" on="1"/>
        <pt x="295" y="73" on="0"/>
        <pt x="325" y="76" on="1"/>
        <pt x="334" y="77" on="1"/>
        <pt x="333" y="78" on="0"/>
        <pt x="295" y="157" on="0"/>
        <pt x="276" y="196" on="1"/>
        <pt x="257" y="235" on="1"/>
        <pt x="239" y="196" on="1"/>
        <pt x="221" y="157" on="0"/>
        <pt x="186" y="78" on="0"/>
        <pt x="186" y="77" on="1"/>
        <pt x="190" y="76" on="0"/>
        <pt x="196" y="76" on="1"/>
        <pt x="214" y="74" on="0"/>
        <pt x="228" y="58" on="0"/>
        <pt x="228" y="38" on="1"/>
        <pt x="228" y="21" on="0"/>
        <pt x="219" y="7" on="0"/>
        <pt x="206" y="1" on="1"/>
      </contour>
    </TTGlyph>
    <TTGlyph name="Xi" xMin="33" yMin="1" xMax="491" yMax="611">
      <contour>
        <pt x="465" y="611" on="1"/>
        <pt x="468" y="609" on="0"/>
        <pt x="476" y="603" on="0"/>
        <pt x="479" y="601" on="0"/>
        <pt x="484" y="596" on="0"/>
        <pt x="484" y="592" on="0"/>
        <pt x="487" y="586" on="0"/>
        <pt x="487" y="575" on="0"/>
        <pt x="487" y="564" on="0"/>
        <pt x="487" y="554" on="1"/>
        <pt x="487" y="526" on="0"/>
        <pt x="485" y="513" on="0"/>
        <pt x="478" y="506" on="1"/>
        <pt x="470" y="498" on="0"/>
        <pt x="420" y="498" on="0"/>
        <pt x="412" y="506" on="1"/>
        <pt x="403" y="515" on="0"/>
        <pt x="403" y="531" on="1"/>
        <pt x="403" y="539" on="1"/>
        <pt x="121" y="539" on="1"/>
        <pt x="121" y="531" on="1"/>
        <pt x="121" y="515" on="0"/>
        <pt x="112" y="506" on="1"/>
        <pt x="104" y="498" on="0"/>
        <pt x="79" y="498" on="1"/>
        <pt x="59" y="498" on="0"/>
        <pt x="55" y="500" on="1"/>
        <pt x="44" y="505" on="0"/>
        <pt x="39" y="517" on="1"/>
        <pt x="37" y="522" on="0"/>
        <pt x="37" y="555" on="1"/>
        <pt x="37" y="587" on="0"/>
        <pt x="40" y="593" on="1"/>
        <pt x="47" y="607" on="0"/>
        <pt x="60" y="610" on="1"/>
        <pt x="66" y="610" on="1"/>
        <pt x="71" y="610" on="0"/>
        <pt x="92" y="610" on="0"/>
        <pt x="119" y="610" on="0"/>
        <pt x="156" y="611" on="0"/>
        <pt x="194" y="611" on="0"/>
        <pt x="241" y="611" on="0"/>
        <pt x="264" y="611" on="1"/>
      </contour>
      <contour>
        <pt x="193" y="277" on="1"/>
        <pt x="193" y="258" on="0"/>
        <pt x="170" y="247" on="1"/>
        <pt x="132" y="247" on="1"/>
        <pt x="115" y="255" on="0"/>
        <pt x="111" y="267" on="1"/>
        <pt x="109" y="272" on="0"/>
        <pt x="109" y="364" on="0"/>
        <pt x="111" y="369" on="1"/>
        <pt x="115" y="381" on="0"/>
        <pt x="132" y="389" on="1"/>
        <pt x="170" y="389" on="1"/>
        <pt x="193" y="378" on="0"/>
        <pt x="193" y="359" on="1"/>
        <pt x="193" y="354" on="1"/>
        <pt x="331" y="354" on="1"/>
        <pt x="331" y="359" on="1"/>
        <pt x="331" y="378" on="0"/>
        <pt x="354" y="389" on="1"/>
        <pt x="392" y="389" on="1"/>
        <pt x="409" y="381" on="0"/>
        <pt x="413" y="369" on="1"/>
        <pt x="415" y="364" on="0"/>
        <pt x="415" y="272" on="0"/>
        <pt x="413" y="267" on="1"/>
        <pt x="409" y="255" on="0"/>
        <pt x="392" y="247" on="1"/>
        <pt x="354" y="247" on="1"/>
        <pt x="331" y="258" on="0"/>
        <pt x="331" y="277" on="1"/>
        <pt x="331" y="282" on="1"/>
        <pt x="193" y="282" on="1"/>
      </contour>
      <contour>
        <pt x="77" y="119" on="1"/>
        <pt x="100" y="118" on="0"/>
        <pt x="117" y="104" on="0"/>
        <pt x="117" y="83" on="1"/>
        <pt x="117" y="72" on="1"/>
        <pt x="407" y="72" on="1"/>
        <pt x="407" y="83" on="1"/>
        <pt x="407" y="101" on="0"/>
        <pt x="425" y="119" on="0"/>
        <pt x="473" y="119" on="0"/>
        <pt x="482" y="110" on="1"/>
        <pt x="489" y="103" on="0"/>
        <pt x="491" y="90" on="0"/>
        <pt x="491" y="59" on="1"/>
        <pt x="491" y="25" on="0"/>
        <pt x="489" y="20" on="1"/>
        <pt x="483" y="7" on="0"/>
        <pt x="469" y="1" on="1"/>
        <pt x="56" y="1" on="1"/>
        <pt x="42" y="6" on="0"/>
        <pt x="36" y="18" on="1"/>
        <pt x="33" y="24" on="0"/>
        <pt x="33" y="58" on="1"/>
        <pt x="33" y="94" on="0"/>
        <pt x="34" y="98" on="1"/>
        <pt x="40" y="111" on="0"/>
        <pt x="56" y="119" on="0"/>
      </contour>
    </TTGlyph>
    <TTGlyph name="Y" xMin="20" yMin="1" xMax="505" yMax="611">
      <contour>
        <pt x="178" y="1" on="1"/>
        <pt x="165" y="6" on="0"/>
        <pt x="156" y="19" on="0"/>
        <pt x="156" y="38" on="1"/>
        <pt x="156" y="55" on="0"/>
        <pt x="158" y="59" on="1"/>
        <pt x="163" y="68" on="0"/>
        <pt x="172" y="73" on="1"/>
        <pt x="180" y="76" on="0"/>
        <pt x="199" y="76" on="1"/>
        <pt x="220" y="76" on="1"/>
        <pt x="220" y="245" on="1"/>
        <pt x="198" y="293" on="0"/>
        <pt x="108" y="486" on="0"/>
        <pt x="86" y="535" on="1"/>
        <pt x="64" y="535" on="1"/>
        <pt x="44" y="535" on="0"/>
        <pt x="36" y="538" on="1"/>
        <pt x="20" y="549" on="0"/>
        <pt x="20" y="573" on="1"/>
        <pt x="20" y="587" on="0"/>
        <pt x="21" y="591" on="1"/>
        <pt x="27" y="605" on="0"/>
        <pt x="42" y="610" on="1"/>
        <pt x="43" y="611" on="0"/>
        <pt x="121" y="611" on="1"/>
        <pt x="198" y="611" on="1"/>
        <pt x="207" y="605" on="0"/>
        <pt x="214" y="599" on="0"/>
        <pt x="220" y="584" on="0"/>
        <pt x="220" y="573" on="1"/>
        <pt x="220" y="539" on="0"/>
        <pt x="188" y="535" on="1"/>
        <pt x="179" y="535" on="0"/>
        <pt x="179" y="534" on="1"/>
        <pt x="183" y="524" on="0"/>
        <pt x="189" y="513" on="1"/>
        <pt x="261" y="353" on="0"/>
        <pt x="261" y="332" on="1"/>
        <pt x="261" y="329" on="0"/>
        <pt x="263" y="329" on="0"/>
        <pt x="263" y="332" on="1"/>
        <pt x="263" y="354" on="0"/>
        <pt x="333" y="508" on="1"/>
        <pt x="345" y="534" on="1"/>
        <pt x="345" y="535" on="0"/>
        <pt x="336" y="535" on="1"/>
        <pt x="318" y="537" on="0"/>
        <pt x="305" y="553" on="0"/>
        <pt x="305" y="573" on="1"/>
        <pt x="305" y="586" on="0"/>
        <pt x="310" y="600" on="0"/>
        <pt x="317" y="606" on="0"/>
        <pt x="327" y="611" on="1"/>
        <pt x="483" y="611" on="1"/>
        <pt x="495" y="604" on="0"/>
        <pt x="505" y="590" on="0"/>
        <pt x="505" y="573" on="1"/>
        <pt x="505" y="549" on="0"/>
        <pt x="488" y="538" on="1"/>
        <pt x="481" y="535" on="0"/>
        <pt x="460" y="535" on="1"/>
        <pt x="438" y="535" on="1"/>
        <pt x="416" y="486" on="0"/>
        <pt x="326" y="293" on="0"/>
        <pt x="304" y="245" on="1"/>
        <pt x="304" y="76" on="1"/>
        <pt x="325" y="76" on="1"/>
        <pt x="344" y="76" on="0"/>
        <pt x="352" y="73" on="1"/>
        <pt x="361" y="68" on="0"/>
        <pt x="366" y="59" on="1"/>
        <pt x="369" y="53" on="0"/>
        <pt x="369" y="38" on="1"/>
        <pt x="369" y="20" on="0"/>
        <pt x="360" y="6" on="0"/>
        <pt x="347" y="1" on="1"/>
      </contour>
    </TTGlyph>
    <TTGlyph name="Z" xMin="48" yMin="1" xMax="481" yMax="611">
      <contour>
        <pt x="71" y="1" on="1"/>
        <pt x="57" y="7" on="0"/>
        <pt x="48" y="20" on="0"/>
        <pt x="48" y="39" on="1"/>
        <pt x="48" y="55" on="0"/>
        <pt x="50" y="60" on="1"/>
        <pt x="51" y="65" on="0"/>
        <pt x="349" y="511" on="0"/>
        <pt x="354" y="517" on="1"/>
        <pt x="366" y="535" on="1"/>
        <pt x="144" y="535" on="1"/>
        <pt x="144" y="501" on="1"/>
        <pt x="144" y="470" on="0"/>
        <pt x="142" y="457" on="0"/>
        <pt x="135" y="450" on="1"/>
        <pt x="127" y="442" on="0"/>
        <pt x="102" y="442" on="1"/>
        <pt x="82" y="442" on="0"/>
        <pt x="78" y="444" on="1"/>
        <pt x="67" y="449" on="0"/>
        <pt x="62" y="461" on="1"/>
        <pt x="60" y="466" on="0"/>
        <pt x="60" y="527" on="1"/>
        <pt x="61" y="589" on="1"/>
        <pt x="69" y="606" on="0"/>
        <pt x="83" y="610" on="1"/>
        <pt x="88" y="610" on="1"/>
        <pt x="93" y="610" on="0"/>
        <pt x="112" y="610" on="0"/>
        <pt x="137" y="610" on="0"/>
        <pt x="171" y="611" on="0"/>
        <pt x="206" y="611" on="0"/>
        <pt x="249" y="611" on="0"/>
        <pt x="270" y="611" on="1"/>
        <pt x="454" y="611" on="1"/>
        <pt x="456" y="609" on="0"/>
        <pt x="467" y="602" on="0"/>
        <pt x="469" y="599" on="0"/>
        <pt x="475" y="591" on="0"/>
        <pt x="476" y="580" on="0"/>
        <pt x="476" y="572" on="1"/>
        <pt x="476" y="556" on="0"/>
        <pt x="474" y="551" on="1"/>
        <pt x="473" y="546" on="0"/>
        <pt x="175" y="100" on="0"/>
        <pt x="170" y="94" on="1"/>
        <pt x="158" y="76" on="1"/>
        <pt x="397" y="76" on="1"/>
        <pt x="397" y="120" on="1"/>
        <pt x="397" y="164" on="0"/>
        <pt x="399" y="169" on="1"/>
        <pt x="404" y="181" on="0"/>
        <pt x="415" y="186" on="1"/>
        <pt x="421" y="189" on="0"/>
        <pt x="457" y="189" on="0"/>
        <pt x="463" y="186" on="1"/>
        <pt x="474" y="181" on="0"/>
        <pt x="479" y="169" on="1"/>
        <pt x="481" y="164" on="0"/>
        <pt x="481" y="95" on="1"/>
        <pt x="481" y="25" on="0"/>
        <pt x="479" y="20" on="1"/>
        <pt x="473" y="7" on="0"/>
        <pt x="459" y="1" on="1"/>
      </contour>
    </TTGlyph>
    <TTGlyph name="a" xMin="48" yMin="-6" xMax="524" yMax="439">
      <contour>
        <pt x="126" y="306" on="1"/>
        <pt x="104" y="306" on="0"/>
        <pt x="74" y="337" on="0"/>
        <pt x="74" y="359" on="1"/>
        <pt x="74" y="388" on="0"/>
        <pt x="95" y="408" on="1"/>
        <pt x="126" y="439" on="0"/>
        <pt x="211" y="439" on="1"/>
        <pt x="268" y="439" on="0"/>
        <pt x="276" y="438" on="1"/>
        <pt x="335" y="428" on="0"/>
        <pt x="422" y="358" on="0"/>
        <pt x="430" y="306" on="1"/>
        <pt x="431" y="301" on="0"/>
        <pt x="431" y="190" on="1"/>
        <pt x="431" y="81" on="1"/>
        <pt x="472" y="76" on="0"/>
        <pt x="478" y="76" on="1"/>
        <pt x="508" y="75" on="0"/>
        <pt x="515" y="67" on="1"/>
        <pt x="524" y="57" on="0"/>
        <pt x="524" y="38" on="1"/>
        <pt x="524" y="11" on="0"/>
        <pt x="506" y="3" on="1"/>
        <pt x="502" y="1" on="0"/>
        <pt x="466" y="1" on="1"/>
        <pt x="422" y="1" on="0"/>
        <pt x="382" y="9" on="0"/>
        <pt x="366" y="24" on="1"/>
        <pt x="363" y="27" on="0"/>
        <pt x="356" y="35" on="0"/>
        <pt x="355" y="36" on="1"/>
        <pt x="345" y="30" on="1"/>
        <pt x="284" y="-6" on="0"/>
        <pt x="205" y="-6" on="1"/>
        <pt x="138" y="-6" on="0"/>
        <pt x="48" y="81" on="0"/>
        <pt x="48" y="141" on="1"/>
        <pt x="48" y="176" on="0"/>
        <pt x="91" y="229" on="0"/>
        <pt x="164" y="260" on="0"/>
        <pt x="241" y="278" on="0"/>
        <pt x="285" y="282" on="1"/>
        <pt x="327" y="285" on="0"/>
        <pt x="342" y="285" on="1"/>
        <pt x="347" y="285" on="1"/>
        <pt x="347" y="290" on="1"/>
        <pt x="347" y="315" on="0"/>
        <pt x="302" y="355" on="0"/>
        <pt x="267" y="362" on="1"/>
        <pt x="258" y="363" on="0"/>
        <pt x="224" y="363" on="1"/>
        <pt x="189" y="363" on="0"/>
        <pt x="185" y="362" on="1"/>
        <pt x="179" y="362" on="1"/>
        <pt x="175" y="340" on="0"/>
        <pt x="172" y="333" on="1"/>
        <pt x="158" y="306" on="0"/>
      </contour>
      <contour>
        <pt x="347" y="175" on="1"/>
        <pt x="347" y="211" on="1"/>
        <pt x="339" y="211" on="1"/>
        <pt x="210" y="208" on="0"/>
        <pt x="153" y="171" on="1"/>
        <pt x="132" y="157" on="0"/>
        <pt x="132" y="140" on="1"/>
        <pt x="132" y="110" on="0"/>
        <pt x="186" y="70" on="0"/>
        <pt x="224" y="70" on="1"/>
        <pt x="269" y="70" on="0"/>
        <pt x="335" y="105" on="0"/>
        <pt x="344" y="133" on="1"/>
        <pt x="346" y="139" on="0"/>
      </contour>
    </TTGlyph>
    <TTGlyph name="acutecomb" xMin="-331" yMin="485" xMax="-117" yMax="611">
      <contour>
        <pt x="-297" y="485" on="1"/>
        <pt x="-312" y="485" on="0"/>
        <pt x="-331" y="521" on="0"/>
        <pt x="-331" y="537" on="1"/>
        <pt x="-331" y="556" on="0"/>
        <pt x="-316" y="563" on="1"/>
        <pt x="-307" y="569" on="0"/>
        <pt x="-170" y="610" on="1"/>
        <pt x="-169" y="610" on="0"/>
        <pt x="-160" y="611" on="0"/>
        <pt x="-157" y="611" on="1"/>
        <pt x="-139" y="609" on="0"/>
        <pt x="-117" y="585" on="0"/>
        <pt x="-117" y="569" on="1"/>
        <pt x="-117" y="558" on="0"/>
        <pt x="-129" y="536" on="0"/>
        <pt x="-138" y="533" on="1"/>
        <pt x="-141" y="530" on="0"/>
        <pt x="-215" y="508" on="1"/>
        <pt x="-287" y="485" on="0"/>
      </contour>
    </TTGlyph>
    <TTGlyph name="ampersand" xMin="28" yMin="-11" xMax="490" yMax="622">
      <contour>
        <pt x="96" y="462" on="1"/>
        <pt x="96" y="531" on="0"/>
        <pt x="156" y="622" on="0"/>
        <pt x="211" y="622" on="1"/>
        <pt x="229" y="622" on="0"/>
        <pt x="251" y="612" on="1"/>
        <pt x="280" y="598" on="0"/>
        <pt x="314" y="524" on="0"/>
        <pt x="314" y="474" on="1"/>
        <pt x="314" y="421" on="0"/>
        <pt x="280" y="372" on="1"/>
        <pt x="259" y="340" on="0"/>
        <pt x="224" y="305" on="1"/>
        <pt x="208" y="288" on="1"/>
        <pt x="220" y="252" on="0"/>
        <pt x="269" y="179" on="1"/>
        <pt x="276" y="191" on="0"/>
        <pt x="299" y="246" on="1"/>
        <pt x="329" y="326" on="0"/>
        <pt x="332" y="333" on="1"/>
        <pt x="342" y="363" on="1"/>
        <pt x="342" y="364" on="0"/>
        <pt x="341" y="365" on="1"/>
        <pt x="340" y="365" on="0"/>
        <pt x="336" y="371" on="1"/>
        <pt x="334" y="376" on="0"/>
        <pt x="334" y="393" on="1"/>
        <pt x="334" y="412" on="0"/>
        <pt x="342" y="424" on="0"/>
        <pt x="356" y="431" on="1"/>
        <pt x="412" y="431" on="1"/>
        <pt x="466" y="431" on="0"/>
        <pt x="472" y="428" on="1"/>
        <pt x="490" y="421" on="0"/>
        <pt x="490" y="365" on="0"/>
        <pt x="472" y="358" on="1"/>
        <pt x="466" y="355" on="0"/>
        <pt x="441" y="355" on="1"/>
        <pt x="415" y="355" on="1"/>
        <pt x="399" y="312" on="1"/>
        <pt x="349" y="176" on="0"/>
        <pt x="322" y="127" on="1"/>
        <pt x="315" y="115" on="1"/>
        <pt x="323" y="106" on="1"/>
        <pt x="359" y="65" on="0"/>
        <pt x="393" y="65" on="1"/>
        <pt x="404" y="65" on="0"/>
        <pt x="416" y="93" on="0"/>
        <pt x="416" y="109" on="1"/>
        <pt x="416" y="140" on="0"/>
        <pt x="452" y="140" on="1"/>
        <pt x="472" y="140" on="0"/>
        <pt x="487" y="122" on="0"/>
        <pt x="487" y="102" on="1"/>
        <pt x="482" y="24" on="0"/>
        <pt x="428" y="-3" on="1"/>
        <pt x="412" y="-11" on="0"/>
        <pt x="391" y="-11" on="1"/>
        <pt x="286" y="41" on="1"/>
        <pt x="273" y="53" on="1"/>
        <pt x="262" y="42" on="1"/>
        <pt x="211" y="-11" on="0"/>
        <pt x="151" y="-11" on="1"/>
        <pt x="112" y="-11" on="0"/>
        <pt x="52" y="37" on="0"/>
        <pt x="38" y="81" on="1"/>
        <pt x="28" y="114" on="0"/>
        <pt x="28" y="143" on="1"/>
        <pt x="28" y="191" on="0"/>
        <pt x="49" y="230" on="1"/>
        <pt x="58" y="248" on="0"/>
        <pt x="94" y="283" on="1"/>
        <pt x="122" y="311" on="1"/>
        <pt x="119" y="323" on="1"/>
        <pt x="96" y="394" on="0"/>
      </contour>
      <contour>
        <pt x="243" y="474" on="1"/>
        <pt x="243" y="532" on="0"/>
        <pt x="218" y="545" on="1"/>
        <pt x="215" y="546" on="1"/>
        <pt x="212" y="546" on="0"/>
        <pt x="210" y="546" on="1"/>
        <pt x="182" y="546" on="0"/>
        <pt x="169" y="501" on="1"/>
        <pt x="167" y="492" on="0"/>
        <pt x="167" y="466" on="1"/>
        <pt x="167" y="420" on="0"/>
        <pt x="179" y="368" on="1"/>
        <pt x="188" y="377" on="1"/>
        <pt x="234" y="425" on="0"/>
        <pt x="242" y="461" on="1"/>
        <pt x="243" y="465" on="0"/>
      </contour>
      <contour>
        <pt x="217" y="129" on="1"/>
        <pt x="179" y="186" on="0"/>
        <pt x="154" y="235" on="1"/>
        <pt x="152" y="235" on="0"/>
        <pt x="129" y="210" on="0"/>
        <pt x="126" y="206" on="1"/>
        <pt x="113" y="184" on="0"/>
        <pt x="113" y="143" on="1"/>
        <pt x="113" y="82" on="0"/>
        <pt x="139" y="67" on="1"/>
        <pt x="141" y="66" on="0"/>
        <pt x="152" y="66" on="1"/>
        <pt x="191" y="66" on="0"/>
        <pt x="228" y="112" on="1"/>
      </contour>
    </TTGlyph>
    <TTGlyph name="asciicircum" xMin="96" yMin="460" xMax="428" yMax="611">
      <contour>
        <pt x="253" y="609" on="1"/>
        <pt x="256" y="611" on="0"/>
        <pt x="264" y="611" on="1"/>
        <pt x="272" y="610" on="0"/>
        <pt x="343" y="574" on="1"/>
        <pt x="359" y="566" on="0"/>
        <pt x="398" y="545" on="0"/>
        <pt x="417" y="535" on="0"/>
        <pt x="418" y="534" on="1"/>
        <pt x="428" y="528" on="0"/>
        <pt x="428" y="512" on="1"/>
        <pt x="428" y="502" on="0"/>
        <pt x="419" y="486" on="1"/>
        <pt x="410" y="469" on="0"/>
        <pt x="400" y="464" on="1"/>
        <pt x="392" y="460" on="0"/>
        <pt x="386" y="460" on="1"/>
        <pt x="381" y="460" on="0"/>
        <pt x="375" y="463" on="1"/>
        <pt x="374" y="463" on="0"/>
        <pt x="263" y="526" on="0"/>
        <pt x="262" y="526" on="1"/>
        <pt x="261" y="525" on="0"/>
        <pt x="150" y="463" on="0"/>
        <pt x="149" y="463" on="1"/>
        <pt x="143" y="460" on="0"/>
        <pt x="138" y="460" on="1"/>
        <pt x="132" y="460" on="0"/>
        <pt x="124" y="464" on="1"/>
        <pt x="114" y="469" on="0"/>
        <pt x="105" y="486" on="1"/>
        <pt x="96" y="502" on="0"/>
        <pt x="96" y="512" on="1"/>
        <pt x="96" y="528" on="0"/>
        <pt x="106" y="534" on="1"/>
        <pt x="109" y="536" on="0"/>
        <pt x="247" y="607" on="0"/>
      </contour>
    </TTGlyph>
    <TTGlyph name="asciitilde" xMin="87" yMin="466" xMax="437" yMax="611">
      <contour>
        <pt x="209" y="609" on="1"/>
        <pt x="219" y="611" on="0"/>
        <pt x="224" y="611" on="1"/>
        <pt x="259" y="611" on="0"/>
        <pt x="287" y="570" on="1"/>
        <pt x="300" y="551" on="0"/>
        <pt x="304" y="551" on="1"/>
        <pt x="319" y="551" on="0"/>
        <pt x="367" y="594" on="1"/>
        <pt x="383" y="610" on="0"/>
        <pt x="396" y="610" on="1"/>
        <pt x="400" y="610" on="1"/>
        <pt x="410" y="610" on="0"/>
        <pt x="424" y="596" on="1"/>
        <pt x="437" y="582" on="0"/>
        <pt x="437" y="568" on="1"/>
        <pt x="436" y="557" on="0"/>
        <pt x="413" y="534" on="1"/>
        <pt x="348" y="469" on="0"/>
        <pt x="305" y="466" on="1"/>
        <pt x="286" y="466" on="0"/>
        <pt x="273" y="473" on="1"/>
        <pt x="255" y="481" on="0"/>
        <pt x="237" y="507" on="1"/>
        <pt x="224" y="526" on="0"/>
        <pt x="220" y="526" on="1"/>
        <pt x="205" y="526" on="0"/>
        <pt x="157" y="483" on="1"/>
        <pt x="141" y="467" on="0"/>
        <pt x="129" y="467" on="1"/>
        <pt x="125" y="467" on="1"/>
        <pt x="114" y="467" on="0"/>
        <pt x="100" y="481" on="1"/>
        <pt x="87" y="495" on="0"/>
        <pt x="87" y="509" on="1"/>
        <pt x="88" y="520" on="0"/>
        <pt x="111" y="543" on="1"/>
        <pt x="172" y="602" on="0"/>
      </contour>
    </TTGlyph>
    <TTGlyph name="asterisk" xMin="68" yMin="90" xMax="456" yMax="520">
      <contour>
        <pt x="222" y="487" on="1"/>
        <pt x="224" y="501" on="0"/>
        <pt x="246" y="520" on="0"/>
        <pt x="278" y="520" on="0"/>
        <pt x="300" y="501" on="0"/>
        <pt x="302" y="487" on="1"/>
        <pt x="302" y="458" on="0"/>
        <pt x="301" y="429" on="1"/>
        <pt x="301" y="421" on="0"/>
        <pt x="301" y="404" on="0"/>
        <pt x="300" y="391" on="0"/>
        <pt x="300" y="380" on="0"/>
        <pt x="300" y="377" on="1"/>
        <pt x="300" y="374" on="1"/>
        <pt x="300" y="373" on="0"/>
        <pt x="301" y="373" on="1"/>
        <pt x="303" y="373" on="0"/>
        <pt x="347" y="398" on="0"/>
        <pt x="396" y="428" on="0"/>
        <pt x="400" y="430" on="1"/>
        <pt x="410" y="434" on="0"/>
        <pt x="416" y="434" on="1"/>
        <pt x="432" y="434" on="0"/>
        <pt x="456" y="411" on="0"/>
        <pt x="456" y="393" on="1"/>
        <pt x="456" y="372" on="0"/>
        <pt x="441" y="361" on="1"/>
        <pt x="437" y="359" on="0"/>
        <pt x="340" y="306" on="0"/>
        <pt x="339" y="305" on="1"/>
        <pt x="388" y="279" on="1"/>
        <pt x="400" y="273" on="0"/>
        <pt x="425" y="259" on="0"/>
        <pt x="440" y="250" on="0"/>
        <pt x="441" y="250" on="1"/>
        <pt x="456" y="238" on="0"/>
        <pt x="456" y="218" on="1"/>
        <pt x="456" y="200" on="0"/>
        <pt x="433" y="177" on="0"/>
        <pt x="417" y="177" on="1"/>
        <pt x="408" y="177" on="0"/>
        <pt x="400" y="181" on="1"/>
        <pt x="388" y="187" on="0"/>
        <pt x="339" y="216" on="0"/>
        <pt x="304" y="238" on="0"/>
        <pt x="301" y="238" on="1"/>
        <pt x="300" y="238" on="0"/>
        <pt x="300" y="237" on="1"/>
        <pt x="300" y="234" on="1"/>
        <pt x="300" y="231" on="0"/>
        <pt x="300" y="220" on="0"/>
        <pt x="301" y="207" on="0"/>
        <pt x="301" y="190" on="0"/>
        <pt x="301" y="182" on="1"/>
        <pt x="302" y="153" on="0"/>
        <pt x="302" y="124" on="1"/>
        <pt x="300" y="109" on="0"/>
        <pt x="277" y="90" on="0"/>
        <pt x="262" y="90" on="1"/>
        <pt x="246" y="90" on="0"/>
        <pt x="224" y="110" on="0"/>
        <pt x="222" y="124" on="1"/>
        <pt x="222" y="153" on="0"/>
        <pt x="223" y="182" on="1"/>
        <pt x="223" y="190" on="0"/>
        <pt x="223" y="207" on="0"/>
        <pt x="224" y="220" on="0"/>
        <pt x="224" y="231" on="0"/>
        <pt x="224" y="234" on="1"/>
        <pt x="224" y="237" on="1"/>
        <pt x="224" y="238" on="0"/>
        <pt x="223" y="238" on="1"/>
        <pt x="221" y="238" on="0"/>
        <pt x="177" y="213" on="0"/>
        <pt x="128" y="183" on="0"/>
        <pt x="124" y="181" on="1"/>
        <pt x="114" y="177" on="0"/>
        <pt x="108" y="177" on="1"/>
        <pt x="92" y="177" on="0"/>
        <pt x="68" y="200" on="0"/>
        <pt x="68" y="218" on="1"/>
        <pt x="68" y="239" on="0"/>
        <pt x="83" y="250" on="1"/>
        <pt x="84" y="250" on="0"/>
        <pt x="98" y="258" on="0"/>
        <pt x="123" y="271" on="0"/>
        <pt x="134" y="277" on="1"/>
        <pt x="182" y="303" on="0"/>
        <pt x="185" y="306" on="1"/>
        <pt x="136" y="332" on="1"/>
        <pt x="124" y="338" on="0"/>
        <pt x="99" y="352" on="0"/>
        <pt x="84" y="361" on="0"/>
        <pt x="83" y="361" on="1"/>
        <pt x="68" y="373" on="0"/>
        <pt x="68" y="393" on="1"/>
        <pt x="68" y="411" on="0"/>
        <pt x="91" y="434" on="0"/>
        <pt x="107" y="434" on="1"/>
        <pt x="116" y="434" on="0"/>
        <pt x="124" y="430" on="1"/>
        <pt x="136" y="424" on="0"/>
        <pt x="185" y="395" on="0"/>
        <pt x="220" y="373" on="0"/>
        <pt x="223" y="373" on="1"/>
        <pt x="224" y="373" on="0"/>
        <pt x="224" y="374" on="1"/>
        <pt x="224" y="377" on="1"/>
        <pt x="224" y="380" on="0"/>
        <pt x="224" y="391" on="0"/>
        <pt x="223" y="404" on="0"/>
        <pt x="223" y="421" on="0"/>
        <pt x="223" y="429" on="1"/>
        <pt x="222" y="458" on="0"/>
      </contour>
    </TTGlyph>
    <TTGlyph name="at" xMin="44" yMin="-6" xMax="481" yMax="617">
      <contour>
        <pt x="44" y="306" on="1"/>
        <pt x="44" y="429" on="0"/>
        <pt x="180" y="605" on="0"/>
        <pt x="283" y="616" on="1"/>
        <pt x="289" y="617" on="0"/>
        <pt x="302" y="617" on="1"/>
        <pt x="325" y="617" on="0"/>
        <pt x="346" y="611" on="1"/>
        <pt x="481" y="576" on="0"/>
        <pt x="481" y="321" on="1"/>
        <pt x="481" y="203" on="0"/>
        <pt x="421" y="143" on="1"/>
        <pt x="381" y="103" on="0"/>
        <pt x="332" y="103" on="1"/>
        <pt x="281" y="103" on="0"/>
        <pt x="207" y="181" on="0"/>
        <pt x="193" y="234" on="1"/>
        <pt x="183" y="267" on="0"/>
        <pt x="183" y="307" on="1"/>
        <pt x="183" y="384" on="0"/>
        <pt x="217" y="434" on="1"/>
        <pt x="263" y="508" on="0"/>
        <pt x="332" y="508" on="1"/>
        <pt x="360" y="508" on="0"/>
        <pt x="378" y="498" on="1"/>
        <pt x="364" y="518" on="0"/>
        <pt x="357" y="523" on="1"/>
        <pt x="332" y="541" on="0"/>
        <pt x="304" y="541" on="1"/>
        <pt x="240" y="541" on="0"/>
        <pt x="185" y="488" on="1"/>
        <pt x="115" y="416" on="0"/>
        <pt x="115" y="305" on="1"/>
        <pt x="115" y="195" on="0"/>
        <pt x="185" y="123" on="1"/>
        <pt x="226" y="83" on="0"/>
        <pt x="277" y="73" on="1"/>
        <pt x="285" y="71" on="0"/>
        <pt x="306" y="71" on="1"/>
        <pt x="360" y="71" on="0"/>
        <pt x="397" y="105" on="1"/>
        <pt x="409" y="115" on="0"/>
        <pt x="436" y="115" on="1"/>
        <pt x="458" y="115" on="0"/>
        <pt x="462" y="113" on="1"/>
        <pt x="481" y="106" on="0"/>
        <pt x="481" y="86" on="1"/>
        <pt x="481" y="73" on="0"/>
        <pt x="468" y="61" on="1"/>
        <pt x="416" y="9" on="0"/>
        <pt x="343" y="-3" on="1"/>
        <pt x="328" y="-6" on="0"/>
        <pt x="305" y="-6" on="1"/>
        <pt x="291" y="-6" on="0"/>
        <pt x="286" y="-5" on="1"/>
        <pt x="183" y="6" on="0"/>
        <pt x="44" y="180" on="0"/>
      </contour>
      <contour>
        <pt x="410" y="263" on="0"/>
        <pt x="410" y="349" on="0"/>
        <pt x="375" y="419" on="0"/>
        <pt x="348" y="429" on="1"/>
        <pt x="343" y="431" on="0"/>
        <pt x="333" y="431" on="1"/>
        <pt x="319" y="431" on="0"/>
        <pt x="311" y="427" on="1"/>
        <pt x="285" y="414" on="0"/>
        <pt x="254" y="346" on="0"/>
        <pt x="254" y="305" on="1"/>
        <pt x="254" y="262" on="0"/>
        <pt x="289" y="192" on="0"/>
        <pt x="316" y="182" on="1"/>
        <pt x="320" y="180" on="0"/>
        <pt x="344" y="180" on="0"/>
        <pt x="348" y="182" on="1"/>
        <pt x="376" y="193" on="0"/>
      </contour>
    </TTGlyph>
    <TTGlyph name="b" xMin="4" yMin="-6" xMax="492" yMax="611">
      <contour>
        <pt x="293" y="-6" on="1"/>
        <pt x="226" y="-6" on="0"/>
        <pt x="174" y="38" on="1"/>
        <pt x="171" y="16" on="0"/>
        <pt x="164" y="9" on="1"/>
        <pt x="156" y="1" on="0"/>
        <pt x="131" y="1" on="1"/>
        <pt x="111" y="1" on="0"/>
        <pt x="107" y="3" on="1"/>
        <pt x="95" y="9" on="0"/>
        <pt x="90" y="23" on="1"/>
        <pt x="89" y="279" on="1"/>
        <pt x="89" y="535" on="1"/>
        <pt x="58" y="535" on="1"/>
        <pt x="27" y="536" on="1"/>
        <pt x="4" y="543" on="0"/>
        <pt x="4" y="573" on="1"/>
        <pt x="4" y="602" on="0"/>
        <pt x="27" y="610" on="1"/>
        <pt x="28" y="611" on="0"/>
        <pt x="90" y="611" on="1"/>
        <pt x="149" y="611" on="0"/>
        <pt x="155" y="608" on="1"/>
        <pt x="166" y="603" on="0"/>
        <pt x="171" y="591" on="1"/>
        <pt x="173" y="586" on="0"/>
        <pt x="173" y="491" on="1"/>
        <pt x="173" y="396" on="1"/>
        <pt x="182" y="402" on="1"/>
        <pt x="217" y="424" on="0"/>
        <pt x="256" y="431" on="1"/>
        <pt x="280" y="437" on="0"/>
        <pt x="309" y="437" on="1"/>
        <pt x="360" y="437" on="0"/>
        <pt x="407" y="403" on="1"/>
        <pt x="429" y="386" on="0"/>
        <pt x="441" y="369" on="1"/>
        <pt x="492" y="308" on="0"/>
        <pt x="492" y="217" on="1"/>
        <pt x="492" y="189" on="0"/>
        <pt x="491" y="185" on="1"/>
        <pt x="481" y="121" on="0"/>
        <pt x="450" y="79" on="1"/>
        <pt x="422" y="40" on="0"/>
        <pt x="339" y="-6" on="0"/>
      </contour>
      <contour>
        <pt x="409" y="215" on="1"/>
        <pt x="409" y="274" on="0"/>
        <pt x="340" y="361" on="0"/>
        <pt x="283" y="361" on="1"/>
        <pt x="249" y="361" on="0"/>
        <pt x="191" y="324" on="0"/>
        <pt x="177" y="297" on="1"/>
        <pt x="173" y="290" on="1"/>
        <pt x="173" y="167" on="1"/>
        <pt x="189" y="123" on="0"/>
        <pt x="236" y="70" on="0"/>
        <pt x="278" y="70" on="1"/>
        <pt x="330" y="70" on="0"/>
        <pt x="409" y="153" on="0"/>
      </contour>
    </TTGlyph>
    <TTGlyph name="backslash" xMin="58" yMin="-83" xMax="466" yMax="694">
      <contour>
        <pt x="58" y="659" on="1"/>
        <pt x="58" y="673" on="0"/>
        <pt x="77" y="694" on="0"/>
        <pt x="93" y="694" on="1"/>
        <pt x="114" y="694" on="0"/>
        <pt x="125" y="673" on="1"/>
        <pt x="132" y="659" on="0"/>
        <pt x="462" y="-31" on="0"/>
        <pt x="464" y="-36" on="1"/>
        <pt x="466" y="-44" on="0"/>
        <pt x="466" y="-48" on="1"/>
        <pt x="466" y="-62" on="0"/>
        <pt x="446" y="-83" on="0"/>
        <pt x="431" y="-83" on="1"/>
        <pt x="410" y="-83" on="0"/>
        <pt x="399" y="-62" on="1"/>
        <pt x="391" y="-47" on="0"/>
        <pt x="61" y="643" on="0"/>
        <pt x="60" y="648" on="1"/>
        <pt x="58" y="656" on="0"/>
      </contour>
    </TTGlyph>
    <TTGlyph name="bar" xMin="228" yMin="-82" xMax="297" yMax="694">
      <contour>
        <pt x="228" y="668" on="1"/>
        <pt x="241" y="694" on="0"/>
        <pt x="262" y="694" on="1"/>
        <pt x="279" y="694" on="0"/>
        <pt x="297" y="668" on="1"/>
        <pt x="297" y="-57" on="1"/>
        <pt x="293" y="-63" on="1"/>
        <pt x="284" y="-82" on="0"/>
        <pt x="240" y="-82" on="0"/>
        <pt x="228" y="-57" on="1"/>
      </contour>
    </TTGlyph>
    <TTGlyph name="braceleft" xMin="50" yMin="-83" xMax="475" yMax="694">
      <contour>
        <pt x="430" y="-7" on="1"/>
        <pt x="457" y="-7" on="0"/>
        <pt x="475" y="-22" on="0"/>
        <pt x="475" y="-45" on="1"/>
        <pt x="475" y="-74" on="0"/>
        <pt x="456" y="-81" on="1"/>
        <pt x="451" y="-83" on="0"/>
        <pt x="419" y="-83" on="1"/>
        <pt x="379" y="-82" on="0"/>
        <pt x="350" y="-78" on="1"/>
        <pt x="243" y="-62" on="0"/>
        <pt x="223" y="7" on="1"/>
        <pt x="221" y="17" on="1"/>
        <pt x="220" y="118" on="1"/>
        <pt x="220" y="220" on="1"/>
        <pt x="217" y="225" on="1"/>
        <pt x="202" y="256" on="0"/>
        <pt x="127" y="265" on="1"/>
        <pt x="123" y="266" on="0"/>
        <pt x="69" y="269" on="0"/>
        <pt x="67" y="270" on="1"/>
        <pt x="57" y="273" on="0"/>
        <pt x="52" y="283" on="1"/>
        <pt x="50" y="288" on="0"/>
        <pt x="50" y="306" on="1"/>
        <pt x="50" y="323" on="0"/>
        <pt x="52" y="328" on="1"/>
        <pt x="57" y="338" on="0"/>
        <pt x="67" y="341" on="1"/>
        <pt x="69" y="342" on="0"/>
        <pt x="123" y="345" on="0"/>
        <pt x="127" y="346" on="1"/>
        <pt x="202" y="355" on="0"/>
        <pt x="217" y="386" on="1"/>
        <pt x="220" y="392" on="1"/>
        <pt x="220" y="493" on="1"/>
        <pt x="221" y="595" on="1"/>
        <pt x="241" y="686" on="0"/>
        <pt x="395" y="693" on="1"/>
        <pt x="406" y="694" on="1"/>
        <pt x="418" y="694" on="0"/>
        <pt x="426" y="694" on="1"/>
        <pt x="458" y="694" on="0"/>
        <pt x="466" y="685" on="1"/>
        <pt x="475" y="676" on="0"/>
        <pt x="475" y="636" on="0"/>
        <pt x="466" y="627" on="1"/>
        <pt x="458" y="618" on="0"/>
        <pt x="430" y="618" on="1"/>
        <pt x="320" y="618" on="0"/>
        <pt x="305" y="587" on="1"/>
        <pt x="304" y="486" on="1"/>
        <pt x="304" y="387" on="0"/>
        <pt x="302" y="381" on="1"/>
        <pt x="291" y="335" on="0"/>
        <pt x="251" y="311" on="1"/>
        <pt x="243" y="306" on="1"/>
        <pt x="251" y="300" on="1"/>
        <pt x="291" y="276" on="0"/>
        <pt x="302" y="231" on="1"/>
        <pt x="304" y="223" on="0"/>
        <pt x="304" y="125" on="1"/>
        <pt x="305" y="25" on="1"/>
        <pt x="318" y="-7" on="0"/>
      </contour>
    </TTGlyph>
    <TTGlyph name="braceright" xMin="49" yMin="-83" xMax="475" yMax="694">
      <contour>
        <pt x="69" y="692" on="1"/>
        <pt x="73" y="694" on="0"/>
        <pt x="106" y="694" on="1"/>
        <pt x="145" y="693" on="0"/>
        <pt x="174" y="689" on="1"/>
        <pt x="232" y="680" on="0"/>
        <pt x="294" y="635" on="0"/>
        <pt x="303" y="595" on="1"/>
        <pt x="304" y="561" on="0"/>
        <pt x="304" y="426" on="0"/>
        <pt x="305" y="392" on="1"/>
        <pt x="317" y="355" on="0"/>
        <pt x="397" y="346" on="1"/>
        <pt x="400" y="346" on="0"/>
        <pt x="429" y="344" on="0"/>
        <pt x="455" y="342" on="0"/>
        <pt x="457" y="341" on="1"/>
        <pt x="475" y="335" on="0"/>
        <pt x="475" y="306" on="1"/>
        <pt x="475" y="290" on="0"/>
        <pt x="472" y="283" on="1"/>
        <pt x="467" y="273" on="0"/>
        <pt x="457" y="270" on="1"/>
        <pt x="455" y="269" on="0"/>
        <pt x="429" y="267" on="0"/>
        <pt x="400" y="265" on="0"/>
        <pt x="397" y="265" on="1"/>
        <pt x="319" y="256" on="0"/>
        <pt x="305" y="220" on="1"/>
        <pt x="304" y="186" on="0"/>
        <pt x="304" y="51" on="0"/>
        <pt x="303" y="17" on="1"/>
        <pt x="301" y="7" on="1"/>
        <pt x="281" y="-62" on="0"/>
        <pt x="174" y="-78" on="1"/>
        <pt x="146" y="-82" on="0"/>
        <pt x="106" y="-83" on="1"/>
        <pt x="78" y="-83" on="0"/>
        <pt x="65" y="-81" on="0"/>
        <pt x="58" y="-74" on="1"/>
        <pt x="49" y="-65" on="0"/>
        <pt x="49" y="-44" on="1"/>
        <pt x="49" y="-24" on="0"/>
        <pt x="58" y="-16" on="1"/>
        <pt x="66" y="-7" on="0"/>
        <pt x="94" y="-7" on="1"/>
        <pt x="202" y="-7" on="0"/>
        <pt x="217" y="20" on="1"/>
        <pt x="220" y="25" on="1"/>
        <pt x="220" y="125" on="1"/>
        <pt x="220" y="223" on="0"/>
        <pt x="222" y="231" on="1"/>
        <pt x="233" y="276" on="0"/>
        <pt x="273" y="300" on="1"/>
        <pt x="281" y="306" on="1"/>
        <pt x="277" y="308" on="0"/>
        <pt x="273" y="311" on="1"/>
        <pt x="233" y="335" on="0"/>
        <pt x="222" y="381" on="1"/>
        <pt x="220" y="387" on="0"/>
        <pt x="220" y="486" on="1"/>
        <pt x="220" y="587" on="1"/>
        <pt x="217" y="591" on="1"/>
        <pt x="202" y="618" on="0"/>
        <pt x="94" y="618" on="1"/>
        <pt x="66" y="618" on="0"/>
        <pt x="58" y="627" on="1"/>
        <pt x="49" y="635" on="0"/>
        <pt x="49" y="655" on="1"/>
        <pt x="49" y="676" on="0"/>
        <pt x="58" y="685" on="1"/>
        <pt x="64" y="691" on="0"/>
      </contour>
    </TTGlyph>
    <TTGlyph name="bracketleft" xMin="214" yMin="-82" xMax="483" yMax="694">
      <contour>
        <pt x="237" y="-82" on="1"/>
        <pt x="221" y="-78" on="0"/>
        <pt x="214" y="-58" on="1"/>
        <pt x="214" y="305" on="1"/>
        <pt x="214" y="669" on="0"/>
        <pt x="216" y="673" on="1"/>
        <pt x="221" y="688" on="0"/>
        <pt x="234" y="692" on="1"/>
        <pt x="239" y="694" on="0"/>
        <pt x="350" y="694" on="1"/>
        <pt x="461" y="694" on="1"/>
        <pt x="462" y="693" on="0"/>
        <pt x="469" y="688" on="0"/>
        <pt x="471" y="686" on="0"/>
        <pt x="476" y="682" on="0"/>
        <pt x="478" y="679" on="0"/>
        <pt x="481" y="673" on="0"/>
        <pt x="482" y="668" on="0"/>
        <pt x="483" y="660" on="0"/>
        <pt x="483" y="656" on="1"/>
        <pt x="483" y="628" on="0"/>
        <pt x="465" y="621" on="1"/>
        <pt x="459" y="618" on="0"/>
        <pt x="379" y="618" on="1"/>
        <pt x="298" y="618" on="1"/>
        <pt x="298" y="-7" on="1"/>
        <pt x="379" y="-7" on="1"/>
        <pt x="459" y="-7" on="0"/>
        <pt x="465" y="-10" on="1"/>
        <pt x="483" y="-18" on="0"/>
        <pt x="483" y="-72" on="0"/>
        <pt x="461" y="-82" on="1"/>
      </contour>
    </TTGlyph>
    <TTGlyph name="bracketright" xMin="41" yMin="-82" xMax="310" yMax="694">
      <contour>
        <pt x="64" y="-82" on="1"/>
        <pt x="41" y="-73" on="0"/>
        <pt x="41" y="-17" on="0"/>
        <pt x="59" y="-10" on="1"/>
        <pt x="65" y="-7" on="0"/>
        <pt x="145" y="-7" on="1"/>
        <pt x="226" y="-7" on="1"/>
        <pt x="226" y="618" on="1"/>
        <pt x="145" y="618" on="1"/>
        <pt x="65" y="618" on="0"/>
        <pt x="59" y="621" on="1"/>
        <pt x="41" y="628" on="0"/>
        <pt x="41" y="656" on="1"/>
        <pt x="41" y="685" on="0"/>
        <pt x="61" y="692" on="1"/>
        <pt x="66" y="694" on="0"/>
        <pt x="177" y="694" on="1"/>
        <pt x="288" y="694" on="1"/>
        <pt x="306" y="685" on="0"/>
        <pt x="310" y="669" on="1"/>
        <pt x="310" y="-58" on="1"/>
        <pt x="305" y="-76" on="0"/>
        <pt x="288" y="-82" on="1"/>
      </contour>
    </TTGlyph>
    <TTGlyph name="c" xMin="66" yMin="-6" xMax="466" yMax="440">
      <contour>
        <pt x="291" y="-6" on="1"/>
        <pt x="201" y="-6" on="0"/>
        <pt x="66" y="120" on="0"/>
        <pt x="66" y="216" on="1"/>
        <pt x="66" y="296" on="0"/>
        <pt x="119" y="361" on="1"/>
        <pt x="175" y="427" on="0"/>
        <pt x="262" y="438" on="1"/>
        <pt x="266" y="439" on="0"/>
        <pt x="273" y="439" on="1"/>
        <pt x="275" y="440" on="0"/>
        <pt x="293" y="440" on="1"/>
        <pt x="349" y="440" on="0"/>
        <pt x="413" y="428" on="0"/>
        <pt x="433" y="409" on="1"/>
        <pt x="454" y="388" on="0"/>
        <pt x="454" y="359" on="1"/>
        <pt x="454" y="337" on="0"/>
        <pt x="424" y="306" on="0"/>
        <pt x="402" y="306" on="1"/>
        <pt x="381" y="306" on="0"/>
        <pt x="350" y="336" on="0"/>
        <pt x="350" y="357" on="1"/>
        <pt x="350" y="362" on="1"/>
        <pt x="340" y="363" on="1"/>
        <pt x="339" y="363" on="0"/>
        <pt x="312" y="364" on="0"/>
        <pt x="303" y="364" on="1"/>
        <pt x="280" y="364" on="0"/>
        <pt x="266" y="362" on="1"/>
        <pt x="215" y="351" on="0"/>
        <pt x="151" y="273" on="0"/>
        <pt x="151" y="215" on="1"/>
        <pt x="151" y="152" on="0"/>
        <pt x="249" y="70" on="0"/>
        <pt x="313" y="70" on="1"/>
        <pt x="364" y="70" on="0"/>
        <pt x="382" y="122" on="1"/>
        <pt x="388" y="137" on="0"/>
        <pt x="403" y="146" on="0"/>
        <pt x="424" y="146" on="1"/>
        <pt x="443" y="146" on="0"/>
        <pt x="447" y="144" on="1"/>
        <pt x="466" y="137" on="0"/>
        <pt x="466" y="117" on="1"/>
        <pt x="466" y="106" on="0"/>
        <pt x="456" y="86" on="1"/>
        <pt x="410" y="-6" on="0"/>
      </contour>
    </TTGlyph>
    <TTGlyph name="colon" xMin="193" yMin="1" xMax="332" yMax="431">
      <contour>
        <pt x="193" y="361" on="1"/>
        <pt x="193" y="391" on="0"/>
        <pt x="231" y="431" on="0"/>
        <pt x="258" y="431" on="1"/>
        <pt x="290" y="431" on="0"/>
        <pt x="332" y="393" on="0"/>
        <pt x="332" y="361" on="1"/>
        <pt x="332" y="330" on="0"/>
        <pt x="293" y="292" on="0"/>
        <pt x="262" y="292" on="1"/>
        <pt x="230" y="292" on="0"/>
        <pt x="193" y="330" on="0"/>
      </contour>
      <contour>
        <pt x="193" y="70" on="1"/>
        <pt x="193" y="100" on="0"/>
        <pt x="231" y="140" on="0"/>
        <pt x="258" y="140" on="1"/>
        <pt x="290" y="140" on="0"/>
        <pt x="332" y="102" on="0"/>
        <pt x="332" y="70" on="1"/>
        <pt x="332" y="39" on="0"/>
        <pt x="293" y="1" on="0"/>
        <pt x="262" y="1" on="1"/>
        <pt x="230" y="1" on="0"/>
        <pt x="193" y="38" on="0"/>
      </contour>
    </TTGlyph>
    <TTGlyph name="comma" xMin="174" yMin="-139" xMax="353" yMax="140">
      <contour>
        <pt x="265" y="0" on="1"/>
        <pt x="232" y="0" on="0"/>
        <pt x="193" y="37" on="0"/>
        <pt x="193" y="70" on="1"/>
        <pt x="193" y="101" on="0"/>
        <pt x="230" y="140" on="0"/>
        <pt x="260" y="140" on="1"/>
        <pt x="301" y="140" on="0"/>
        <pt x="353" y="81" on="0"/>
        <pt x="353" y="36" on="1"/>
        <pt x="353" y="-28" on="0"/>
        <pt x="283" y="-118" on="0"/>
        <pt x="230" y="-136" on="1"/>
        <pt x="221" y="-139" on="0"/>
        <pt x="215" y="-139" on="1"/>
        <pt x="204" y="-139" on="0"/>
        <pt x="189" y="-125" on="1"/>
        <pt x="177" y="-111" on="0"/>
        <pt x="174" y="-101" on="1"/>
        <pt x="172" y="-84" on="0"/>
        <pt x="186" y="-74" on="1"/>
        <pt x="187" y="-73" on="0"/>
        <pt x="200" y="-68" on="1"/>
        <pt x="233" y="-57" on="0"/>
        <pt x="253" y="-33" on="1"/>
        <pt x="258" y="-28" on="0"/>
        <pt x="272" y="1" on="1"/>
      </contour>
    </TTGlyph>
    <TTGlyph name="d" xMin="31" yMin="-6" xMax="520" yMax="611">
      <contour>
        <pt x="31" y="216" on="1"/>
        <pt x="31" y="305" on="0"/>
        <pt x="143" y="437" on="0"/>
        <pt x="230" y="437" on="1"/>
        <pt x="292" y="437" on="0"/>
        <pt x="342" y="405" on="1"/>
        <pt x="351" y="399" on="1"/>
        <pt x="351" y="535" on="1"/>
        <pt x="320" y="535" on="1"/>
        <pt x="289" y="536" on="1"/>
        <pt x="266" y="543" on="0"/>
        <pt x="266" y="573" on="1"/>
        <pt x="266" y="602" on="0"/>
        <pt x="289" y="610" on="1"/>
        <pt x="290" y="611" on="0"/>
        <pt x="352" y="611" on="1"/>
        <pt x="411" y="611" on="0"/>
        <pt x="417" y="608" on="1"/>
        <pt x="427" y="603" on="0"/>
        <pt x="435" y="586" on="1"/>
        <pt x="435" y="76" on="1"/>
        <pt x="498" y="76" on="1"/>
        <pt x="520" y="63" on="0"/>
        <pt x="520" y="38" on="1"/>
        <pt x="520" y="10" on="0"/>
        <pt x="498" y="1" on="1"/>
        <pt x="436" y="1" on="1"/>
        <pt x="373" y="1" on="0"/>
        <pt x="369" y="3" on="1"/>
        <pt x="351" y="11" on="0"/>
        <pt x="351" y="34" on="1"/>
        <pt x="351" y="43" on="1"/>
        <pt x="342" y="36" on="1"/>
        <pt x="288" y="-6" on="0"/>
        <pt x="223" y="-6" on="1"/>
        <pt x="184" y="-6" on="0"/>
        <pt x="151" y="10" on="1"/>
        <pt x="97" y="35" on="0"/>
        <pt x="31" y="143" on="0"/>
      </contour>
      <contour>
        <pt x="115" y="215" on="1"/>
        <pt x="115" y="157" on="0"/>
        <pt x="184" y="70" on="0"/>
        <pt x="235" y="70" on="1"/>
        <pt x="303" y="70" on="0"/>
        <pt x="339" y="142" on="1"/>
        <pt x="342" y="148" on="0"/>
        <pt x="350" y="167" on="0"/>
        <pt x="351" y="170" on="1"/>
        <pt x="351" y="290" on="1"/>
        <pt x="334" y="340" on="0"/>
        <pt x="273" y="358" on="1"/>
        <pt x="261" y="361" on="0"/>
        <pt x="244" y="361" on="1"/>
        <pt x="233" y="361" on="0"/>
        <pt x="228" y="360" on="1"/>
        <pt x="180" y="352" on="0"/>
        <pt x="115" y="272" on="0"/>
      </contour>
    </TTGlyph>
    <TTGlyph name="dollar" xMin="58" yMin="-82" xMax="466" yMax="694">
      <contour>
        <pt x="466" y="453" on="1"/>
        <pt x="466" y="426" on="0"/>
        <pt x="438" y="396" on="0"/>
        <pt x="412" y="396" on="1"/>
        <pt x="390" y="396" on="0"/>
        <pt x="362" y="425" on="0"/>
        <pt x="362" y="448" on="1"/>
        <pt x="362" y="468" on="0"/>
        <pt x="376" y="485" on="1"/>
        <pt x="372" y="492" on="1"/>
        <pt x="355" y="525" on="0"/>
        <pt x="306" y="536" on="1"/>
        <pt x="300" y="538" on="1"/>
        <pt x="300" y="445" on="1"/>
        <pt x="301" y="353" on="1"/>
        <pt x="311" y="350" on="1"/>
        <pt x="401" y="329" on="0"/>
        <pt x="444" y="256" on="1"/>
        <pt x="466" y="218" on="0"/>
        <pt x="466" y="174" on="1"/>
        <pt x="466" y="103" on="0"/>
        <pt x="412" y="52" on="1"/>
        <pt x="368" y="11" on="0"/>
        <pt x="303" y="-2" on="1"/>
        <pt x="300" y="-3" on="1"/>
        <pt x="300" y="-30" on="1"/>
        <pt x="300" y="-64" on="0"/>
        <pt x="291" y="-74" on="1"/>
        <pt x="283" y="-82" on="0"/>
        <pt x="262" y="-82" on="1"/>
        <pt x="232" y="-82" on="0"/>
        <pt x="225" y="-60" on="1"/>
        <pt x="224" y="-32" on="1"/>
        <pt x="224" y="-4" on="1"/>
        <pt x="213" y="-2" on="1"/>
        <pt x="195" y="1" on="0"/>
        <pt x="176" y="8" on="1"/>
        <pt x="121" y="27" on="0"/>
        <pt x="59" y="113" on="0"/>
        <pt x="59" y="170" on="1"/>
        <pt x="59" y="188" on="0"/>
        <pt x="65" y="202" on="0"/>
        <pt x="74" y="213" on="1"/>
        <pt x="90" y="227" on="0"/>
        <pt x="110" y="227" on="1"/>
        <pt x="132" y="227" on="0"/>
        <pt x="162" y="196" on="0"/>
        <pt x="162" y="174" on="1"/>
        <pt x="162" y="158" on="0"/>
        <pt x="147" y="137" on="1"/>
        <pt x="170" y="82" on="0"/>
        <pt x="221" y="75" on="1"/>
        <pt x="224" y="74" on="1"/>
        <pt x="224" y="283" on="1"/>
        <pt x="213" y="285" on="1"/>
        <pt x="188" y="290" on="0"/>
        <pt x="160" y="303" on="1"/>
        <pt x="112" y="326" on="0"/>
        <pt x="58" y="404" on="0"/>
        <pt x="58" y="449" on="1"/>
        <pt x="58" y="532" on="0"/>
        <pt x="143" y="586" on="1"/>
        <pt x="146" y="587" on="0"/>
        <pt x="159" y="594" on="0"/>
        <pt x="161" y="595" on="1"/>
        <pt x="193" y="609" on="0"/>
        <pt x="224" y="614" on="1"/>
        <pt x="224" y="643" on="1"/>
        <pt x="224" y="670" on="0"/>
        <pt x="227" y="676" on="1"/>
        <pt x="236" y="694" on="0"/>
        <pt x="264" y="694" on="1"/>
        <pt x="283" y="693" on="0"/>
        <pt x="291" y="685" on="1"/>
        <pt x="300" y="675" on="0"/>
        <pt x="300" y="642" on="1"/>
        <pt x="300" y="615" on="1"/>
        <pt x="303" y="615" on="1"/>
        <pt x="326" y="611" on="0"/>
        <pt x="335" y="608" on="1"/>
        <pt x="430" y="585" on="0"/>
        <pt x="458" y="504" on="1"/>
        <pt x="466" y="478" on="0"/>
      </contour>
      <contour>
        <pt x="224" y="369" on="0"/>
        <pt x="224" y="537" on="0"/>
        <pt x="223" y="537" on="1"/>
        <pt x="206" y="534" on="0"/>
        <pt x="192" y="525" on="1"/>
        <pt x="157" y="508" on="0"/>
        <pt x="144" y="481" on="1"/>
        <pt x="137" y="468" on="0"/>
        <pt x="137" y="452" on="1"/>
        <pt x="137" y="407" on="0"/>
        <pt x="191" y="381" on="1"/>
        <pt x="213" y="369" on="0"/>
        <pt x="223" y="369" on="1"/>
      </contour>
      <contour>
        <pt x="387" y="171" on="1"/>
        <pt x="387" y="204" on="0"/>
        <pt x="339" y="254" on="0"/>
        <pt x="300" y="267" on="1"/>
        <pt x="300" y="171" on="1"/>
        <pt x="300" y="75" on="0"/>
        <pt x="301" y="75" on="1"/>
        <pt x="308" y="75" on="0"/>
        <pt x="328" y="86" on="1"/>
        <pt x="387" y="116" on="0"/>
      </contour>
    </TTGlyph>
    <TTGlyph name="dotlessi" xMin="72" yMin="1" xMax="462" yMax="431">
      <contour>
        <pt x="72" y="38" on="1"/>
        <pt x="72" y="55" on="0"/>
        <pt x="81" y="69" on="0"/>
        <pt x="94" y="76" on="1"/>
        <pt x="233" y="76" on="1"/>
        <pt x="233" y="355" on="1"/>
        <pt x="167" y="355" on="1"/>
        <pt x="102" y="356" on="1"/>
        <pt x="80" y="363" on="0"/>
        <pt x="80" y="423" on="0"/>
        <pt x="102" y="430" on="1"/>
        <pt x="103" y="431" on="0"/>
        <pt x="200" y="431" on="1"/>
        <pt x="295" y="431" on="1"/>
        <pt x="312" y="418" on="0"/>
        <pt x="315" y="411" on="1"/>
        <pt x="317" y="406" on="0"/>
        <pt x="317" y="241" on="1"/>
        <pt x="317" y="76" on="1"/>
        <pt x="378" y="76" on="1"/>
        <pt x="438" y="76" on="0"/>
        <pt x="444" y="73" on="1"/>
        <pt x="462" y="65" on="0"/>
        <pt x="462" y="38" on="1"/>
        <pt x="462" y="20" on="0"/>
        <pt x="453" y="8" on="0"/>
        <pt x="440" y="1" on="1"/>
        <pt x="94" y="1" on="1"/>
        <pt x="72" y="8" on="0"/>
      </contour>
    </TTGlyph>
    <TTGlyph name="e" xMin="48" yMin="-6" xMax="464" yMax="440">
      <contour>
        <pt x="248" y="439" on="1"/>
        <pt x="258" y="440" on="1"/>
        <pt x="268" y="440" on="0"/>
        <pt x="274" y="440" on="1"/>
        <pt x="359" y="438" on="0"/>
        <pt x="456" y="334" on="0"/>
        <pt x="463" y="247" on="1"/>
        <pt x="464" y="240" on="0"/>
        <pt x="464" y="228" on="1"/>
        <pt x="464" y="211" on="0"/>
        <pt x="454" y="197" on="0"/>
        <pt x="442" y="190" on="1"/>
        <pt x="288" y="189" on="1"/>
        <pt x="135" y="189" on="1"/>
        <pt x="138" y="179" on="1"/>
        <pt x="153" y="132" on="0"/>
        <pt x="243" y="71" on="0"/>
        <pt x="303" y="71" on="1"/>
        <pt x="362" y="71" on="0"/>
        <pt x="382" y="127" on="1"/>
        <pt x="387" y="138" on="0"/>
        <pt x="398" y="143" on="1"/>
        <pt x="404" y="146" on="0"/>
        <pt x="440" y="146" on="0"/>
        <pt x="446" y="143" on="1"/>
        <pt x="464" y="135" on="0"/>
        <pt x="464" y="116" on="1"/>
        <pt x="464" y="106" on="0"/>
        <pt x="453" y="85" on="1"/>
        <pt x="432" y="43" on="0"/>
        <pt x="341" y="-6" on="0"/>
        <pt x="285" y="-6" on="1"/>
        <pt x="210" y="-6" on="0"/>
        <pt x="88" y="75" on="0"/>
        <pt x="62" y="142" on="1"/>
        <pt x="48" y="176" on="0"/>
        <pt x="48" y="217" on="1"/>
        <pt x="48" y="279" on="0"/>
        <pt x="114" y="388" on="0"/>
        <pt x="170" y="416" on="1"/>
        <pt x="205" y="433" on="0"/>
      </contour>
      <contour>
        <pt x="377" y="264" on="1"/>
        <pt x="368" y="307" on="0"/>
        <pt x="331" y="353" on="0"/>
        <pt x="294" y="362" on="1"/>
        <pt x="288" y="363" on="0"/>
        <pt x="264" y="363" on="1"/>
        <pt x="215" y="363" on="0"/>
        <pt x="176" y="324" on="1"/>
        <pt x="150" y="299" on="0"/>
        <pt x="139" y="264" on="1"/>
      </contour>
    </TTGlyph>
    <TTGlyph name="eight" xMin="45" yMin="-10" xMax="479" yMax="621">
      <contour>
        <pt x="58" y="460" on="1"/>
        <pt x="58" y="524" on="0"/>
        <pt x="176" y="621" on="0"/>
        <pt x="254" y="621" on="1"/>
        <pt x="290" y="621" on="0"/>
        <pt x="298" y="620" on="1"/>
        <pt x="370" y="609" on="0"/>
        <pt x="466" y="519" on="0"/>
        <pt x="466" y="460" on="1"/>
        <pt x="466" y="416" on="0"/>
        <pt x="403" y="349" on="0"/>
        <pt x="359" y="334" on="1"/>
        <pt x="357" y="333" on="0"/>
        <pt x="354" y="332" on="1"/>
        <pt x="351" y="331" on="0"/>
        <pt x="350" y="330" on="1"/>
        <pt x="353" y="328" on="0"/>
        <pt x="359" y="326" on="1"/>
        <pt x="406" y="308" on="0"/>
        <pt x="469" y="243" on="0"/>
        <pt x="478" y="203" on="1"/>
        <pt x="479" y="197" on="0"/>
        <pt x="479" y="179" on="1"/>
        <pt x="479" y="156" on="0"/>
        <pt x="477" y="148" on="1"/>
        <pt x="464" y="80" on="0"/>
        <pt x="346" y="-10" on="0"/>
        <pt x="178" y="-10" on="0"/>
        <pt x="60" y="80" on="0"/>
        <pt x="47" y="148" on="1"/>
        <pt x="45" y="156" on="0"/>
        <pt x="45" y="179" on="1"/>
        <pt x="45" y="197" on="0"/>
        <pt x="46" y="203" on="1"/>
        <pt x="56" y="245" on="0"/>
        <pt x="123" y="311" on="0"/>
        <pt x="174" y="330" on="1"/>
        <pt x="172" y="331" on="1"/>
        <pt x="171" y="332" on="0"/>
        <pt x="167" y="333" on="0"/>
        <pt x="165" y="334" on="1"/>
        <pt x="157" y="336" on="0"/>
        <pt x="145" y="343" on="1"/>
        <pt x="104" y="362" on="0"/>
        <pt x="58" y="425" on="0"/>
      </contour>
      <contour>
        <pt x="382" y="458" on="1"/>
        <pt x="382" y="494" on="0"/>
        <pt x="312" y="546" on="0"/>
        <pt x="214" y="546" on="0"/>
        <pt x="142" y="496" on="0"/>
        <pt x="142" y="458" on="1"/>
        <pt x="142" y="418" on="0"/>
        <pt x="218" y="368" on="0"/>
        <pt x="306" y="368" on="0"/>
        <pt x="382" y="418" on="0"/>
      </contour>
      <contour>
        <pt x="262" y="66" on="1"/>
        <pt x="319" y="66" on="0"/>
        <pt x="396" y="132" on="0"/>
        <pt x="396" y="178" on="1"/>
        <pt x="396" y="190" on="0"/>
        <pt x="391" y="207" on="1"/>
        <pt x="380" y="244" on="0"/>
        <pt x="310" y="292" on="0"/>
        <pt x="263" y="292" on="1"/>
        <pt x="206" y="292" on="0"/>
        <pt x="128" y="224" on="0"/>
        <pt x="128" y="178" on="1"/>
        <pt x="128" y="157" on="0"/>
        <pt x="137" y="137" on="1"/>
        <pt x="172" y="66" on="0"/>
      </contour>
    </TTGlyph>
    <TTGlyph name="equal" xMin="38" yMin="195" xMax="487" yMax="417">
      <contour>
        <pt x="38" y="382" on="1"/>
        <pt x="38" y="408" on="0"/>
        <pt x="67" y="417" on="1"/>
        <pt x="457" y="417" on="1"/>
        <pt x="487" y="407" on="0"/>
        <pt x="487" y="357" on="0"/>
        <pt x="461" y="348" on="1"/>
        <pt x="64" y="348" on="1"/>
        <pt x="38" y="357" on="0"/>
      </contour>
      <contour>
        <pt x="67" y="195" on="1"/>
        <pt x="38" y="204" on="0"/>
        <pt x="38" y="230" on="1"/>
        <pt x="38" y="255" on="0"/>
        <pt x="62" y="264" on="1"/>
        <pt x="66" y="265" on="0"/>
        <pt x="264" y="265" on="1"/>
        <pt x="461" y="265" on="1"/>
        <pt x="487" y="250" on="0"/>
        <pt x="487" y="230" on="1"/>
        <pt x="487" y="205" on="0"/>
        <pt x="457" y="195" on="1"/>
      </contour>
    </TTGlyph>
    <TTGlyph name="exclam" xMin="206" yMin="0" xMax="320" yMax="622">
      <contour>
        <pt x="206" y="565" on="1"/>
        <pt x="206" y="590" on="0"/>
        <pt x="239" y="622" on="0"/>
        <pt x="265" y="622" on="1"/>
        <pt x="288" y="621" on="0"/>
        <pt x="319" y="590" on="0"/>
        <pt x="319" y="540" on="0"/>
        <pt x="314" y="392" on="1"/>
        <pt x="308" y="216" on="1"/>
        <pt x="302" y="202" on="0"/>
        <pt x="285" y="194" on="0"/>
        <pt x="239" y="194" on="0"/>
        <pt x="223" y="201" on="0"/>
        <pt x="217" y="216" on="1"/>
        <pt x="211" y="392" on="1"/>
        <pt x="206" y="539" on="0"/>
      </contour>
      <contour>
        <pt x="265" y="115" on="1"/>
        <pt x="289" y="113" on="0"/>
        <pt x="320" y="83" on="0"/>
        <pt x="320" y="58" on="1"/>
        <pt x="320" y="32" on="0"/>
        <pt x="288" y="0" on="0"/>
        <pt x="262" y="0" on="1"/>
        <pt x="237" y="0" on="0"/>
        <pt x="206" y="31" on="0"/>
        <pt x="206" y="56" on="1"/>
        <pt x="206" y="83" on="0"/>
        <pt x="239" y="115" on="0"/>
      </contour>
    </TTGlyph>
    <TTGlyph name="f" xMin="35" yMin="1" xMax="437" yMax="617">
      <contour>
        <pt x="43" y="395" on="1"/>
        <pt x="44" y="412" on="0"/>
        <pt x="53" y="423" on="0"/>
        <pt x="66" y="431" on="1"/>
        <pt x="176" y="431" on="1"/>
        <pt x="176" y="461" on="1"/>
        <pt x="176" y="500" on="0"/>
        <pt x="182" y="518" on="1"/>
        <pt x="197" y="561" on="0"/>
        <pt x="291" y="617" on="0"/>
        <pt x="353" y="617" on="1"/>
        <pt x="398" y="614" on="0"/>
        <pt x="420" y="590" on="1"/>
        <pt x="437" y="571" on="0"/>
        <pt x="437" y="548" on="1"/>
        <pt x="437" y="527" on="0"/>
        <pt x="408" y="499" on="0"/>
        <pt x="387" y="499" on="1"/>
        <pt x="369" y="499" on="0"/>
        <pt x="340" y="521" on="0"/>
        <pt x="338" y="537" on="1"/>
        <pt x="338" y="541" on="1"/>
        <pt x="328" y="541" on="1"/>
        <pt x="275" y="536" on="0"/>
        <pt x="261" y="494" on="1"/>
        <pt x="260" y="490" on="0"/>
        <pt x="260" y="460" on="1"/>
        <pt x="260" y="431" on="1"/>
        <pt x="327" y="431" on="1"/>
        <pt x="392" y="431" on="0"/>
        <pt x="398" y="428" on="1"/>
        <pt x="416" y="421" on="0"/>
        <pt x="416" y="365" on="0"/>
        <pt x="398" y="358" on="1"/>
        <pt x="392" y="355" on="0"/>
        <pt x="327" y="355" on="1"/>
        <pt x="260" y="355" on="1"/>
        <pt x="260" y="76" on="1"/>
        <pt x="319" y="76" on="1"/>
        <pt x="377" y="76" on="0"/>
        <pt x="383" y="73" on="1"/>
        <pt x="401" y="65" on="0"/>
        <pt x="401" y="38" on="1"/>
        <pt x="401" y="20" on="0"/>
        <pt x="392" y="8" on="0"/>
        <pt x="379" y="1" on="1"/>
        <pt x="58" y="1" on="1"/>
        <pt x="44" y="7" on="0"/>
        <pt x="35" y="20" on="0"/>
        <pt x="35" y="38" on="1"/>
        <pt x="35" y="65" on="0"/>
        <pt x="53" y="73" on="1"/>
        <pt x="59" y="76" on="0"/>
        <pt x="117" y="76" on="1"/>
        <pt x="176" y="76" on="1"/>
        <pt x="176" y="355" on="1"/>
        <pt x="121" y="355" on="1"/>
        <pt x="67" y="355" on="0"/>
        <pt x="61" y="358" on="1"/>
        <pt x="43" y="366" on="0"/>
      </contour>
    </TTGlyph>
    <TTGlyph name="five" xMin="52" yMin="-10" xMax="472" yMax="611">
      <contour>
        <pt x="245" y="65" on="1"/>
        <pt x="301" y="65" on="0"/>
        <pt x="387" y="132" on="0"/>
        <pt x="387" y="189" on="1"/>
        <pt x="387" y="236" on="0"/>
        <pt x="338" y="301" on="0"/>
        <pt x="301" y="310" on="1"/>
        <pt x="289" y="313" on="0"/>
        <pt x="273" y="313" on="1"/>
        <pt x="197" y="313" on="0"/>
        <pt x="157" y="264" on="1"/>
        <pt x="150" y="254" on="0"/>
        <pt x="138" y="249" on="1"/>
        <pt x="120" y="249" on="1"/>
        <pt x="102" y="249" on="0"/>
        <pt x="97" y="251" on="1"/>
        <pt x="86" y="258" on="0"/>
        <pt x="82" y="268" on="1"/>
        <pt x="81" y="272" on="0"/>
        <pt x="81" y="430" on="1"/>
        <pt x="81" y="587" on="0"/>
        <pt x="82" y="591" on="1"/>
        <pt x="88" y="605" on="0"/>
        <pt x="103" y="610" on="1"/>
        <pt x="108" y="610" on="1"/>
        <pt x="112" y="610" on="0"/>
        <pt x="128" y="610" on="0"/>
        <pt x="149" y="610" on="0"/>
        <pt x="177" y="611" on="0"/>
        <pt x="207" y="611" on="0"/>
        <pt x="243" y="611" on="0"/>
        <pt x="260" y="611" on="1"/>
        <pt x="415" y="611" on="1"/>
        <pt x="416" y="610" on="0"/>
        <pt x="423" y="605" on="0"/>
        <pt x="425" y="603" on="0"/>
        <pt x="430" y="599" on="0"/>
        <pt x="432" y="596" on="0"/>
        <pt x="435" y="590" on="0"/>
        <pt x="436" y="585" on="0"/>
        <pt x="437" y="577" on="0"/>
        <pt x="437" y="573" on="1"/>
        <pt x="437" y="547" on="0"/>
        <pt x="415" y="536" on="1"/>
        <pt x="289" y="535" on="1"/>
        <pt x="164" y="535" on="1"/>
        <pt x="164" y="363" on="1"/>
        <pt x="165" y="363" on="0"/>
        <pt x="175" y="368" on="1"/>
        <pt x="218" y="389" on="0"/>
        <pt x="276" y="389" on="1"/>
        <pt x="315" y="389" on="0"/>
        <pt x="349" y="374" on="1"/>
        <pt x="402" y="354" on="0"/>
        <pt x="472" y="253" on="0"/>
        <pt x="472" y="187" on="1"/>
        <pt x="472" y="173" on="0"/>
        <pt x="471" y="167" on="1"/>
        <pt x="461" y="92" on="0"/>
        <pt x="337" y="-10" on="0"/>
        <pt x="245" y="-10" on="1"/>
        <pt x="111" y="-10" on="0"/>
        <pt x="64" y="84" on="1"/>
        <pt x="52" y="113" on="0"/>
        <pt x="52" y="161" on="0"/>
        <pt x="82" y="191" on="0"/>
        <pt x="104" y="191" on="1"/>
        <pt x="125" y="191" on="0"/>
        <pt x="156" y="163" on="0"/>
        <pt x="156" y="141" on="1"/>
        <pt x="156" y="123" on="0"/>
        <pt x="148" y="112" on="1"/>
        <pt x="146" y="108" on="0"/>
        <pt x="146" y="106" on="0"/>
        <pt x="162" y="90" on="0"/>
        <pt x="167" y="86" on="1"/>
        <pt x="202" y="65" on="0"/>
      </contour>
    </TTGlyph>
    <TTGlyph name="four" xMin="29" yMin="1" xMax="495" yMax="624">
      <contour>
        <pt x="235" y="1" on="1"/>
        <pt x="222" y="6" on="0"/>
        <pt x="213" y="20" on="0"/>
        <pt x="213" y="38" on="1"/>
        <pt x="213" y="54" on="0"/>
        <pt x="215" y="59" on="1"/>
        <pt x="221" y="68" on="0"/>
        <pt x="230" y="73" on="1"/>
        <pt x="236" y="76" on="0"/>
        <pt x="274" y="76" on="1"/>
        <pt x="314" y="76" on="1"/>
        <pt x="314" y="168" on="1"/>
        <pt x="183" y="168" on="1"/>
        <pt x="52" y="169" on="1"/>
        <pt x="36" y="175" on="0"/>
        <pt x="31" y="188" on="1"/>
        <pt x="29" y="193" on="0"/>
        <pt x="29" y="218" on="1"/>
        <pt x="30" y="244" on="1"/>
        <pt x="37" y="255" on="0"/>
        <pt x="260" y="608" on="0"/>
        <pt x="264" y="613" on="1"/>
        <pt x="277" y="624" on="0"/>
        <pt x="289" y="624" on="1"/>
        <pt x="291" y="624" on="0"/>
        <pt x="313" y="623" on="0"/>
        <pt x="323" y="623" on="1"/>
        <pt x="363" y="623" on="1"/>
        <pt x="378" y="616" on="0"/>
        <pt x="385" y="601" on="1"/>
        <pt x="385" y="244" on="1"/>
        <pt x="429" y="244" on="1"/>
        <pt x="471" y="244" on="0"/>
        <pt x="477" y="241" on="1"/>
        <pt x="495" y="233" on="0"/>
        <pt x="495" y="179" on="0"/>
        <pt x="477" y="171" on="1"/>
        <pt x="471" y="168" on="0"/>
        <pt x="429" y="168" on="1"/>
        <pt x="385" y="168" on="1"/>
        <pt x="385" y="76" on="1"/>
        <pt x="425" y="76" on="1"/>
        <pt x="463" y="76" on="0"/>
        <pt x="469" y="73" on="1"/>
        <pt x="478" y="68" on="0"/>
        <pt x="484" y="59" on="1"/>
        <pt x="487" y="52" on="0"/>
        <pt x="487" y="38" on="1"/>
        <pt x="487" y="10" on="0"/>
        <pt x="465" y="1" on="1"/>
      </contour>
      <contour>
        <pt x="314" y="244" on="1"/>
        <pt x="314" y="554" on="1"/>
        <pt x="281" y="503" on="0"/>
        <pt x="150" y="297" on="0"/>
        <pt x="117" y="245" on="1"/>
        <pt x="215" y="244" on="1"/>
      </contour>
    </TTGlyph>
    <TTGlyph name="g" xMin="29" yMin="-229" xMax="509" yMax="442">
      <contour>
        <pt x="60" y="274" on="1"/>
        <pt x="60" y="342" on="0"/>
        <pt x="160" y="436" on="0"/>
        <pt x="233" y="436" on="1"/>
        <pt x="278" y="436" on="0"/>
        <pt x="316" y="417" on="1"/>
        <pt x="329" y="410" on="1"/>
        <pt x="338" y="416" on="1"/>
        <pt x="384" y="442" on="0"/>
        <pt x="427" y="442" on="1"/>
        <pt x="462" y="442" on="0"/>
        <pt x="509" y="410" on="0"/>
        <pt x="509" y="381" on="1"/>
        <pt x="509" y="361" on="0"/>
        <pt x="482" y="332" on="0"/>
        <pt x="462" y="332" on="1"/>
        <pt x="435" y="332" on="0"/>
        <pt x="420" y="358" on="1"/>
        <pt x="417" y="365" on="0"/>
        <pt x="415" y="365" on="1"/>
        <pt x="414" y="364" on="0"/>
        <pt x="410" y="364" on="1"/>
        <pt x="403" y="363" on="0"/>
        <pt x="383" y="355" on="1"/>
        <pt x="406" y="320" on="0"/>
        <pt x="406" y="274" on="1"/>
        <pt x="406" y="208" on="0"/>
        <pt x="308" y="112" on="0"/>
        <pt x="233" y="112" on="1"/>
        <pt x="192" y="112" on="0"/>
        <pt x="155" y="128" on="1"/>
        <pt x="146" y="133" on="1"/>
        <pt x="142" y="123" on="0"/>
        <pt x="142" y="115" on="1"/>
        <pt x="142" y="98" on="0"/>
        <pt x="160" y="71" on="0"/>
        <pt x="175" y="71" on="1"/>
        <pt x="182" y="72" on="0"/>
        <pt x="187" y="70" on="1"/>
        <pt x="188" y="70" on="0"/>
        <pt x="203" y="70" on="0"/>
        <pt x="234" y="69" on="0"/>
        <pt x="254" y="69" on="1"/>
        <pt x="326" y="68" on="0"/>
        <pt x="352" y="64" on="1"/>
        <pt x="416" y="52" on="0"/>
        <pt x="495" y="-16" on="0"/>
        <pt x="495" y="-76" on="1"/>
        <pt x="495" y="-124" on="0"/>
        <pt x="458" y="-162" on="1"/>
        <pt x="389" y="-229" on="0"/>
        <pt x="135" y="-229" on="0"/>
        <pt x="66" y="-162" on="1"/>
        <pt x="28" y="-122" on="0"/>
        <pt x="29" y="-73" on="1"/>
        <pt x="32" y="-29" on="0"/>
        <pt x="55" y="5" on="1"/>
        <pt x="67" y="23" on="0"/>
        <pt x="86" y="39" on="1"/>
        <pt x="91" y="43" on="1"/>
        <pt x="87" y="51" on="1"/>
        <pt x="70" y="80" on="0"/>
        <pt x="70" y="117" on="1"/>
        <pt x="70" y="141" on="0"/>
        <pt x="89" y="183" on="1"/>
        <pt x="83" y="194" on="1"/>
        <pt x="60" y="232" on="0"/>
      </contour>
      <contour>
        <pt x="145" y="274" on="1"/>
        <pt x="145" y="235" on="0"/>
        <pt x="193" y="187" on="0"/>
        <pt x="233" y="187" on="1"/>
        <pt x="287" y="187" on="0"/>
        <pt x="313" y="235" on="1"/>
        <pt x="321" y="254" on="0"/>
        <pt x="321" y="274" on="1"/>
        <pt x="321" y="314" on="0"/>
        <pt x="270" y="362" on="0"/>
        <pt x="230" y="362" on="1"/>
        <pt x="227" y="362" on="0"/>
        <pt x="219" y="361" on="0"/>
        <pt x="217" y="361" on="1"/>
        <pt x="186" y="355" on="0"/>
        <pt x="145" y="309" on="0"/>
      </contour>
      <contour>
        <pt x="320" y="-5" on="1"/>
        <pt x="312" y="-4" on="0"/>
        <pt x="200" y="-4" on="1"/>
        <pt x="166" y="-4" on="0"/>
        <pt x="140" y="-11" on="0"/>
        <pt x="125" y="-26" on="1"/>
        <pt x="102" y="-49" on="0"/>
        <pt x="102" y="-78" on="1"/>
        <pt x="102" y="-88" on="0"/>
        <pt x="108" y="-99" on="1"/>
        <pt x="154" y="-154" on="0"/>
        <pt x="261" y="-154" on="1"/>
        <pt x="315" y="-154" on="0"/>
        <pt x="411" y="-117" on="0"/>
        <pt x="420" y="-89" on="1"/>
        <pt x="422" y="-83" on="0"/>
        <pt x="422" y="-78" on="1"/>
        <pt x="422" y="-55" on="0"/>
        <pt x="406" y="-37" on="1"/>
        <pt x="385" y="-13" on="0"/>
      </contour>
    </TTGlyph>
    <TTGlyph name="grave" xMin="176" yMin="357" xMax="350" yMax="681">
      <contour>
        <pt x="320" y="414" on="1"/>
        <pt x="320" y="388" on="0"/>
        <pt x="285" y="357" on="0"/>
        <pt x="261" y="357" on="1"/>
        <pt x="246" y="357" on="0"/>
        <pt x="235" y="362" on="1"/>
        <pt x="208" y="373" on="0"/>
        <pt x="176" y="436" on="0"/>
        <pt x="176" y="479" on="1"/>
        <pt x="176" y="572" on="0"/>
        <pt x="244" y="640" on="1"/>
        <pt x="272" y="668" on="0"/>
        <pt x="298" y="679" on="1"/>
        <pt x="302" y="681" on="0"/>
        <pt x="310" y="681" on="1"/>
        <pt x="322" y="680" on="0"/>
        <pt x="337" y="665" on="1"/>
        <pt x="350" y="651" on="0"/>
        <pt x="350" y="641" on="1"/>
        <pt x="350" y="623" on="0"/>
        <pt x="329" y="610" on="1"/>
        <pt x="297" y="594" on="0"/>
        <pt x="255" y="528" on="0"/>
        <pt x="252" y="485" on="1"/>
        <pt x="252" y="471" on="1"/>
        <pt x="253" y="471" on="0"/>
        <pt x="260" y="472" on="0"/>
        <pt x="262" y="472" on="1"/>
        <pt x="285" y="472" on="0"/>
        <pt x="320" y="439" on="0"/>
      </contour>
    </TTGlyph>
    <TTGlyph name="gravecomb" xMin="-409" yMin="485" xMax="-195" yMax="611">
      <contour>
        <pt x="-409" y="569" on="1"/>
        <pt x="-409" y="584" on="0"/>
        <pt x="-391" y="606" on="0"/>
        <pt x="-377" y="610" on="1"/>
        <pt x="-376" y="610" on="0"/>
        <pt x="-368" y="611" on="0"/>
        <pt x="-365" y="611" on="1"/>
        <pt x="-215" y="568" on="0"/>
        <pt x="-210" y="563" on="1"/>
        <pt x="-195" y="556" on="0"/>
        <pt x="-195" y="537" on="1"/>
        <pt x="-195" y="521" on="0"/>
        <pt x="-214" y="485" on="0"/>
        <pt x="-229" y="485" on="1"/>
        <pt x="-239" y="485" on="0"/>
        <pt x="-311" y="508" on="1"/>
        <pt x="-385" y="530" on="0"/>
        <pt x="-388" y="533" on="1"/>
        <pt x="-400" y="538" on="0"/>
        <pt x="-405" y="552" on="1"/>
        <pt x="-409" y="559" on="0"/>
      </contour>
    </TTGlyph>
    <TTGlyph name="greater" xMin="57" yMin="55" xMax="468" yMax="557">
      <contour>
        <pt x="57" y="522" on="1"/>
        <pt x="57" y="538" on="0"/>
        <pt x="76" y="557" on="0"/>
        <pt x="90" y="557" on="1"/>
        <pt x="98" y="557" on="0"/>
        <pt x="105" y="554" on="1"/>
        <pt x="111" y="551" on="0"/>
        <pt x="452" y="336" on="0"/>
        <pt x="456" y="332" on="1"/>
        <pt x="468" y="320" on="0"/>
        <pt x="468" y="292" on="0"/>
        <pt x="456" y="280" on="1"/>
        <pt x="452" y="276" on="0"/>
        <pt x="111" y="61" on="0"/>
        <pt x="105" y="58" on="1"/>
        <pt x="98" y="55" on="0"/>
        <pt x="91" y="55" on="1"/>
        <pt x="78" y="55" on="0"/>
        <pt x="57" y="75" on="0"/>
        <pt x="57" y="105" on="0"/>
        <pt x="68" y="116" on="1"/>
        <pt x="70" y="118" on="0"/>
        <pt x="209" y="206" on="0"/>
        <pt x="360" y="302" on="0"/>
        <pt x="366" y="306" on="1"/>
        <pt x="68" y="496" on="1"/>
        <pt x="57" y="507" on="0"/>
      </contour>
    </TTGlyph>
    <TTGlyph name="h" xMin="4" yMin="1" xMax="520" yMax="611">
      <contour>
        <pt x="4" y="38" on="1"/>
        <pt x="4" y="65" on="0"/>
        <pt x="27" y="76" on="1"/>
        <pt x="89" y="76" on="1"/>
        <pt x="89" y="535" on="1"/>
        <pt x="58" y="535" on="1"/>
        <pt x="27" y="536" on="1"/>
        <pt x="4" y="543" on="0"/>
        <pt x="4" y="573" on="1"/>
        <pt x="4" y="602" on="0"/>
        <pt x="27" y="610" on="1"/>
        <pt x="28" y="611" on="0"/>
        <pt x="90" y="611" on="1"/>
        <pt x="149" y="611" on="0"/>
        <pt x="155" y="608" on="1"/>
        <pt x="166" y="603" on="0"/>
        <pt x="171" y="591" on="1"/>
        <pt x="173" y="586" on="0"/>
        <pt x="173" y="489" on="1"/>
        <pt x="173" y="394" on="0"/>
        <pt x="175" y="394" on="1"/>
        <pt x="189" y="394" on="0"/>
        <pt x="255" y="432" on="0"/>
        <pt x="269" y="434" on="1"/>
        <pt x="278" y="436" on="0"/>
        <pt x="306" y="436" on="1"/>
        <pt x="406" y="436" on="0"/>
        <pt x="429" y="347" on="1"/>
        <pt x="434" y="328" on="0"/>
        <pt x="435" y="246" on="1"/>
        <pt x="435" y="217" on="0"/>
        <pt x="435" y="198" on="1"/>
        <pt x="435" y="76" on="1"/>
        <pt x="498" y="76" on="1"/>
        <pt x="520" y="63" on="0"/>
        <pt x="520" y="38" on="1"/>
        <pt x="520" y="10" on="0"/>
        <pt x="498" y="1" on="1"/>
        <pt x="308" y="1" on="1"/>
        <pt x="295" y="6" on="0"/>
        <pt x="286" y="20" on="0"/>
        <pt x="286" y="38" on="1"/>
        <pt x="286" y="54" on="0"/>
        <pt x="288" y="59" on="1"/>
        <pt x="294" y="68" on="0"/>
        <pt x="303" y="73" on="1"/>
        <pt x="309" y="76" on="0"/>
        <pt x="329" y="76" on="1"/>
        <pt x="351" y="76" on="1"/>
        <pt x="351" y="188" on="1"/>
        <pt x="351" y="304" on="0"/>
        <pt x="350" y="309" on="1"/>
        <pt x="347" y="337" on="0"/>
        <pt x="319" y="361" on="0"/>
        <pt x="288" y="361" on="1"/>
        <pt x="233" y="361" on="0"/>
        <pt x="196" y="316" on="1"/>
        <pt x="183" y="298" on="0"/>
        <pt x="176" y="274" on="1"/>
        <pt x="174" y="264" on="1"/>
        <pt x="173" y="170" on="1"/>
        <pt x="173" y="76" on="1"/>
        <pt x="236" y="76" on="1"/>
        <pt x="258" y="63" on="0"/>
        <pt x="258" y="38" on="1"/>
        <pt x="258" y="10" on="0"/>
        <pt x="236" y="1" on="1"/>
        <pt x="27" y="1" on="1"/>
        <pt x="4" y="8" on="0"/>
      </contour>
    </TTGlyph>
    <TTGlyph name="hyphen" xMin="57" yMin="271" xMax="468" yMax="341">
      <contour>
        <pt x="57" y="280" on="0"/>
        <pt x="57" y="332" on="0"/>
        <pt x="86" y="341" on="1"/>
        <pt x="438" y="341" on="1"/>
        <pt x="468" y="331" on="0"/>
        <pt x="468" y="281" on="0"/>
        <pt x="438" y="271" on="1"/>
        <pt x="86" y="271" on="1"/>
      </contour>
    </TTGlyph>
    <TTGlyph name="i" xMin="72" yMin="1" xMax="462" yMax="612">
      <contour>
        <pt x="202" y="559" on="1"/>
        <pt x="202" y="582" on="0"/>
        <pt x="236" y="612" on="0"/>
        <pt x="260" y="612" on="1"/>
        <pt x="282" y="612" on="0"/>
        <pt x="317" y="581" on="0"/>
        <pt x="317" y="560" on="1"/>
        <pt x="317" y="538" on="0"/>
        <pt x="283" y="507" on="0"/>
        <pt x="260" y="507" on="1"/>
        <pt x="235" y="507" on="0"/>
        <pt x="202" y="538" on="0"/>
      </contour>
      <contour>
        <pt x="72" y="38" on="1"/>
        <pt x="72" y="55" on="0"/>
        <pt x="81" y="69" on="0"/>
        <pt x="94" y="76" on="1"/>
        <pt x="233" y="76" on="1"/>
        <pt x="233" y="355" on="1"/>
        <pt x="167" y="355" on="1"/>
        <pt x="102" y="356" on="1"/>
        <pt x="80" y="363" on="0"/>
        <pt x="80" y="423" on="0"/>
        <pt x="102" y="430" on="1"/>
        <pt x="103" y="431" on="0"/>
        <pt x="200" y="431" on="1"/>
        <pt x="295" y="431" on="1"/>
        <pt x="312" y="418" on="0"/>
        <pt x="315" y="411" on="1"/>
        <pt x="317" y="406" on="0"/>
        <pt x="317" y="241" on="1"/>
        <pt x="317" y="76" on="1"/>
        <pt x="378" y="76" on="1"/>
        <pt x="438" y="76" on="0"/>
        <pt x="444" y="73" on="1"/>
        <pt x="462" y="65" on="0"/>
        <pt x="462" y="38" on="1"/>
        <pt x="462" y="20" on="0"/>
        <pt x="453" y="8" on="0"/>
        <pt x="440" y="1" on="1"/>
        <pt x="94" y="1" on="1"/>
        <pt x="72" y="8" on="0"/>
      </contour>
    </TTGlyph>
    <TTGlyph name="j" xMin="48" yMin="-228" xMax="376" yMax="612">
      <contour>
        <pt x="261" y="559" on="1"/>
        <pt x="261" y="582" on="0"/>
        <pt x="295" y="612" on="0"/>
        <pt x="319" y="612" on="1"/>
        <pt x="341" y="612" on="0"/>
        <pt x="376" y="581" on="0"/>
        <pt x="376" y="539" on="0"/>
        <pt x="342" y="507" on="0"/>
        <pt x="320" y="507" on="1"/>
        <pt x="295" y="507" on="0"/>
        <pt x="261" y="538" on="0"/>
      </contour>
      <contour>
        <pt x="100" y="-91" on="1"/>
        <pt x="123" y="-91" on="0"/>
        <pt x="152" y="-122" on="0"/>
        <pt x="152" y="-144" on="1"/>
        <pt x="152" y="-150" on="1"/>
        <pt x="160" y="-151" on="1"/>
        <pt x="193" y="-151" on="1"/>
        <pt x="219" y="-151" on="0"/>
        <pt x="226" y="-149" on="1"/>
        <pt x="249" y="-142" on="0"/>
        <pt x="267" y="-121" on="1"/>
        <pt x="281" y="-100" on="0"/>
        <pt x="286" y="-82" on="1"/>
        <pt x="291" y="-67" on="0"/>
        <pt x="292" y="-13" on="0"/>
        <pt x="292" y="151" on="1"/>
        <pt x="292" y="355" on="1"/>
        <pt x="218" y="355" on="1"/>
        <pt x="145" y="356" on="1"/>
        <pt x="123" y="364" on="0"/>
        <pt x="123" y="393" on="1"/>
        <pt x="123" y="423" on="0"/>
        <pt x="145" y="430" on="1"/>
        <pt x="148" y="430" on="1"/>
        <pt x="151" y="430" on="0"/>
        <pt x="162" y="430" on="0"/>
        <pt x="176" y="430" on="0"/>
        <pt x="195" y="431" on="0"/>
        <pt x="215" y="431" on="0"/>
        <pt x="239" y="431" on="0"/>
        <pt x="251" y="431" on="1"/>
        <pt x="354" y="431" on="1"/>
        <pt x="371" y="418" on="0"/>
        <pt x="374" y="411" on="1"/>
        <pt x="376" y="406" on="0"/>
        <pt x="376" y="176" on="1"/>
        <pt x="376" y="-67" on="0"/>
        <pt x="371" y="-88" on="1"/>
        <pt x="351" y="-159" on="0"/>
        <pt x="299" y="-194" on="1"/>
        <pt x="253" y="-228" on="0"/>
        <pt x="180" y="-228" on="1"/>
        <pt x="130" y="-226" on="0"/>
        <pt x="72" y="-204" on="0"/>
        <pt x="56" y="-177" on="1"/>
        <pt x="49" y="-162" on="0"/>
        <pt x="48" y="-148" on="1"/>
        <pt x="48" y="-123" on="0"/>
        <pt x="76" y="-91" on="0"/>
      </contour>
    </TTGlyph>
    <TTGlyph name="k" xMin="13" yMin="1" xMax="507" yMax="611">
      <contour>
        <pt x="275" y="355" on="1"/>
        <pt x="249" y="355" on="0"/>
        <pt x="232" y="370" on="0"/>
        <pt x="232" y="393" on="1"/>
        <pt x="232" y="420" on="0"/>
        <pt x="250" y="428" on="1"/>
        <pt x="256" y="431" on="0"/>
        <pt x="359" y="431" on="1"/>
        <pt x="464" y="431" on="1"/>
        <pt x="471" y="427" on="0"/>
        <pt x="476" y="423" on="0"/>
        <pt x="483" y="414" on="0"/>
        <pt x="485" y="402" on="0"/>
        <pt x="485" y="393" on="1"/>
        <pt x="485" y="364" on="0"/>
        <pt x="464" y="356" on="1"/>
        <pt x="431" y="355" on="1"/>
        <pt x="398" y="355" on="1"/>
        <pt x="381" y="338" on="0"/>
        <pt x="311" y="271" on="0"/>
        <pt x="293" y="254" on="1"/>
        <pt x="353" y="174" on="0"/>
        <pt x="363" y="161" on="1"/>
        <pt x="427" y="76" on="1"/>
        <pt x="486" y="76" on="1"/>
        <pt x="493" y="72" on="0"/>
        <pt x="498" y="68" on="0"/>
        <pt x="505" y="59" on="0"/>
        <pt x="507" y="47" on="0"/>
        <pt x="507" y="38" on="1"/>
        <pt x="507" y="9" on="0"/>
        <pt x="486" y="1" on="1"/>
        <pt x="314" y="1" on="1"/>
        <pt x="292" y="8" on="0"/>
        <pt x="292" y="38" on="1"/>
        <pt x="292" y="62" on="0"/>
        <pt x="308" y="73" on="1"/>
        <pt x="312" y="75" on="0"/>
        <pt x="326" y="76" on="1"/>
        <pt x="338" y="77" on="1"/>
        <pt x="290" y="140" on="1"/>
        <pt x="279" y="154" on="0"/>
        <pt x="254" y="188" on="0"/>
        <pt x="248" y="196" on="1"/>
        <pt x="242" y="204" on="1"/>
        <pt x="207" y="171" on="1"/>
        <pt x="173" y="139" on="1"/>
        <pt x="173" y="76" on="1"/>
        <pt x="206" y="76" on="1"/>
        <pt x="238" y="76" on="0"/>
        <pt x="244" y="73" on="1"/>
        <pt x="262" y="65" on="0"/>
        <pt x="262" y="11" on="0"/>
        <pt x="244" y="3" on="1"/>
        <pt x="240" y="1" on="0"/>
        <pt x="138" y="1" on="1"/>
        <pt x="35" y="1" on="0"/>
        <pt x="31" y="3" on="1"/>
        <pt x="13" y="11" on="0"/>
        <pt x="13" y="65" on="0"/>
        <pt x="31" y="73" on="1"/>
        <pt x="37" y="76" on="0"/>
        <pt x="69" y="76" on="1"/>
        <pt x="102" y="76" on="1"/>
        <pt x="102" y="535" on="1"/>
        <pt x="69" y="535" on="1"/>
        <pt x="37" y="535" on="0"/>
        <pt x="31" y="538" on="1"/>
        <pt x="13" y="546" on="0"/>
        <pt x="13" y="573" on="1"/>
        <pt x="13" y="588" on="0"/>
        <pt x="15" y="593" on="1"/>
        <pt x="23" y="606" on="0"/>
        <pt x="34" y="610" on="1"/>
        <pt x="38" y="611" on="0"/>
        <pt x="95" y="611" on="1"/>
        <pt x="149" y="611" on="0"/>
        <pt x="155" y="608" on="1"/>
        <pt x="166" y="604" on="0"/>
        <pt x="170" y="593" on="1"/>
        <pt x="173" y="589" on="1"/>
        <pt x="173" y="413" on="1"/>
        <pt x="174" y="237" on="1"/>
        <pt x="234" y="297" on="0"/>
        <pt x="295" y="355" on="1"/>
      </contour>
    </TTGlyph>
    <TTGlyph name="l" xMin="51" yMin="1" xMax="474" yMax="611">
      <contour>
        <pt x="51" y="573" on="1"/>
        <pt x="51" y="603" on="0"/>
        <pt x="73" y="610" on="1"/>
        <pt x="76" y="610" on="1"/>
        <pt x="79" y="610" on="0"/>
        <pt x="90" y="610" on="0"/>
        <pt x="104" y="610" on="0"/>
        <pt x="123" y="611" on="0"/>
        <pt x="143" y="611" on="0"/>
        <pt x="167" y="611" on="0"/>
        <pt x="179" y="611" on="1"/>
        <pt x="282" y="611" on="1"/>
        <pt x="300" y="602" on="0"/>
        <pt x="304" y="586" on="1"/>
        <pt x="304" y="76" on="1"/>
        <pt x="452" y="76" on="1"/>
        <pt x="461" y="70" on="0"/>
        <pt x="468" y="64" on="0"/>
        <pt x="474" y="49" on="0"/>
        <pt x="474" y="38" on="1"/>
        <pt x="474" y="10" on="0"/>
        <pt x="452" y="1" on="1"/>
        <pt x="73" y="1" on="1"/>
        <pt x="51" y="9" on="0"/>
        <pt x="51" y="38" on="1"/>
        <pt x="51" y="51" on="0"/>
        <pt x="56" y="65" on="0"/>
        <pt x="63" y="71" on="0"/>
        <pt x="73" y="76" on="1"/>
        <pt x="220" y="76" on="1"/>
        <pt x="220" y="535" on="1"/>
        <pt x="146" y="535" on="1"/>
        <pt x="73" y="536" on="1"/>
        <pt x="51" y="544" on="0"/>
      </contour>
    </TTGlyph>
    <TTGlyph name="less" xMin="57" yMin="55" xMax="468" yMax="557">
      <contour>
        <pt x="468" y="90" on="1"/>
        <pt x="468" y="75" on="0"/>
        <pt x="446" y="55" on="0"/>
        <pt x="433" y="55" on="1"/>
        <pt x="426" y="55" on="0"/>
        <pt x="419" y="58" on="1"/>
        <pt x="413" y="61" on="0"/>
        <pt x="72" y="276" on="0"/>
        <pt x="68" y="280" on="1"/>
        <pt x="57" y="291" on="0"/>
        <pt x="57" y="321" on="0"/>
        <pt x="68" y="332" on="1"/>
        <pt x="72" y="335" on="0"/>
        <pt x="411" y="550" on="0"/>
        <pt x="416" y="553" on="1"/>
        <pt x="424" y="557" on="0"/>
        <pt x="432" y="557" on="1"/>
        <pt x="446" y="557" on="0"/>
        <pt x="468" y="537" on="0"/>
        <pt x="468" y="522" on="1"/>
        <pt x="468" y="508" on="0"/>
        <pt x="456" y="496" on="1"/>
        <pt x="454" y="494" on="0"/>
        <pt x="315" y="406" on="0"/>
        <pt x="164" y="310" on="0"/>
        <pt x="158" y="306" on="1"/>
        <pt x="456" y="116" on="1"/>
        <pt x="468" y="104" on="0"/>
      </contour>
    </TTGlyph>
    <TTGlyph name="m" xMin="-12" yMin="1" xMax="536" yMax="436">
      <contour>
        <pt x="133" y="76" on="1"/>
        <pt x="156" y="74" on="0"/>
        <pt x="172" y="60" on="0"/>
        <pt x="172" y="38" on="1"/>
        <pt x="172" y="9" on="0"/>
        <pt x="151" y="1" on="1"/>
        <pt x="11" y="1" on="1"/>
        <pt x="-12" y="8" on="0"/>
        <pt x="-12" y="38" on="1"/>
        <pt x="-12" y="61" on="0"/>
        <pt x="5" y="73" on="1"/>
        <pt x="10" y="75" on="0"/>
        <pt x="28" y="76" on="1"/>
        <pt x="45" y="76" on="1"/>
        <pt x="45" y="355" on="1"/>
        <pt x="28" y="355" on="1"/>
        <pt x="10" y="356" on="0"/>
        <pt x="5" y="358" on="1"/>
        <pt x="-12" y="370" on="0"/>
        <pt x="-12" y="393" on="1"/>
        <pt x="-12" y="420" on="0"/>
        <pt x="11" y="431" on="1"/>
        <pt x="52" y="431" on="1"/>
        <pt x="92" y="431" on="0"/>
        <pt x="98" y="428" on="1"/>
        <pt x="111" y="422" on="0"/>
        <pt x="116" y="405" on="1"/>
        <pt x="167" y="436" on="0"/>
        <pt x="200" y="436" on="1"/>
        <pt x="256" y="436" on="0"/>
        <pt x="281" y="390" on="1"/>
        <pt x="287" y="395" on="1"/>
        <pt x="328" y="436" on="0"/>
        <pt x="389" y="436" on="1"/>
        <pt x="426" y="436" on="0"/>
        <pt x="448" y="411" on="1"/>
        <pt x="471" y="388" on="0"/>
        <pt x="478" y="338" on="1"/>
        <pt x="479" y="334" on="0"/>
        <pt x="480" y="203" on="1"/>
        <pt x="480" y="76" on="1"/>
        <pt x="497" y="76" on="1"/>
        <pt x="520" y="74" on="0"/>
        <pt x="536" y="60" on="0"/>
        <pt x="536" y="38" on="1"/>
        <pt x="536" y="9" on="0"/>
        <pt x="515" y="1" on="1"/>
        <pt x="396" y="1" on="1"/>
        <pt x="383" y="6" on="0"/>
        <pt x="374" y="20" on="0"/>
        <pt x="374" y="38" on="1"/>
        <pt x="374" y="73" on="0"/>
        <pt x="402" y="76" on="1"/>
        <pt x="409" y="76" on="1"/>
        <pt x="409" y="191" on="1"/>
        <pt x="409" y="292" on="0"/>
        <pt x="407" y="333" on="0"/>
        <pt x="401" y="346" on="1"/>
        <pt x="392" y="361" on="0"/>
        <pt x="375" y="361" on="1"/>
        <pt x="342" y="361" on="0"/>
        <pt x="303" y="304" on="0"/>
        <pt x="299" y="264" on="1"/>
        <pt x="298" y="258" on="0"/>
        <pt x="298" y="165" on="1"/>
        <pt x="298" y="76" on="1"/>
        <pt x="315" y="76" on="1"/>
        <pt x="338" y="74" on="0"/>
        <pt x="354" y="60" on="0"/>
        <pt x="354" y="38" on="1"/>
        <pt x="354" y="9" on="0"/>
        <pt x="333" y="1" on="1"/>
        <pt x="214" y="1" on="1"/>
        <pt x="201" y="6" on="0"/>
        <pt x="192" y="20" on="0"/>
        <pt x="192" y="38" on="1"/>
        <pt x="192" y="73" on="0"/>
        <pt x="220" y="76" on="1"/>
        <pt x="227" y="76" on="1"/>
        <pt x="227" y="191" on="1"/>
        <pt x="227" y="292" on="0"/>
        <pt x="225" y="333" on="0"/>
        <pt x="219" y="346" on="1"/>
        <pt x="210" y="361" on="0"/>
        <pt x="193" y="361" on="1"/>
        <pt x="160" y="361" on="0"/>
        <pt x="121" y="304" on="0"/>
        <pt x="117" y="264" on="1"/>
        <pt x="116" y="258" on="0"/>
        <pt x="116" y="165" on="1"/>
        <pt x="116" y="76" on="1"/>
      </contour>
    </TTGlyph>
    <TTGlyph name="minute" xMin="211" yMin="334" xMax="313" yMax="623">
      <contour>
        <pt x="211" y="572" on="1"/>
        <pt x="211" y="594" on="0"/>
        <pt x="240" y="623" on="0"/>
        <pt x="262" y="623" on="1"/>
        <pt x="293" y="623" on="0"/>
        <pt x="309" y="594" on="1"/>
        <pt x="313" y="586" on="0"/>
        <pt x="313" y="573" on="1"/>
        <pt x="313" y="561" on="0"/>
        <pt x="307" y="465" on="1"/>
        <pt x="301" y="374" on="0"/>
        <pt x="298" y="350" on="0"/>
        <pt x="293" y="343" on="1"/>
        <pt x="286" y="336" on="0"/>
        <pt x="278" y="334" on="0"/>
        <pt x="246" y="334" on="0"/>
        <pt x="238" y="336" on="0"/>
        <pt x="231" y="343" on="1"/>
        <pt x="226" y="350" on="0"/>
        <pt x="223" y="374" on="0"/>
        <pt x="217" y="465" on="1"/>
        <pt x="211" y="549" on="0"/>
      </contour>
    </TTGlyph>
    <TTGlyph name="n" xMin="4" yMin="1" xMax="520" yMax="436">
      <contour>
        <pt x="4" y="393" on="1"/>
        <pt x="4" y="420" on="0"/>
        <pt x="27" y="431" on="1"/>
        <pt x="89" y="431" on="1"/>
        <pt x="149" y="431" on="0"/>
        <pt x="155" y="428" on="1"/>
        <pt x="173" y="420" on="0"/>
        <pt x="173" y="399" on="1"/>
        <pt x="174" y="394" on="1"/>
        <pt x="175" y="394" on="1"/>
        <pt x="235" y="436" on="0"/>
        <pt x="298" y="436" on="1"/>
        <pt x="342" y="436" on="0"/>
        <pt x="371" y="423" on="1"/>
        <pt x="415" y="400" on="0"/>
        <pt x="429" y="347" on="1"/>
        <pt x="434" y="328" on="0"/>
        <pt x="435" y="246" on="1"/>
        <pt x="435" y="217" on="0"/>
        <pt x="435" y="198" on="1"/>
        <pt x="435" y="76" on="1"/>
        <pt x="498" y="76" on="1"/>
        <pt x="520" y="63" on="0"/>
        <pt x="520" y="38" on="1"/>
        <pt x="520" y="10" on="0"/>
        <pt x="498" y="1" on="1"/>
        <pt x="308" y="1" on="1"/>
        <pt x="295" y="6" on="0"/>
        <pt x="286" y="20" on="0"/>
        <pt x="286" y="38" on="1"/>
        <pt x="286" y="54" on="0"/>
        <pt x="288" y="58" on="1"/>
        <pt x="293" y="68" on="0"/>
        <pt x="303" y="73" on="1"/>
        <pt x="309" y="76" on="0"/>
        <pt x="329" y="76" on="1"/>
        <pt x="351" y="76" on="1"/>
        <pt x="351" y="188" on="1"/>
        <pt x="351" y="304" on="0"/>
        <pt x="350" y="309" on="1"/>
        <pt x="347" y="337" on="0"/>
        <pt x="319" y="361" on="0"/>
        <pt x="288" y="361" on="1"/>
        <pt x="233" y="361" on="0"/>
        <pt x="196" y="316" on="1"/>
        <pt x="183" y="298" on="0"/>
        <pt x="176" y="274" on="1"/>
        <pt x="174" y="264" on="1"/>
        <pt x="173" y="170" on="1"/>
        <pt x="173" y="76" on="1"/>
        <pt x="236" y="76" on="1"/>
        <pt x="258" y="63" on="0"/>
        <pt x="258" y="38" on="1"/>
        <pt x="258" y="10" on="0"/>
        <pt x="236" y="1" on="1"/>
        <pt x="27" y="1" on="1"/>
        <pt x="4" y="8" on="0"/>
        <pt x="4" y="38" on="1"/>
        <pt x="4" y="65" on="0"/>
        <pt x="27" y="76" on="1"/>
        <pt x="89" y="76" on="1"/>
        <pt x="89" y="355" on="1"/>
        <pt x="58" y="355" on="1"/>
        <pt x="27" y="356" on="1"/>
        <pt x="4" y="363" on="0"/>
      </contour>
    </TTGlyph>
    <TTGlyph name="nine" xMin="46" yMin="-11" xMax="479" yMax="622">
      <contour>
        <pt x="392" y="259" on="1"/>
        <pt x="334" y="210" on="0"/>
        <pt x="236" y="210" on="1"/>
        <pt x="193" y="210" on="0"/>
        <pt x="137" y="235" on="0"/>
        <pt x="109" y="262" on="1"/>
        <pt x="59" y="312" on="0"/>
        <pt x="47" y="379" on="1"/>
        <pt x="46" y="386" on="0"/>
        <pt x="46" y="411" on="1"/>
        <pt x="46" y="460" on="0"/>
        <pt x="70" y="521" on="0"/>
        <pt x="99" y="550" on="1"/>
        <pt x="164" y="622" on="0"/>
        <pt x="264" y="622" on="1"/>
        <pt x="346" y="622" on="0"/>
        <pt x="402" y="564" on="1"/>
        <pt x="479" y="486" on="0"/>
        <pt x="479" y="304" on="1"/>
        <pt x="479" y="283" on="0"/>
        <pt x="477" y="261" on="1"/>
        <pt x="460" y="135" on="0"/>
        <pt x="381" y="59" on="1"/>
        <pt x="334" y="14" on="0"/>
        <pt x="278" y="-2" on="1"/>
        <pt x="249" y="-11" on="0"/>
        <pt x="217" y="-11" on="1"/>
        <pt x="137" y="-11" on="0"/>
        <pt x="98" y="30" on="1"/>
        <pt x="70" y="58" on="0"/>
        <pt x="70" y="101" on="1"/>
        <pt x="70" y="124" on="0"/>
        <pt x="99" y="153" on="0"/>
        <pt x="122" y="153" on="1"/>
        <pt x="146" y="153" on="0"/>
        <pt x="174" y="123" on="0"/>
        <pt x="174" y="101" on="1"/>
        <pt x="174" y="91" on="0"/>
        <pt x="168" y="76" on="1"/>
        <pt x="179" y="65" on="0"/>
        <pt x="216" y="65" on="1"/>
        <pt x="266" y="65" on="0"/>
        <pt x="300" y="93" on="1"/>
        <pt x="373" y="146" on="0"/>
        <pt x="391" y="256" on="1"/>
      </contour>
      <contour>
        <pt x="341" y="513" on="1"/>
        <pt x="308" y="546" on="0"/>
        <pt x="268" y="546" on="1"/>
        <pt x="230" y="546" on="0"/>
        <pt x="204" y="532" on="1"/>
        <pt x="129" y="494" on="0"/>
        <pt x="129" y="415" on="1"/>
        <pt x="129" y="384" on="0"/>
        <pt x="138" y="363" on="1"/>
        <pt x="147" y="343" on="0"/>
        <pt x="187" y="302" on="0"/>
        <pt x="207" y="294" on="1"/>
        <pt x="228" y="285" on="0"/>
        <pt x="255" y="285" on="1"/>
        <pt x="297" y="285" on="0"/>
        <pt x="364" y="324" on="0"/>
        <pt x="379" y="354" on="1"/>
        <pt x="387" y="368" on="0"/>
        <pt x="388" y="389" on="1"/>
        <pt x="388" y="404" on="0"/>
        <pt x="386" y="413" on="1"/>
        <pt x="374" y="477" on="0"/>
      </contour>
    </TTGlyph>
    <TTGlyph name="numbersign" xMin="36" yMin="0" xMax="489" yMax="611">
      <contour>
        <pt x="36" y="198" on="1"/>
        <pt x="36" y="204" on="0"/>
        <pt x="38" y="214" on="0"/>
        <pt x="45" y="221" on="0"/>
        <pt x="48" y="224" on="0"/>
        <pt x="60" y="232" on="0"/>
        <pt x="61" y="233" on="1"/>
        <pt x="131" y="233" on="1"/>
        <pt x="131" y="236" on="1"/>
        <pt x="132" y="239" on="0"/>
        <pt x="149" y="376" on="0"/>
        <pt x="149" y="377" on="1"/>
        <pt x="149" y="379" on="0"/>
        <pt x="105" y="379" on="1"/>
        <pt x="61" y="380" on="1"/>
        <pt x="36" y="392" on="0"/>
        <pt x="36" y="414" on="1"/>
        <pt x="36" y="440" on="0"/>
        <pt x="59" y="447" on="1"/>
        <pt x="65" y="449" on="0"/>
        <pt x="112" y="449" on="1"/>
        <pt x="159" y="449" on="1"/>
        <pt x="163" y="480" on="0"/>
        <pt x="167" y="517" on="1"/>
        <pt x="177" y="587" on="0"/>
        <pt x="179" y="592" on="1"/>
        <pt x="188" y="611" on="0"/>
        <pt x="232" y="611" on="0"/>
        <pt x="241" y="592" on="1"/>
        <pt x="245" y="580" on="1"/>
        <pt x="245" y="565" on="0"/>
        <pt x="230" y="456" on="0"/>
        <pt x="230" y="451" on="1"/>
        <pt x="230" y="449" on="0"/>
        <pt x="282" y="449" on="1"/>
        <pt x="333" y="449" on="1"/>
        <pt x="337" y="480" on="0"/>
        <pt x="341" y="517" on="1"/>
        <pt x="351" y="587" on="0"/>
        <pt x="353" y="592" on="1"/>
        <pt x="363" y="611" on="0"/>
        <pt x="384" y="611" on="1"/>
        <pt x="397" y="611" on="0"/>
        <pt x="417" y="592" on="0"/>
        <pt x="419" y="580" on="1"/>
        <pt x="419" y="565" on="0"/>
        <pt x="404" y="456" on="0"/>
        <pt x="404" y="451" on="1"/>
        <pt x="404" y="449" on="0"/>
        <pt x="431" y="449" on="1"/>
        <pt x="459" y="449" on="0"/>
        <pt x="465" y="447" on="1"/>
        <pt x="489" y="439" on="0"/>
        <pt x="489" y="414" on="1"/>
        <pt x="489" y="394" on="0"/>
        <pt x="463" y="380" on="1"/>
        <pt x="428" y="379" on="1"/>
        <pt x="394" y="379" on="1"/>
        <pt x="394" y="376" on="1"/>
        <pt x="393" y="373" on="0"/>
        <pt x="376" y="236" on="0"/>
        <pt x="376" y="235" on="1"/>
        <pt x="376" y="233" on="0"/>
        <pt x="419" y="233" on="1"/>
        <pt x="463" y="233" on="1"/>
        <pt x="464" y="232" on="0"/>
        <pt x="471" y="228" on="0"/>
        <pt x="473" y="226" on="0"/>
        <pt x="479" y="221" on="0"/>
        <pt x="482" y="219" on="0"/>
        <pt x="486" y="213" on="0"/>
        <pt x="488" y="208" on="0"/>
        <pt x="489" y="202" on="0"/>
        <pt x="489" y="198" on="1"/>
        <pt x="489" y="173" on="0"/>
        <pt x="465" y="165" on="1"/>
        <pt x="459" y="163" on="0"/>
        <pt x="412" y="163" on="1"/>
        <pt x="366" y="163" on="1"/>
        <pt x="366" y="161" on="1"/>
        <pt x="364" y="159" on="0"/>
        <pt x="357" y="92" on="1"/>
        <pt x="347" y="24" on="0"/>
        <pt x="345" y="19" on="1"/>
        <pt x="335" y="0" on="0"/>
        <pt x="314" y="0" on="1"/>
        <pt x="301" y="0" on="0"/>
        <pt x="281" y="19" on="0"/>
        <pt x="279" y="31" on="1"/>
        <pt x="279" y="37" on="0"/>
        <pt x="295" y="156" on="0"/>
        <pt x="295" y="162" on="1"/>
        <pt x="295" y="163" on="0"/>
        <pt x="244" y="163" on="1"/>
        <pt x="192" y="163" on="1"/>
        <pt x="192" y="161" on="1"/>
        <pt x="190" y="159" on="0"/>
        <pt x="183" y="92" on="1"/>
        <pt x="173" y="24" on="0"/>
        <pt x="171" y="19" on="1"/>
        <pt x="161" y="0" on="0"/>
        <pt x="140" y="0" on="1"/>
        <pt x="127" y="0" on="0"/>
        <pt x="107" y="19" on="0"/>
        <pt x="105" y="31" on="1"/>
        <pt x="105" y="37" on="0"/>
        <pt x="121" y="156" on="0"/>
        <pt x="121" y="162" on="1"/>
        <pt x="121" y="163" on="0"/>
        <pt x="65" y="163" on="0"/>
        <pt x="59" y="165" on="1"/>
        <pt x="36" y="172" on="0"/>
      </contour>
      <contour>
        <pt x="323" y="377" on="1"/>
        <pt x="323" y="379" on="0"/>
        <pt x="272" y="379" on="1"/>
        <pt x="220" y="379" on="1"/>
        <pt x="220" y="376" on="1"/>
        <pt x="219" y="373" on="0"/>
        <pt x="202" y="236" on="0"/>
        <pt x="202" y="235" on="1"/>
        <pt x="202" y="233" on="0"/>
        <pt x="253" y="233" on="1"/>
        <pt x="305" y="233" on="1"/>
        <pt x="305" y="236" on="1"/>
        <pt x="306" y="239" on="0"/>
        <pt x="323" y="376" on="0"/>
      </contour>
    </TTGlyph>
    <TTGlyph name="o" xMin="52" yMin="-6" xMax="472" yMax="440">
      <contour>
        <pt x="116" y="377" on="1"/>
        <pt x="183" y="440" on="0"/>
        <pt x="261" y="440" on="1"/>
        <pt x="310" y="440" on="0"/>
        <pt x="350" y="419" on="1"/>
        <pt x="451" y="368" on="0"/>
        <pt x="470" y="250" on="1"/>
        <pt x="472" y="234" on="0"/>
        <pt x="472" y="216" on="1"/>
        <pt x="472" y="158" on="0"/>
        <pt x="447" y="112" on="1"/>
        <pt x="398" y="15" on="0"/>
        <pt x="292" y="-4" on="1"/>
        <pt x="276" y="-6" on="0"/>
        <pt x="262" y="-6" on="1"/>
        <pt x="203" y="-6" on="0"/>
        <pt x="151" y="28" on="1"/>
        <pt x="71" y="80" on="0"/>
        <pt x="54" y="182" on="1"/>
        <pt x="52" y="198" on="0"/>
        <pt x="52" y="234" on="0"/>
        <pt x="54" y="250" on="1"/>
        <pt x="66" y="326" on="0"/>
      </contour>
      <contour>
        <pt x="388" y="225" on="1"/>
        <pt x="388" y="282" on="0"/>
        <pt x="316" y="364" on="0"/>
        <pt x="261" y="364" on="1"/>
        <pt x="208" y="364" on="0"/>
        <pt x="136" y="280" on="0"/>
        <pt x="136" y="225" on="1"/>
        <pt x="136" y="164" on="0"/>
        <pt x="206" y="70" on="0"/>
        <pt x="262" y="70" on="1"/>
        <pt x="291" y="70" on="0"/>
        <pt x="345" y="103" on="0"/>
        <pt x="359" y="126" on="1"/>
        <pt x="388" y="170" on="0"/>
      </contour>
    </TTGlyph>
    <TTGlyph name="one" xMin="99" yMin="1" xMax="450" yMax="622">
      <contour>
        <pt x="137" y="424" on="1"/>
        <pt x="119" y="424" on="0"/>
        <pt x="105" y="434" on="0"/>
        <pt x="99" y="447" on="1"/>
        <pt x="99" y="461" on="1"/>
        <pt x="99" y="482" on="0"/>
        <pt x="113" y="498" on="0"/>
        <pt x="133" y="500" on="1"/>
        <pt x="147" y="502" on="0"/>
        <pt x="151" y="502" on="1"/>
        <pt x="213" y="517" on="0"/>
        <pt x="251" y="596" on="1"/>
        <pt x="259" y="611" on="0"/>
        <pt x="270" y="622" on="0"/>
        <pt x="283" y="622" on="1"/>
        <pt x="309" y="622" on="0"/>
        <pt x="319" y="597" on="1"/>
        <pt x="319" y="76" on="1"/>
        <pt x="373" y="76" on="1"/>
        <pt x="426" y="76" on="0"/>
        <pt x="432" y="73" on="1"/>
        <pt x="450" y="66" on="0"/>
        <pt x="450" y="38" on="1"/>
        <pt x="450" y="12" on="0"/>
        <pt x="428" y="1" on="1"/>
        <pt x="127" y="1" on="1"/>
        <pt x="104" y="10" on="0"/>
        <pt x="104" y="66" on="0"/>
        <pt x="122" y="73" on="1"/>
        <pt x="128" y="76" on="0"/>
        <pt x="181" y="76" on="1"/>
        <pt x="235" y="76" on="1"/>
        <pt x="235" y="269" on="1"/>
        <pt x="235" y="461" on="0"/>
        <pt x="234" y="461" on="1"/>
        <pt x="231" y="459" on="0"/>
        <pt x="227" y="456" on="1"/>
        <pt x="186" y="427" on="0"/>
      </contour>
    </TTGlyph>
    <TTGlyph name="p" xMin="4" yMin="-221" xMax="492" yMax="437">
      <contour>
        <pt x="4" y="393" on="1"/>
        <pt x="4" y="420" on="0"/>
        <pt x="27" y="431" on="1"/>
        <pt x="89" y="431" on="1"/>
        <pt x="149" y="431" on="0"/>
        <pt x="155" y="428" on="1"/>
        <pt x="173" y="421" on="0"/>
        <pt x="173" y="401" on="1"/>
        <pt x="173" y="396" on="1"/>
        <pt x="182" y="402" on="1"/>
        <pt x="237" y="437" on="0"/>
        <pt x="305" y="437" on="1"/>
        <pt x="345" y="437" on="0"/>
        <pt x="420" y="398" on="0"/>
        <pt x="441" y="369" on="1"/>
        <pt x="492" y="308" on="0"/>
        <pt x="492" y="217" on="1"/>
        <pt x="492" y="189" on="0"/>
        <pt x="491" y="185" on="1"/>
        <pt x="481" y="121" on="0"/>
        <pt x="450" y="79" on="1"/>
        <pt x="390" y="-6" on="0"/>
        <pt x="291" y="-6" on="1"/>
        <pt x="264" y="-6" on="0"/>
        <pt x="234" y="4" on="1"/>
        <pt x="229" y="6" on="0"/>
        <pt x="183" y="37" on="0"/>
        <pt x="174" y="37" on="1"/>
        <pt x="173" y="37" on="0"/>
        <pt x="173" y="-54" on="1"/>
        <pt x="173" y="-146" on="1"/>
        <pt x="236" y="-146" on="1"/>
        <pt x="258" y="-159" on="0"/>
        <pt x="258" y="-184" on="1"/>
        <pt x="258" y="-212" on="0"/>
        <pt x="236" y="-221" on="1"/>
        <pt x="27" y="-221" on="1"/>
        <pt x="4" y="-214" on="0"/>
        <pt x="4" y="-184" on="1"/>
        <pt x="4" y="-157" on="0"/>
        <pt x="27" y="-146" on="1"/>
        <pt x="89" y="-146" on="1"/>
        <pt x="89" y="355" on="1"/>
        <pt x="58" y="355" on="1"/>
        <pt x="27" y="356" on="1"/>
        <pt x="4" y="363" on="0"/>
      </contour>
      <contour>
        <pt x="409" y="215" on="1"/>
        <pt x="409" y="274" on="0"/>
        <pt x="340" y="361" on="0"/>
        <pt x="283" y="361" on="1"/>
        <pt x="249" y="361" on="0"/>
        <pt x="191" y="324" on="0"/>
        <pt x="177" y="297" on="1"/>
        <pt x="173" y="290" on="1"/>
        <pt x="173" y="167" on="1"/>
        <pt x="189" y="123" on="0"/>
        <pt x="236" y="70" on="0"/>
        <pt x="278" y="70" on="1"/>
        <pt x="330" y="70" on="0"/>
        <pt x="409" y="153" on="0"/>
      </contour>
    </TTGlyph>
    <TTGlyph name="parenleft" xMin="166" yMin="-82" xMax="437" yMax="694">
      <contour>
        <pt x="437" y="-53" on="1"/>
        <pt x="437" y="-82" on="0"/>
        <pt x="399" y="-82" on="1"/>
        <pt x="384" y="-82" on="0"/>
        <pt x="380" y="-80" on="1"/>
        <pt x="367" y="-75" on="0"/>
        <pt x="342" y="-55" on="1"/>
        <pt x="259" y="7" on="0"/>
        <pt x="166" y="198" on="0"/>
        <pt x="166" y="306" on="1"/>
        <pt x="166" y="461" on="0"/>
        <pt x="256" y="582" on="1"/>
        <pt x="294" y="631" on="0"/>
        <pt x="342" y="667" on="1"/>
        <pt x="369" y="687" on="0"/>
        <pt x="380" y="692" on="1"/>
        <pt x="384" y="694" on="0"/>
        <pt x="399" y="694" on="1"/>
        <pt x="437" y="694" on="0"/>
        <pt x="437" y="665" on="1"/>
        <pt x="437" y="661" on="0"/>
        <pt x="435" y="655" on="1"/>
        <pt x="431" y="645" on="0"/>
        <pt x="414" y="634" on="1"/>
        <pt x="349" y="590" on="0"/>
        <pt x="311" y="525" on="1"/>
        <pt x="294" y="500" on="0"/>
        <pt x="279" y="461" on="1"/>
        <pt x="250" y="389" on="0"/>
        <pt x="250" y="223" on="0"/>
        <pt x="279" y="151" on="1"/>
        <pt x="322" y="37" on="0"/>
        <pt x="422" y="-27" on="1"/>
        <pt x="437" y="-37" on="0"/>
      </contour>
    </TTGlyph>
</ttFont>
